<mxfile host="Electron" agent="Mozilla/5.0 (Windows NT 10.0; Win64; x64) AppleWebKit/537.36 (KHTML, like Gecko) draw.io/25.0.2 Chrome/128.0.6613.186 Electron/32.2.5 Safari/537.36" version="25.0.2">
  <diagram name="Page-1" id="xQTJAvWAiXuF1SC-Nng-">
    <mxGraphModel dx="1434" dy="836" grid="1" gridSize="10" guides="1" tooltips="1" connect="1" arrows="1" fold="1" page="1" pageScale="1" pageWidth="664" pageHeight="1169" math="0" shadow="0">
      <root>
        <mxCell id="0" />
        <mxCell id="1" parent="0" />
        <object placeholders="1" c4Name="Nutzer" c4Type="Person" c4Description="Description of person." label="&lt;font style=&quot;font-size: 16px&quot;&gt;&lt;b&gt;%c4Name%&lt;/b&gt;&lt;/font&gt;" id="4-L-n2TwKw5mKGtv1cZT-7">
          <mxCell style="html=1;fontSize=11;dashed=0;whiteSpace=wrap;fillColor=#083F75;strokeColor=#06315C;fontColor=#ffffff;shape=mxgraph.c4.person2;align=center;metaEdit=1;points=[[0.5,0,0],[1,0.5,0],[1,0.75,0],[0.75,1,0],[0.5,1,0],[0.25,1,0],[0,0.75,0],[0,0.5,0]];resizable=1;rotation=0;" parent="1" vertex="1">
            <mxGeometry x="252" y="10" width="150" height="150" as="geometry" />
          </mxCell>
        </object>
        <object placeholders="1" c4Name="Frontend" c4Type="SystemScopeBoundary" c4Application="Software System" label="&lt;font style=&quot;font-size: 16px&quot;&gt;&lt;b&gt;&lt;div style=&quot;text-align: left&quot;&gt;%c4Name%&lt;/div&gt;" id="4-L-n2TwKw5mKGtv1cZT-12">
          <mxCell style="rounded=1;fontSize=11;whiteSpace=wrap;html=1;dashed=1;arcSize=20;fillColor=none;strokeColor=#666666;fontColor=#333333;labelBackgroundColor=none;align=left;verticalAlign=bottom;labelBorderColor=none;spacingTop=0;spacing=10;dashPattern=8 4;metaEdit=1;rotatable=0;perimeter=rectanglePerimeter;noLabel=0;labelPadding=0;allowArrows=0;connectable=0;expand=0;recursiveResize=0;editable=1;pointerEvents=0;absoluteArcSize=1;points=[[0.25,0,0],[0.5,0,0],[0.75,0,0],[1,0.25,0],[1,0.5,0],[1,0.75,0],[0.75,1,0],[0.5,1,0],[0.25,1,0],[0,0.75,0],[0,0.5,0],[0,0.25,0]];fillStyle=solid;" parent="1" vertex="1">
            <mxGeometry x="52" y="170" width="560" height="160" as="geometry" />
          </mxCell>
        </object>
        <object placeholders="1" c4Name="Quirk" c4Type="Container" c4Technology="e.g. JavaScript, Angular etc." c4Description="" label="&lt;font style=&quot;font-size: 16px&quot;&gt;&lt;br&gt;&lt;b&gt;%c4Name%&lt;/b&gt;&lt;/font&gt;" id="4-L-n2TwKw5mKGtv1cZT-17">
          <mxCell style="shape=mxgraph.c4.webBrowserContainer2;whiteSpace=wrap;html=1;boundedLbl=1;rounded=0;labelBackgroundColor=none;strokeColor=#118ACD;fillColor=#23A2D9;strokeColor=#118ACD;strokeColor2=#0E7DAD;fontSize=12;fontColor=#ffffff;align=center;metaEdit=1;points=[[0.5,0,0],[1,0.25,0],[1,0.5,0],[1,0.75,0],[0.5,1,0],[0,0.75,0],[0,0.5,0],[0,0.25,0]];resizable=1;rotation=0;" parent="1" vertex="1">
            <mxGeometry x="132" y="190" width="150" height="100" as="geometry" />
          </mxCell>
        </object>
        <object placeholders="1" c4Name="IDEQuantum" c4Type="Container" c4Technology="e.g. JavaScript, Angular etc." c4Description="" label="&lt;font style=&quot;font-size: 16px&quot;&gt;&lt;br&gt;&lt;b&gt;%c4Name%&lt;/b&gt;&lt;/font&gt;" id="4-L-n2TwKw5mKGtv1cZT-19">
          <mxCell style="shape=mxgraph.c4.webBrowserContainer2;whiteSpace=wrap;html=1;boundedLbl=1;rounded=0;labelBackgroundColor=none;strokeColor=#118ACD;fillColor=#23A2D9;strokeColor=#118ACD;strokeColor2=#0E7DAD;fontSize=12;fontColor=#ffffff;align=center;metaEdit=1;points=[[0.5,0,0],[1,0.25,0],[1,0.5,0],[1,0.75,0],[0.5,1,0],[0,0.75,0],[0,0.5,0],[0,0.25,0]];resizable=1;rotation=0;" parent="1" vertex="1">
            <mxGeometry x="382" y="190" width="150" height="100" as="geometry" />
          </mxCell>
        </object>
        <object placeholders="1" c4Name="Backend" c4Type="SystemScopeBoundary" c4Application="Software System" label="&lt;font style=&quot;font-size: 16px&quot;&gt;&lt;b&gt;&lt;div style=&quot;text-align: left&quot;&gt;%c4Name%&lt;/div&gt;" id="4-L-n2TwKw5mKGtv1cZT-21">
          <mxCell style="rounded=1;fontSize=11;whiteSpace=wrap;html=1;dashed=1;arcSize=20;fillColor=none;strokeColor=#666666;fontColor=#333333;labelBackgroundColor=none;align=left;verticalAlign=bottom;labelBorderColor=none;spacingTop=0;spacing=10;dashPattern=8 4;metaEdit=1;rotatable=0;perimeter=rectanglePerimeter;noLabel=0;labelPadding=0;allowArrows=0;connectable=0;expand=0;recursiveResize=0;editable=1;pointerEvents=0;absoluteArcSize=1;points=[[0.25,0,0],[0.5,0,0],[0.75,0,0],[1,0.25,0],[1,0.5,0],[1,0.75,0],[0.75,1,0],[0.5,1,0],[0.25,1,0],[0,0.75,0],[0,0.5,0],[0,0.25,0]];fillStyle=solid;" parent="1" vertex="1">
            <mxGeometry x="52" y="350" width="560" height="310" as="geometry" />
          </mxCell>
        </object>
        <object placeholders="1" c4Name="QCRAFT API" c4Type="Container" c4Technology="e.g. SpringBoot, ElasticSearch, etc." c4Description="Description of container role/responsibility." label="&lt;font style=&quot;font-size: 16px&quot;&gt;&lt;b&gt;%c4Name%&lt;/b&gt;&lt;/font&gt;" id="4-L-n2TwKw5mKGtv1cZT-22">
          <mxCell style="rounded=1;whiteSpace=wrap;html=1;fontSize=11;labelBackgroundColor=none;fillColor=#23A2D9;fontColor=#ffffff;align=center;arcSize=10;strokeColor=#0E7DAD;metaEdit=1;resizable=1;points=[[0.25,0,0],[0.5,0,0],[0.75,0,0],[1,0.25,0],[1,0.5,0],[1,0.75,0],[0.75,1,0],[0.5,1,0],[0.25,1,0],[0,0.75,0],[0,0.5,0],[0,0.25,0]];rotation=0;" parent="1" vertex="1">
            <mxGeometry x="132" y="370" width="400" height="70" as="geometry" />
          </mxCell>
        </object>
        <object placeholders="1" c4Name="Q-Trans Service" c4Type="Container" c4Technology="e.g. SpringBoot, ElasticSearch, etc." c4Description="Description of container role/responsibility." label="&lt;font style=&quot;font-size: 16px&quot;&gt;&lt;b&gt;%c4Name%&lt;/b&gt;&lt;/font&gt;" id="4-L-n2TwKw5mKGtv1cZT-20">
          <mxCell style="rounded=1;whiteSpace=wrap;html=1;fontSize=11;labelBackgroundColor=none;fillColor=#23A2D9;fontColor=#ffffff;align=center;arcSize=10;strokeColor=#0E7DAD;metaEdit=1;resizable=1;points=[[0.25,0,0],[0.5,0,0],[0.75,0,0],[1,0.25,0],[1,0.5,0],[1,0.75,0],[0.75,1,0],[0.5,1,0],[0.25,1,0],[0,0.75,0],[0,0.5,0],[0,0.25,0]];rotation=0;" parent="1" vertex="1">
            <mxGeometry x="82" y="478.66999999999996" width="150" height="100" as="geometry" />
          </mxCell>
        </object>
        <object placeholders="1" c4Type="Relationship" id="4-L-n2TwKw5mKGtv1cZT-23">
          <mxCell style="endArrow=blockThin;html=1;fontSize=10;fontColor=#404040;strokeWidth=1;endFill=1;strokeColor=#828282;elbow=vertical;metaEdit=1;endSize=14;startSize=14;jumpStyle=arc;jumpSize=16;rounded=0;edgeStyle=orthogonalEdgeStyle;exitX=0;exitY=0.75;exitDx=0;exitDy=0;exitPerimeter=0;entryX=0.5;entryY=0;entryDx=0;entryDy=0;entryPerimeter=0;" parent="1" source="4-L-n2TwKw5mKGtv1cZT-7" target="4-L-n2TwKw5mKGtv1cZT-17" edge="1">
            <mxGeometry width="240" relative="1" as="geometry">
              <mxPoint x="482" y="10" as="sourcePoint" />
              <mxPoint x="332" y="190" as="targetPoint" />
            </mxGeometry>
          </mxCell>
        </object>
        <object placeholders="1" c4Type="Relationship" id="4-L-n2TwKw5mKGtv1cZT-24">
          <mxCell style="endArrow=blockThin;html=1;fontSize=10;fontColor=#404040;strokeWidth=1;endFill=1;strokeColor=#828282;elbow=vertical;metaEdit=1;endSize=14;startSize=14;jumpStyle=arc;jumpSize=16;rounded=0;edgeStyle=orthogonalEdgeStyle;exitX=1;exitY=0.75;exitDx=0;exitDy=0;exitPerimeter=0;entryX=0.5;entryY=0;entryDx=0;entryDy=0;entryPerimeter=0;" parent="1" source="4-L-n2TwKw5mKGtv1cZT-7" target="4-L-n2TwKw5mKGtv1cZT-19" edge="1">
            <mxGeometry width="240" relative="1" as="geometry">
              <mxPoint x="597" y="90" as="sourcePoint" />
              <mxPoint x="552" y="187" as="targetPoint" />
            </mxGeometry>
          </mxCell>
        </object>
        <object placeholders="1" c4Name="Quantum Cloud Plattformen" c4Type="SystemScopeBoundary" c4Application="Software System" label="&lt;font style=&quot;font-size: 16px&quot;&gt;&lt;b&gt;&lt;div style=&quot;text-align: left&quot;&gt;%c4Name%&lt;/div&gt;" id="4-L-n2TwKw5mKGtv1cZT-25">
          <mxCell style="rounded=1;fontSize=11;whiteSpace=wrap;html=1;dashed=1;arcSize=20;fillColor=none;strokeColor=#666666;fontColor=#333333;labelBackgroundColor=none;align=left;verticalAlign=bottom;labelBorderColor=none;spacingTop=0;spacing=10;dashPattern=8 4;metaEdit=1;rotatable=0;perimeter=rectanglePerimeter;noLabel=0;labelPadding=0;allowArrows=1;connectable=0;expand=0;recursiveResize=0;editable=1;pointerEvents=0;absoluteArcSize=1;points=[[0.25,0,0],[0.5,0,0],[0.75,0,0],[1,0.25,0],[1,0.5,0],[1,0.75,0],[0.75,1,0],[0.5,1,0],[0.25,1,0],[0,0.75,0],[0,0.5,0],[0,0.25,0]];" parent="1" vertex="1">
            <mxGeometry x="262" y="478.66999999999996" width="330" height="165" as="geometry" />
          </mxCell>
        </object>
        <mxCell id="4-L-n2TwKw5mKGtv1cZT-31" value="" style="shape=image;verticalLabelPosition=bottom;labelBackgroundColor=default;verticalAlign=top;aspect=fixed;imageAspect=0;image=data:image/png,iVBORw0KGgoAAAANSUhEUgAAAXcAAAF3CAYAAABewAv+AAAACXBIWXMAADddAAA3XQEZgEZdAAAgAElEQVR4nO2deZQd1X3nbz/1qq27JWxWI7xgkgEJEi8xkYRjx/aABCS2MwEkyHGOgw3IyeTkHLOI+dMWAmdOMmMWOU5yMmOxZezYByThJV6ChDH22GERE4NtbIRtDFhLSy11t1qo59x6r7tru3W/v3vv6/de1fd3DkfUq+/ve39V9d5HpVu37u36+ccXTSlbdFkViegS6vM97GUlEwJIHOoW15nJ90pvmKQ3LTW14FzlH6ffNYZKsIiyu6dsAnuTvtcUOk5ZnU357mc+cPgtuFxT33xhndnjFKXXU6w58t+szbI2FaHAIhNesyk/3jU8hGcQaNMqcahbXGcm3yu9YZLe9L+eoc9V/nH6XWOoBIsou7vLJrA36XtNoeOU1dmU737mA4ffgss19c0X1pk9TlF6PcWaI//N2ixrs0ICHvXIpBDwUBDwEgOkBALeOb8CgK/FNwh43COTQsBDQcBLDJASCHjn/JIDvpb+gIDHPTIpBDwUBLzEACmBgHfOLzHgM3BXBLzII5NCwENBwEsMkBIIeOf8kgI+F+6KgBd5ZFIIeCgIeIkBUgIB75xfQsAb4a4IeJFHJoWAh4KAlxggJRDwzvklA3wh3BUBL/LIpBDwUBDwEgOkBALeOb9EgK9hP2YCHvXIpBDwUBDwEgOkBALeOb8kgK+hxRDwuEcmhYCHgoCXGCAlEPDO+SUAfM20Iz+XgEc9MikEPBQEvMQAKYGAd87vcMDXTDvMuQQ86pFJIeChIOAlBkgJBLxzfgcDPvtAlYDHJQQ8LiHgzZ4EvLMJAW8uIn+0DAGPSwh4XELAmz0JeGcTAj4/zEMhCXhcQsDjEgLe7EnAO5sQ8NkoHudOwOMSAh6XEPBmTwLe2YSAT4b1JSYCXiAh4HEJAW/2JOCdTQj42bDDHSyGgMc9MikEPBQEvMQAKYGAd87vAMBjcAeLIeBxj0wKAQ8FAS8xQEog4J3z2xzwONzBYgh43COTQsBDQcBLDJASCHjn/DYGfE385SHgcQkBj0sIeLMnAe9sUmXA1zChvBgCHvfIpBDwUBDwEgOkBALeOb8NAV9DhVlnRELAox6ZFAIeCgJeYoCUQMA757cZ4GuoMN8ZkRDwqEcmhYCHgoCXGCAlEPDO+W0E+OwC2QS8ISGAhIDHJQS82ZOAdzapEuDzF8gm4A0JASQEPC4h4M2eBLyzSVUAb14gm4A3JASQEPC4hIA3exLwziZVAHzxAtkEvCEhgISAxyUEvNmTgHc2KTvg7QtkE/CGhAASAh6XEPBmTwLe2aTMgIfeUCXgTQkBJAQ8LiHgzZ4EvLNJWQEPTz9AwJsSAkgIeFxCwJs9CXhnkzICXjS3DAFvSgggIeBxCQFv9iTgnU3KBnjZxGEEfEFCAAkBj0sIeLMnAe9sUibAi+GuCPiChAASAh6XEPBmTwLe2aQsgHeCuyLgCxICSAh4XELAmz0JeGeTMgDeGe6KgC9ICCAh4HEJAW/2JOCdTTod8F5wVwR8QUIACQGPSwh4sycB72zSyYCv+cJAEfAFCQEkBDwuIeDNngS8s0mnAr6xWAcBj3sQ8LhJepOAR0UEPCoAUioK+NhiHQQ87kHA4ybpTQIeFRHwqABIqSDgU4t1EPC4BwGPm6Q3CXhURMCjAiClYoDPWayDgMc9CHjcJL1JwKMiAh4VACkVArxhsQ4CHvcg4HGT9CYBj4oIeFQApFQE8AWLdRDwuAcBj5ukNwl4VETAowIgpQKAtyzWQcDjHgQ8bpLeJOBREQGPCoCUkgMeWKyDgMc9CHjcJL1JwKMiAh4VACklBjy4WAcBj3sQ8LhJepOAR0UEPCoAUkoKeMFiHQQ87kHA4ybpTQIeFRHwqABIKSHghYt1EPC4BwGPm6Q3CXhURMCjAiClZICvyb/kBDzuQcDjJulNAh4VEfCoAEgpEeBrLtUQ8BIPAh43SW8S8KiIgEcFQEpJAD/bLUPA58sJeEG+V3rDJL1JwKMiAh4VACklAHyyz52Az5cT8IJ8r/SGSXqTgEdFBDwqAFI6HPDZB6oEfL6cgBfke6U3TNKbBDwqIuBRAZDSwYDPHy1DwOfLCXhBvld6wyS9ScCjIgIeFQApHQp481BIAj5fTsAL8r3SGybpTQIeFRHwqABI6UDAF49zJ+Dz5QS8IN8rvWGS3iTgUREBjwqAlA4DvP0lJgI+X07AC/K90hsm6U0CHhUR8KgASOkgwNdCfHkycgJe4EHA4ybpTQIeFRHwqABI6RDA1+CGCPh8OQEvyPdKb5ikNwl4VETAowIgpQMAP7tAtoO5VU7ACzwIeNwkvUnAoyICHhUAKW0O+OQC2Q7mVjkBL/Ag4HGT9CYBj4oIeFQApLQx4LMLZDuYW+UEvMCDgMdN0psEPCoi4FEBkNKmgM9fINvB3Con4AUeBDxukt4k4FERAY8KgJQ2BLx5gWwHc6ucgBd4EPC4SXqTgEdFBDwqAFLaDPDdtjxruZAoJp/qUl1dfldff3m6JOcRqFEDoavo1IqPU1hjrofwXEHHaZEIj1MFuKYhzlW67hDXM/S5yj/OLtlPOnOc/r/R7O5UTU7fidljrQ0uU/NOWqHmnXiumnfiCtXVP1T/s28wN/fVl55UUxMj6tjzD6tjex6O/swvQVZnU7776RQNeOlvweWaAvldP/vLQeuNDtSQ8KT4Ar7uIU1AJJa6xMcp0+d7CM8VdJz+HpkUz2sa4lyl6w5xPUOfq/zj9LvGIX6j2d1TNkFu1IaWqZ43X6J6zrhAdS+7wAhxNDToJ599UI0//Ak1NfJ8TpaszqZ89zMfOPwWXK5pUX4Ed8CJgJd5JOQEvCDfK71hkt4k4FGRK+A1xHvPukT1nHWpqg2ejlTiFEef2qomHv6EOp6BPAGfTpiFO+BEwMs8EnICXpDvld4wSW8S8KgIBbzuWuk79yrVe+5V3nfnktB38mMPXh3dzSN1mqLsgE/CHXAi4GUeCTkBL8j3Sm+YpDcJeFRkAnxX/2AE8/7f+fOm3qEjMf6vH1cT3709t86ZqDDgsw9UfR9KwKKYnA9ZBR58yIqbJOvmQ1a8zryHrAPvvFn1X3AzXleTo/89n4oaSAI+de4q/JDVabGOEEOwMnIOkxR4OHzbfCVOQ+L8rimHSUpMHEoQ/s51v3q7hQa8fnibjNS58+WZy3c/84HDb8HlmsbCebEOAl7mkZAT8IJ8r/SGSXqTgEdFIU5/s2Pgks9G3UXJIOC9Fusg4GUeCTkBL8j3Sm+YpDcJeFTU7oDXD3P73/vXeXuSmxUDvPdiHQS8zCMhJ+AF+V7pDZP0JgGPitod8L3Lr1Rdg8ty9lQX8IVvqCac+JC1IeFDVtQjk8KHrFiJbfqQNUTot0/1f8cPPK+OvfSEmhofSRyrfptV9+33nHWJeHhl/wX/TR158OqcQ6jmQ1YM7oATAS/zSMgJeEE+AY+btB7wx57fGU0fMPl8fRoBU8SP9eiTn1PqQaX63v6xCNgo5KcfrOYfQvUAj8Pd5kTAiz0S8iYAvufkFWrxJbdCuXs/e1G+p/BLvnjtrar75BXW9sb/fasa+8FWqLZMk7FzpdtatOY2KG//P1wYM3EH/MKLblPdJ9mPceLxrdFxmtq0xfRx6rbmX4gd48F/+s/GuuESPAE/+cyD6uizD6rJZx6I7syRyPv+6yGO+i+EhVd9FQK81ui7fs5FUw8Z3IucsN0CUUxOwAs8Zs9V18Cg6n39Kj9D4ZdcwxZp8+hPd/rV1DhXtf5B1XOG4zE6Al7DtueM1Vb7yZ/lHKPLd0If4zJ7e2aT5gN+8plt6ugzDySBLv5XXfb7r7tw9JwyA+/9FOTRffoFM/9CqDrgu53AScDHJCXookE827SLxjtcAB+4Tau8Kcfp/xs9PrJHHX3ic2riia1RH/pskqSRVJOGO3i0e0ZPiWA/hGoAPrpzJ+CLEjoX8LKEQP3KwuhIwIeIwH3bUAQCvO5HH3/sdnX0mfrcLsndMnDmNpnz/dddPb0rrrTm6umEseMsP+BnumUI+KKEzgS8eMhVCMA7RDP+pSEOAt6ao2E++sBHYnfpJo/wgH/1pSeUUna4d5++OrfNKgI+0edOwBcldCjgpUHAxzb9Ad8MIHiHI+D13Tp+GGEBr/vexVFxwGcXyA4wwF64G/LIyPmiU/MCOs7wEeKaekfqwKzXEwjruWqDaxziN5rd3WUT2Jv0PTfQccrqbMb1zKQE4HD+AtkEfEECIiHgnZsl4OcuCPhYlA/w5gWyCfiCBERCwDs3S8B7hEOfgLQEAh7Z3XLAF84tQ8AXJSASAt65WQLeI8oH+PQQR6eoGOCtE4cR8EUJiISAd26WgPeIcgG+poc4AqHH3kuKKjPg7bNCEvCWBERCwDs324aADzG8hYCXNKLUPGC6BxXBPb1wtr2osgIegrsi4C0JiKQagG9Ks20J+DmwJOBnYt6J5yKVZMbgo0WVEfAw3BUBb0lAJAS8c7OdCPgQ/9oJ8p3obMDruXXQxbihO3dDm2UDvAjuioC3JCASAt7Vox0X/AihJ+CL8yVrtxZNK4wUVSbAi+GuCHhLAiJpP8A3Y0WnZni0BeDFjQaRyJosEeB7BHCHu2UK2iwL4J3grgh4SwIiIeBdPQh4sMmSAB69c9cjZUTdMgVtlgHwznBXBLwlAZEQ8K4eBDzYZIcDvja0DB7jXp9czCNKBvia75ecgC9KQCQEvKsHAQ822cGAn146D4nJnz3MN1ljEd25E/ASD2kCIiHgXT0IeLDJDgV837lXIa1EMflsfX55Ar4eM90yBLzEQ5qASAj4YB7SJgl4gUnhJpRj312vSdIlE/W3xx6mEvCpPncCXuIhTUAkJQB8iCgJ4EP8mKsM+J6zBF0yzzyQ9aw44HPmc5ebJ/MJeHMCIgkL+BBBwHt4BrieVQV837l/ApczaRjfXmXAG+Zzl5sn8wl4cwIiqQbgm/El9412BXzoaHfA67lk5p24HCtjYiRaY9W4v6KA7zbovJd445J9RQmyJftqA4Oq9w2rVe8pqS+7xWPe8DK4pEXvuQnS2Y5z3jD2mrg+nkVqI6QtOs55Q1h7Oha+G2zP0mYNbLP39cnx2daviEGg+57RmP97N8NaZbye5t/DsV89qY7+8MGktMu4mR/A77z/7R+Dj6EI7DOevktWQsfZlTx3vjwTsiyd0vXcXwwVks13DU8ncFrahEoS1h1i/U7xuQL0C966Tg1eequq9S92LYvBCBpTEwfV6JeuTkI+9V32+Y3quWSG/uIZ1dWHfecPfvZ34DVWvdckho5zChGhu50mIe1CXmJiF43EQ5pQvHvBW9er4T++i2BntFVo6C667H7V+xuxB54Bu2h6z7oUBrseJSNZPLtKXTTgfO5y82Q+AW9OyP9Yd8UMXrrZux4Go1mx8A8/W/hddv2NDrwT71o6+sTnxEdXFcAL5nOXmyfzCXhzQvajvjes5h07o61D3133nJGa98UT8L1nXQJP76tjQsPd5c62AoAXzucuM8/mE/DmhORmT/rhKYPRhtFzxmrrd1nyG+3/HdmD1JkXlwj4TDjM5y7NSOcT8OYE7yYZjPYIB8DrqX27l+X8ZWGIiSe2yhtJRZkB7zifu0tWPJ+ANyd4N8lgtEcIAd977pVw2fpBan0IpAyceVFWwHvM5+6aOZ1PwJsTvJtkMNojQMDrsfx9AriPP3Z7bIuAzwvP+dx9sgl4BqMSAYBPMkJGj7OfyIySIeDTYXxDFQ2+ySrxCPASRSqOjx9Uk7/Ex/kiEaTEFkxH04oIfT3r0fo7ge6TzlVdIUdrpX5v8U35Xfun1dT4SPT/ydMve0M0t8wSvcna7XICMt4EvMAjLBA02F/ZsnZmqgJjiN/Y9a9NfK6ANpvyNp/nNQ1yPTNvPvpfT59zNfihL+ePhPEJA/gkd+0q9SA1+xMm4KejNrPDM9hFI/Hwtsh6VmQ++NBjgVWAaxrkemb+Se9/PZtxrrLhd427hHftGuzpRbCzh8EuGpXocyfg8SYJeIEHAY+bpDfLD/j5wrv2sYc/abPMr6mCgK+ZdrgGAS/x8LbIehLwsEcmhYD3CPk11m+3+t61Fx9GtQFfy3x5CHi8SQJe4EHA4ybpzXICXtrXPvZvn3T4nVcX8PUFsgl4oSgmJ+AFHgQ8bpLeLBfg9V17j/BtVHSqAQK+Ht2zwq7kE3rr41l7lHkUTe+py1Wtf3D2g8DzwXeDi14UReaapkN4jUOM9BFfU6BGq8Thu+w7MirIqKip9KgL/+sZ+lyZV3QqPnfzL/wU3sj0XXuiYenvvHqjaLqTQgIeFQ3/wWbV98aVsrpaEAQ87pFJqTLgJSXmHqcZ8H3nXaW6wSX0VFFfOwFfuDu7QDa7aISi9g920eAemZSqdtEIA12TVa+ytEBw167fRs3ctQsOpMpdNPkLZBPwQlGLA/oxE/CoRyaFgIcCAfzAOz4Gr7KkY/w7ny4cIRMFAZ+72zi3DAEvFbU4CHhcQsBLJKIoAryeZkA6h8zYY7cH+Y1WEfCFE4cR8FJRi4OAxyUEvEQiChPgJd0xOo586xMzc8gQ8FZRZnfNLiTgZaIWBwGPSwh4iUQU6ePU89T0nnUxbKHnax//zu2Jzwh4qyixG5pbhoCXilocBDwuIeAlkkwc+5V5RtL4cS78w78T+Y5+6SMNE4caCfgo4LllCHipqMVBwOMSAl4imYmjP9ymjv7wwWK/KaXm/97NokWvJ5/fqSZ/9rCxKALeKopCNLcMAd9hQcDjEgJeIlFT4wfV4S9fb9XNG1omWvRaxe/aC4oi4K2inAeqBDyyu3OCgMclBDwcR771SfWqbYhi1B3zGdGiH3pMu3HoIwEfC3ud+SsxTdneiOKbrC/dsXZ2Q1g3Uufg+25Si993o8zYFMD14ZusuEcmpaRvsppi8mc71dijjYedBR69v3GJaMGPaOhj6iGqrW7oMMS/83K8yWoeCsk7eGS3QBSTB5hsTBy8g8clvIM3p4wfVKNf/KjVQ7+Jukj8EPXqmaGPxUUUbkI59t2dfwdfvEA2AY/sFohicgJe4EHA4ybpzbDXM7c7JsdDP0SVdMfoh6i2h7NFbRLwWVEx3M1usd0EvEwUk4cAvPRcEfC4hIBPRKI7psBDd8UMvGMDWm0Uo1/6qPeSfQR8UlQLc0IIeJkoJm/FfPAEPC4h4Ou7xw+qQ/HuGIOHS3fM2L9tij1EJeDzDZASknXWzMJi8+xuAl4miskJeIEHAY+bpDfdr+fhRneMraxoTPsQPqb9+IE9UVdPMgj4fAOkhNk6a8XCYvPsbgJeJorJCXiBBwGPm6Q35dcz3R1jKsulO+bQlz4CTxdcGAR8LOp11uzCYvPsbgJeJorJCXiBBwGPm6Q38eupu2NG7r3MZlnvjnm/rDtm4vG7o784lPE4Cfh8A6SErrzFOuTm2d0EvEwUkxPwAg8CHjdJb2I1HfriR4zDE+OW898l646JhlR++ePJzwh4gYG9BMNiHXLz7G4CXiaKyQl4gQcBj5ukN4trGn/8bjVhmzvGpzsm5y8NAl5iUFxCwWIdcvPsbgJeJnKW53sQ8IaEAJKSA/7VA3vU6I6PW49Td8csFHbH2CYcI+AlBuZNy2IdcvPsbgJeJgobBLwpIYCkxIDXYJ+5sy5oc8G7blbzhN0xh/ImBkvrCHiBQf4msFiH3Dy7m4CXicIGAW9KCCApKeAzXSY5bYbsjsktkYAXGGQ3wcU65ObZ3QS8TBQ2CHhTQgBJRfrg43rdHTN4xT+Lmou6Y/5DMMUAAS80SG4KFuuQm2d3E/AyUdgg4E0JASQVA7we9iiZO6b+hmv+6krWXAJeYDD7v8LFOmTm+bsJeJkobBDwpoQAkooAvv+8K1Xfb+Droaq8IZUEvNkzEOAdFuvAzc27CXiZKGwQ8KaEAJKSA16vrLTwok+JrI2jYwh4s2cAwOePliHgBUleuyGPZgQBb0oIICkx4Bevu1/UHaOHVM50xwBt2oKAxyN/JabpYgrOmWU36NG5Kzotef9m1XPqcthXWtK8JfjwMtcQnyvg+nBFJ9wjk9LmKzrpYY/dJ+HfedXojjk+PhL0XOUfZ5eMoJnjLN+KTma4A8VUGfAa7P1vXOneSJsEAW9KIOBnN7tU7+tXqfnv2iiyGfvOHbNzxwQ+VwS8PQIs1oFUZ9tdki6algSnKsA92EWDm8z+r8uwx2O/ekqNPnS9ydLaJhLsoikOO9yBYgj41gbnopF4EPC4Sf2PIWE/e2LYY76ltU24LQLeGBjcgWII+NYGAS/xIODRmH/+BtVzxipRjl7Y49ivnjTXZS1cViMBnx843IFiCPjWBgEv8SDgbdF98gq18KJbRTkTP9ymxr5tWGc1Xpe3IOVHwGeiFvrHTMC3Ngh4iQcBb4qon33dfbJ2dHfMv+BvoRLwkkZSKUBODRVKiiHgWxsEvMSDgM+LxR/4jGi2Rx0j9/6x+C1UAl7SSCrFklNDhVlnr92gBwHvGgS8xIOAj8eCd29Ufb8pm17gyDc3qcmf7sxpFKjLW5DyI+CjqKHCfGev3aAHAe8aBLzEg4DX0fv61WqBcDz75M92qcPf/GRBo0Bd3oKUHwGffYkp9Estlt2gR/u96DT62D1q4sc5dyqBov9Nq1VfgJekfF+KUU34Tqi8a+rgkZDzRSdBfv65qvez3y/zGj+oDtxzWZDrGfpcVf1Fp+68gyXg7TH63XsijdOPzNLm9O4QcFcEvCiqDPjhD39ZNJ5dRf3sl830sxPweJ1zAfjarHFWKHP22g16lKSLJsS5kjbJLhqBR/W6aBauuU08b8zhb25SR59L/us1xPVkF42kkVRKLCfW507Au+eHB3wzgoCXeFQH8P2/daWaf/51oryon/0bmxomKU8CHhY1E/Cpl5gIePd8At6cgEgIeNQjk+JxTfWLSovW3CZrT/ez331Z6sP0JgGPipoF+Jw3VAl49/wWAV78JSfgcY/yAl4/QB1af5+8n/2ey/IXuSbg4Rz7bn++GaYfIODd8wl4cwIiIeBRj0yKsM7BD8pfVBp96AZ1NG88+0wR6U0CHhWFBnzB3DIEvHs+AW9OQCQEPOqRSQHrXOjwotLEf2xTR759B1BEepOAR0UhAW+ZOIyAd88n4M0JiISARz0yKZY6B377yugtVEno+dkP/stHBUWkNwl4VBQK8MCskAS8ez4Bb05AJAQ86pFJMdTp+gBVgz23n70wMb1JwKOiEIAHp/wl4N3zCXhzAiIh4FGPTEqqTtcHqId2XK+OvWien724iPQmAY+KfAEvmM+dgHfP9wenW8NCOQEv8Og8wA+tv1/8APXIo3eq8X/fKm84UUR6k4BHRT6Aly3WQcB75BPw5gREQsCjHpmUqS61+IOfiRa5lsTRn+5Sh7ZfH3xNVkXAi0SugK/JvywEvHt+eMCHOFcZOQEv8Gh/wA/89no18FvrRTmvHtiTeFGJgJeYOJTQBMDX8NYLjAl4QT4Bb05AJAQ86qEaU/gOfnALJp62jt5AvTzzAJWAl5g4lBAY8DXTDnsQ8O75BLw5AZEQ8Iig5+QVavhK2VJ5yvIANX6u9APavt+8ROxPwOM59t1mvtVMO7Ag4N3zCXhzAiIh4IsENT03+we3iEfG6AeoYz8ofoA6fa70A9ruk2UzSc6apDcJeFSEAr6WERLwcBDwEg9pAiIh4E2CoSvvE4NXv4GqH6AioacI7jlD9oDWVjcBj4sQwHdPC7tSO2T1d2WaK/uCH72nLle1gcHo/30XiMhbdGHekmXOfiHOVUbOBT8EHq1d8EPfsUtHxug3UEe+gL2Bqt9wnZ4ieN7Qsqhf3ysyBzZ77o7v36NePfB87nGaQnKukOjUBT+6jUICvjCWfuAW1f+mMCslNSMIeJlHQt7BgF+wckM0OkYS+gGqBjvyBmr6Ddf+31of/des0AtvZ9ZnJeALds/WVEsLM5miqG4XTTsGu2hkHgl5B3bRaKgvWrtZ1qZSav/Wy6E3UF3fcG1KsIumYHe9psxLTAR8uYKAl3kk5B0EeD0yZvHFsjljdIx84ZpoCl+kTpc3XJsaBHzB7q78N1QJ+A6LOThXGTkBL/BoLuDnDZ+ullz9kPiOeuwHd0f/zXgW1OnyhmuICAHnqgLeOP0AAd9hQcDHJNUBvB7yqMeyS8GupxbQd+0Zz5w69QNU6RuuIYOjaHBRfHfh3DIEfIcFAR+TVAPww1c/JB7yeOzFp9SBrZebm43VqR+gLv6A7A3XZgQBj4umd1snDiPgOywI+Jik3IAf+qMtqkcIdj0yZv/dl6vjlpExus55w8vUkg9/WeTfzCDgcdEUOnEYAd9hQcDHJOUEvAa7y5DHfX9/kXp1/x6rVnf3DK1rk5ExsSDgcRE8cRgB32FBwMck5QJ8NMujEOw6Dm67Xk2Ci24sWnur+9QCoSMDPgIeEYkmDiPgOywI+JikHIDXUNd37dI4tP3G+sgYsG7dJdNWQcDDOdPRnRFJ3/wCcpJRjjdZX/y0bOX46UCPc+jCG9XQhTc4tZGIOThXGTnfZBV44OdKj2V3AbuG+uFH7og16j7tRjoOf2OTGv3GJkjre67SdYe4nlZJkO9Ea95k7UZEVklFAe8SIYAgDgI+JgkP+N5TV6jeN6xS3cPLZh5w6u14HH1uV7Q1+eJT6tj+56PtyV8+2fCwnysN9qUfeQgvrBHRkMfPZ4c8hgQ8GkG++wQ8nJOFO+hEwLsHAS/xaE/A9599sRo4++Lozxrw0HEa9nHoHx8/qMaf3qbG/9+26E/TudIvKWmwSx9u6r9IDnzOPOSRgBdIOhDw+XAHnQh49yDgJR7tAXg9C+jCVdepBas2QEC3hfaY/5Z10X+v7n9BHfn+VnXkkTsSwxSjl5Suko9aiUbGfPaiyCsktEIEAT83gDfDHXQi4N2DgJd4tA7woaGeF/OGX6cWveemqA0N+EP/uikC+5KPPNtXUa4AACAASURBVOQ0ln1vA+yqCdAKEQR88wHfHeJgCHj38P6SuzCTgI9JioHQ/58uVkOX3hrBdy5C/+Wx8PdvUgNvWa+Oj42Iwa5Dgz095JGAz9c7SToE8PmLdViMIQkBD4fvl9wJnAR8TJIFgr5bX/TejWrhqmvdCvUMPfvivCG5x4HPX2Mcy94MwFuHJNryCXiBiQzw5sU6LMaQhICHg4CXeDQX8BrsJ1yzw+muuZWhwR6f5dHpVLgA3vOaEvDNAXzxYh15xlKJ+JpnS+WarGi+wy9kDs5VRt7GLzr1nLJCnXjT0x0H9mj63u9jLymF+J1nUjyvaYiXwtJ1V/1Fp1ramICXeBDwMlFM3oaA7zlleXTH3qyHps0KDfYD/yc2lj0EtByCgMdirgBfyzMm4CUeBLxMFJO3EeB1V8xrOhDs+iWlBNing4CPbVYT8LGhkMm+H/bBSzzC98H7BvvgixKSNYYCu34p6ehzO6M3T/VIl8lfPhV9rv9FoNvQXT69b1gd7C8Q/ZLS/v/t95JSM76q7IMHS2xyH3xqnDsB7+5BwMtEMXmLAb/4vTepnpPPcWp3+i3T0V13zkwnkI6J53bOfKJr1JBfsPI6+O3WvHj1wB617+8uss7LTsDHN6sF+O5sMQS8uwcBLxPF5C0C/MA5FzsPdzz0tVsiqFsBm6pR/yWgu1Jq2wbVovdsVAtWytvXQyW7T1kR/UvB3igBP7tZHcAb5nNnH7y7R/g+eN9gH3x+6K6SoUs3i9vQ3SEv/+0qdfBrt0TdL679rTp35MEb1Cv/c1XkKY2h/yKYIZJ98LHNavTBF8znTsC7exDwMlFMPoeAX7j6OvGbp0e+f496+W9WZrtgPH7M2mvv362JvCWh794XrNwgaDSIRBwEPBahAV8z7cgzJuAlHgS8TBSTzwHgo/liVl8n8tTw3X9/zsiUmUZFdoka9V287qqRAn7hezZGc9DgjQaRiIOAxyIk4LMLZBPwyG7Qg4CXiWLyJgNeg13yMFNDd9/91zZ9RScp4PUx9L/lSmGjMnmoIOCxCAV4cD53PmRNx9IPblJ9pzXvLcbuJac3zZsPWZXorn3yxd0R2Gc8m7yi08FtN0TDJ9G3ZBeu3KAO77pTdq4CPUHVy/71vn61v5Ehxv99qxr7wdaZnXzIil9jwXzuBHw8NNj737RSUmxbRZUBr0fISO7a9+V0xTQT8PUummvVa/5iF5Srnxv0vWF1NORyrgFfn+CseTcikz99OPMZAY9d42y3TLqYjHHBbms+IOnULpoOjKp20QycvRbOO/i1zTMvI2U8m9hFox+yHn7kLjhXTxGsXM5Vh3652UVjj2K45xZDwJcpqgj4/nOwxc31C0p6HHuhZxMBrxfsQEPfuc96EPC4SXqzPIC3wz23GAK+nYJz0eDRffJyuEtmfPc2dfyI/QWlZgFed8+gD1d114x+83XWg4DHTdKb5QA8BvfcYgj4dgoCHov+N+IP/w7tvBOusVmA14tno5F+AEvAS0zSm50PeBzuucUQ8O0UBLw95oGjkHSXTKKvvUWA1/PW6FqQmDecPTYCXmKS3uxswMvgnlsMAd9OQcAXR+8p2PDCiZ/kzNnSIsAfM0xIlo54v3vSg4DHTdKbnQv4mtMJIeDbOgh4/zCNkGkF4CeQycEs0cxz1U5BwM9GzSyUFkPAt1MQ8PnR98ZVkO7VfXu8agwNeCTmDS8rbpKAF5ikNzsP8N1xofjFgKnqvuh06Dv3qvEfYS+ZoBFvov/MVd4vSXHRbfc4tv957xpDveg08ZNdatF77DpkErTQ50qvBAVNO+zwPdTn7uhP3f7VwhedppJvqBLweBGHHssOUYPsLKLpL8+wujHIG7AEfBNjDgEfMkKeKw32Q1+vj8e3HoYL4DkfvL1EA+AzD1TZRSMpQrQb9Aj/S2cXjTy6LV0ckhp9/0kPdyXtfwHSqSZ10YTudlAB6qxyF03uaBkCXlKEaDfoQcDLRDG5pU7dxYEEOmSy3igiaX4f/Ku2rqR0kwS8wCS92f6ANw6FJOAlRYh2h/MQBgGPRw84ZFJSoysQeg1DHEMEAS8xSW+2N+ALx7kT8JIiRLshj2ZE1QF/1DTEMRV9b1zdlJFVLkCITytQFK5DJgl4iUl6s30Bb32JiYCXFCHaDXk0I6oM+MIhjrHQ88/ou/dWA77/bHx64lf3Y8eW2yQBLzBJb7Yn4KE3VAl4SRGi3ZBHM6KqgB/Pe/PUEIsuuK7hIWszJOAHzsZmsFSNhbt9goCXmKQ32w/w8PQDBLykCNFuyKMZUUXA6zdP0blaokU9BgYbHrI2QwBeL4Ix/y3roOb0MR39BTZNQWFNBLzAJL3ZXoAXzS1DwEuKEO2GPJoRVQT82G5spkXdHbIothzfXAN+8fs2wk3pCcZUIGg1Yy4aAj5f7yQB6xZPHEbAS4oQ7YY8mhFVA/zY7u1wzuL33ZgYOTNXgNcPUdG7dh1jT8/+hdUMaIXQE/D5eicJ4CGfFZKAFxYh2g15eOvzLCoEeH3nfkzwws/Sy7fMdM+oOQC8bmv4MnyJPf3y0vjTyX+NBIGWNAj42GbrAe8Ed0XAC4sQ7XYLAh5vcqpLHfne3bC+55Rz1NAfbE55yNqUAH7w0lszC28UxZHvb833I+AF+V7pDZP0ZmsB7wx3RcALixDtdgsCHo6DD98FP1jVseCt69SSy5N3080A/PBlW0TdMbZ1Xgl4Sb5XesMkvdk6wNd8gUDAS4oQ7XYLAh4KvT7poYeLF79OxzTgm9FFoz2XXHaXCOw6Du+6IzqWwiYJeEG+V3rDJL3ZGsDXUPNCXwJeUIRoN9hEV/oDf88KAP7Qw3eJ+t5VA/CvvXZH0Ies2us11+wQg133tR/82i1YkwS8IN8rvWGS3px7wNdMO6RBwEuKEO0GmyDgZaJ62O5680L3wZ/0V7vU4Ptu8hoHr3OHLt2sTvzLXarn5HPEdez/52tkTRLwgnyv9IZJenNuAd+d2eE19zfng3et0/PUNzxSc00HMC3rfPAarK+9brvqPUUO1enQwyQXXnBdNPpGd/HoF6SQc6Vfjho4e62a/1bZnXo8RnfdNbvOq/fc300Ol9+oWJB3rH7z1nf6fPDd/uBL+VYE8H2nLY8AIT5Wi356d7dkytlYEPB2kT63J/zpPV5gnw79opPuqtH/6Yebk794Uk08tyv6F8FkY2FrPQmZaszLrsevo3PFmEJPMzDywA3W4zRFSMDPGz4dn7USaDMt0dMYz8yZQ8DjkqnGnTsBj8ZsTSf80SY1cKb/SknNCALeLOo9dXl0x+4L2LzQnhrg6OIaLqHB/usta6zHaYtQgB/47fXRf82K0a/fokYbKz25HKeqMOBrcWEm0yOq1AffjsE++KyomWCfi9D/Mtj7T1eYnxNI/+5sRR98iGAfPCRJjHMn4NEg4N3zWwN43W1y0l/t7FiwT764W738Nyvto3sIeHNKxQCfXUPVwbyw4dICvjOCgFdqwdvWqaVXyMa0t1NosL+yZY061uh7Dr1kHwEvyfdKb5ikN5sD+FruUD8H88KGCfjmhhV81QX80ivucga7dAx8M0KPinnpb1ZmumII+EYQ8EZJ486dgJfktGUQ8IndeiSTBvuCt13hVNvRX+5Wv/rvq9TLd17cEsjrF5Re+cxadeCBG42aqgA+xO88k1IBwMe6ZQh4SU5bBgEfRZcew75huzPYx3bvUC/fuTa6Wx7/yS71y08sVyNf3Syai8Y1dBsHv7ZZvbjpHDXx411WFwIeFeSklBzwyZeY8l7W4TDJzgpL3WUfJqlHxOg7dtcx7Ie/d6/ae9+1mc9HvrI5mq5g8QXXqvlvW6+6h1/n5G8Kfad++P/erUZ33pnsgoG+u/7D6hLyNgY8X3TCedZtA2euFwHf3lFRwGuwn7jBfajjoZ1b1P4vmbtBNHQPfGWzGvnqLfW3TM9ZW1+Kz7E9fZc+vnubGnt6e/HqUK0APC6d0yDg8/V50Z0vJOAlOW0ZFQP8wretU8Pv3+wM2r33XacOf+8euE4N4zqQr40m/uo9dUX9z8aEYj2nzr6JOv3mqor68p+KpinQ650ekyxo3QLAt2sQ8Pn6dHSbhQR8Uc4v/vZSoNBkSI51yZob1PCaGwClpYQKAF53lQz/ITY7Yl7svbcBdlHXxWydkw1gu0TI+YlUCwB/6F9vif6zhRicnm9nEvDWicMIeElOMnLOXRtO2tTpgF+67i610PHBqb6jfvmOteroLxpgFvdN+8FAuZyrDr2DF58rl9+og0cmpUSA77YLCXhJTjKaD3joa1hCwOuhjid+zH1WRz288df/uG4W7DMNE/DNCgJeYuIP+Pxl9jIe2UozEs8nMJwP3j1gwBfu7kp/4F+X93ci/xcSPTj1AHs0hv2vV2XBPtOwzM93SJ1yOVfQdxcg4xyH+Fy5/EYDHGcZhkma11Al4M0SAh6O0IDvf9MqL7Af2b1DvXTHWvsiHQR804KAl5ikN/HrWbxANgFvlhDwcIQC/MK3r1MnbtjmPCJm9Hv3qlf+cV0E9hDnylSnTxDwpoQAkooBPrtYR56QffD5kjbtg7fadWAfvH4xaeHb3R6c6tj/pZvUwYfvStYU4Fxl5OyDh4N98BITeR98/mIdFmMCXpaTDAJeEtFyeB++W/W/yW1hFD0iZv8Xb1SjhjHsBLzMI3QQ8BITGeC7Z4UEPCYg4L3qEhxntLjGh+9W3UvcXvXXYH/p9sZQx8LjJOAlHqGDgJeY4IAvXqwjzzgR7IOX5BTVpEL1z8X9Aoha1Qev+9dP+vNtzmDXI2Je/NSq5Bj2opoQU/bB58uDfCfYB4+bpDfza8qMc+cdPCpokzt4AFqddgc/dOGNauhC97dz9YiYvfdcmx0RYz1O3sG7Roi7Ut7BS0zsd/DZl5gI+IJ8QBII8KKYA2jNBeB1//oJ6+5U85fnLAANhh4Ro8FecCAE/IyEgEc9MikdAPhcuOfkAQICXpKTjPxzJ4oOB7zuX9dg7z3Vbfy6aswRM/pdYPIvAj4mIeBRj0xKmwPeCPecPEBAwEtykpE9d+LoUMAvePs6tfQDt3hNnfvKP6xT48DiFjNBwMckBDzqkUlpY8DnzOdemAcICHhJTjKqB3gN9cXvvMYtWT84/cVu9et7rosenPp/J0S7IY+MnIAXeBDwuEkW8Ib53AvzAAEBL8lJRjUAr/vXT/7zbV7dMEee2hGBffrBacgVncDdkEdGTsALPAh43CRZd8F87oV5gICAl+Qkw/cqtzfgo/lh/uxuVRtw64bRcfDftqh9X7wpWxMBX5BAwMOSEgDeMp+7MQ8UEPCSnGSUE/DDF/kNc9T96/v+5abCB6cEfFECBviQQcBL8sMBHpjPXbSbgC+SeB5nXvSdtlyd8l8fLBZZ2pSUNLlvj9r7hY2JMeQI4HU3zGvW+w1zPLbvBfXyP6w3T9Ubi+kfmW5XL+ih/wwRgS9fIwLcKQcurOeUFUH9CHhJfhjA54+WIeCxktoA8LprY+BMt3lXpDHyrS1q/0O35k6XWwT4aP71P3OfRkDH+I8ficBunao3FhpQr9XtDru3ywgXBLwk3/9cmYdCEvBYSW1yB9/MOD52UL2ydYM6/OR2cRfN4nddq5a+f5NXdab+9aKYv3ytOmH9nc7DKxlgSHu/CHhBvt+5KhznTsCDJZUY8Ief3BGBfeaOGeyDj7phrvTrhtF/qez94k1q9LF7RNfUd/oChjDEzxoIeDzf/VwVw10R8HBJJQN8BNYvbFSHHst5cGmpu//M1erEP9vqNRpGj19/5e7rZvrXkWuq/0JZ8v5bvOZ9ZzgGAW9OaRHg7XBX1QX80otvUPPfjPVnjz6+Qx34xpZSAH7sx4+oVz63QR3bt8csMtQ9fNEN0X8+oceva7Cn+9eLrmn3ktOj6YF9xs0zPIOAN6e0APAY3FX1AK/vAofffQ189/nS//pYIh9oouADpSZ+bh8REjr03fq+h25VI9+sr1hkPXWxujVcT7p6qzdc935xozr4rbuM+/OuqR43rx+csn997mPiudSUDwS8OWWOAY/DXVUL8AvPWwODfexHj6jJvbG73ACAH3v2kQi2Pl0bktB36y+n7tahUz+l1KJ36LlhNnnVqo/1pb9fD80PE7+mi995rVri+cCW4Rb6nYOJn+zMuUAEvDFlDgEvg7uqDuD1XTsaB76+JadRP8DrLolff36jeu1Vt8sKF4aG6q9NfeuWw6g/NL1DLVjh/tBUNYY5arBLhjl29Q9G89Kwf711sf/+gt8IAW9OmSPA2xfIznUvN+B7lp6u+k47G9LqF2tGn9hhaNQP8Ae/c2/05wl/5HdXbAo9EkbfrUdQFV7PgTNXRWD3Gbuu48CXb1X7H9osytFdQHrcPPvXWxPRurT3X6vGnt4eFHwEvCTffq6wBbJz3csL+MXnXw57jjx6r6VRf8Drvzz6TjtHDbx5lcUlGUXN6q6ksR/FukDA6xk9i1hzgxr8PfeZHJWwGyYd/WeuUkee2h79p0GP3r3rv0jyQvojW/D29dCLURM/eUSN/zin22I60H9eDy9TC96GHePBr1r+ovSE58RzO9XET2avWeg1WQl4SX7xucIXyM51LyfgF/8u/k/9g4/e2/RhkvrOug7jRyzV5ABecq4sdfaetjx6aOp7tx51w3w21g0jvJ6jsS4k/TAVh7sZfJIfWd+bVkNw12Af+Yo/bPvfuAqG+8hXb7FqxPC0fncJeNQjk9JEwCf63Al4pfped47qAeE1+sRDMw9Smw14LHLOXaCJpZas8R/iqENPX6D/C73gh2+EmMTLKVpw7C2ZTZKAN6c0CfDdSq/mHTOuOuAXnos/HEz3tZcR8HpistdeeYd3/3a9G+bKma6gZqzo5BvNADw64oiAz5ET8IL87LlqLNZBwE/HwvPWQrkaVvrFpXSdZQF8rX9QDb37miB364efSk1hMF0TAS8UhQ0C3pRQDsDHFusg4GvzB+FRMvqufRZW5QK8Hgnz2qv8R8LovwB1F8xI0UtJBLxQFDYIeFNC5wM+tVhHtQEv6ZI58kz64WbnAz6am2Wt/0gY1Zgb5uWtG9TR6TdtC78TBLxMFDYIeFNCZwM+Z7GO6gIenUdGTfe3W+rsJMAvWLE2Gk/ve7euGvO+60nHko0S8IqAF3sk5AS8IN+4WEc1AT8Awn3s2W+r40dMU+B2FuC7l56uTvjgJu+3TFXjhS7dt54YP59olIBXBLzYIyEn4OEoWKyjWoDX/e09S7G71iPP2iZL6gzA65eRht51bZC3X6O3XbduUFO2KQQI+LonAS/ySMgJeCgsi3VUB/D9p+FD/fSkXtI62wnw+oHpiX/i/8BUNR6avjy9SlOslcIg4Oue6LmSeLbxotsE/NwCHlisoxqAn38W3t9+JA/uQJ2tBryeM0f3qy9YcRGWYInpu/XsEMf2BLwvEJx+ZL7ffYcg4CUe5QU8uFhH+QGPro4/8fOniwVtCHh9bHrM+tC78PnpiyK6W//cBnX4qe1GVZkBL08i4GclBDzqkUkR1ilYrKPcgO973XK7SMP9BWARjTYC/OJ3XBENbwzRBaPSM0mqANDqQMBLu0pmcgj4hoSARz0yKYI6hYt1lBfw8+Zjd+6JRTk86mw24AfOXBlBXf8ZImbu1p/cbilCfBidCXinRgn4WQkBj3pkUsA6HRbrKCfg0TdTJ/e+AOmQOpsB+B69luif3B4M6irvbl1YJwEfb5SAn5UQ8KhHJgWos9vp21TRcfA6jqF37sY2mwP43qWnR3fqi96Bz0VvCz1uXUPdOG5dUGfTAO8ZBLzEg4DPT2hPwHe7Glf5TVZ5UvMA39OA+uKAUNexb8et6sA3tqipcXzpu5YAPkAQ8BIPAj4/of0AH5s4jIBHw3XR7ZCAbxbU9YIgeu3WiZ/PPjgO+WMm4OONEvCzEgIe9cikGOpMTRxGwKPRKsD3nNAcqEcLZX9+Y2Pd1tS5C/xjJuDjjdrPVfAmCXiBR+cCPrtANgFfGHrI5PRLTHMJeD3vzdKLw41+iceBb35G7dt+q3EKY9XGgA8dBLzEg4DPT2gPwOcvkF1BwB959ttq/pt/11qiXoYvkd5EwOuXjxaetyaCeqhx6vGod8HcnOiCMdWk2hTw4Tsu2hPwTWmSgBd4dB7gzQtkVwzwxmF+qVh03hr1q3STgQGvl7ZbfP4VavD8K4K8UZqOaPbGz29Uh1PLBGajUwAfPjoW8GLwEfC4R2cBvniB7AoBfmLPU2rhufY5VzRsh3//GrX/61uSfp6A13fpGuaLz79c9QkmMZOE7lfXI2D0SBg8CHj3fIdkAj4mIeBRj0zKVFf2JaaqAl73oy8FSzvhkuujaX8nXtid9BN+efSIF92XrrtekL9YfGLf9tsisCPTBmSjfQGv3xjWS/lNR8bD+8ecPc7R796jxn9sH/uvNSEmGzu2b48a+cpmLw+rnIAXeHQG4Lt2/+lrcqsM8iNJnQCnc2pJsnpmBNnDnZac+T+eg7tBotElD96WuYOP/AxF6Tnj9dTCC85bo+a/eRX8VqxPHPzOfdHDUg1B/2uac+6kHr7XE/KYSn/gHb5AcALnHJyrjDzAtMahvxMq75o6eCTkQb4TwnMFHae/x4zUBPdcn5ID/qQ/vV0Nni8bYqghf+jxHdFdfHxSselVjvQCIHqEjb5LnwuYT0cc6vEg4N2DgJd4SBMQCQGPeigb3HN9Sgx4/Qr/G275gbSytgoT1AtPBQEPBwEv8ZAmIBICHvWwThxWpT74o3v3qJFH7xPfvbdDRFDf1oC6tH9PfEE64yErF/yQijzrzHiwDz4/YW764KFZIasE+F8/cFs03LEZQxBDh+4SGn1ixyzUjceZDQLePQh4iQcBn5/QfMBbu2USYusHiEn7d9EM/u4V6uQPfdqlsjmJyX0vqIOP3qsOfH1L8fh8l3/+sYsGDnbRSDykCYiEXTRFAtF87lW5gx/59r2q/3XnqOHf/6i0sqbG2I++rUYevScCe7xy9xPBO3if4B28xIN38PkJzbuDF8/nXhXAv3T/zdGfrQa8vksffXyHOvCNz+Q+JA3RN0fAuwcBL/Eg4PMTmgP4rt0fanTLSP8JY/0AMemMLpoTL/vknPbBR33pj++I+tP1n0idrv90K5SwiwYOdtFIPKQJiIRdNGnBLNxB88KGSgp4PUb9hEuvb+ooGn2HPvbMI0mgC+sk4CUeBLxMFJMT8AKP1gE+CXfQvFBeUsCrxjj4pZdeH2Q0jb4711MejD37SO5UBq51EvASDwJeJorJCXiBR2sA3/XUh16Tnd6IgG9EDqQaf84/a6Wa/+aVauCsVWre/EHj26ca4uMv7I5Gteg3WMejN1l3z/SfO315CHhkN+hBwMtEMTkBL/CYe8BHcM8VEvCNMAMeN7U0ScALihDtBj0IeJkoJifgBR5zC/ja9P9kmnV4gO+TX89Jlur0tbEkWT0zguzpC3Ks8XSnc5X+QHjugDb9jzPn3Ek9fK8n5NGV/sA7nK5pvATX6YLdd0MeQerMeEgTEImlLvFxyvT5HsJz5fIbjUWtUEjAN4KAl+QU1aQIeEE+AW9OQCTVBnwt/QEBbxIQ8JKcopoUAS/IJ+DNCYikuoDPwD1XSMA3goCX5BTVpAh4QT4Bb05AJNUEfC7cc70I+EYQ8JKcopoUAS/IJ+DNCYikeoA3wj3Xi4BvBAEvySmqSRHwgnwC3pyASKoF+EK453oR8I0g4CU5RTUpAl6QT8CbExBJdQBfS4MT8iLgG0HAS3KKalIEvCCfgDcnIJJqAL5+507A454EvFlCwMNBwEs8pAmIpPyAn+2WIeBxTwLeLCHg4SDgJR7SBERSbsAn+9wJeNyTgDdLCHg4CHiJhzQBkZQX8NkHqgQ87knAmyUEPBwEvMRDmoBIygn4/NEyBDzuScCbJQQ8HAS8xEOagEjKB3jzUEgCHvck4M0SAh4OAl7iIU1AJOUCfPE4dwIe9yTgzRICHg4CXuIhTUAk5QG89SUmAl7gScCbJQQ8HAS8xEOagEjKAXg73BUBL/Ik4M0SAh4OAl7iIU1AJJ0PeAzuioAXeRLwZgkBDwcBL/GQJiCSzgY8DndFwIs8CXizhICHg4CXeEgTEEnnAr4mbouAxz0JeLOEgIeDgJd4SBMQSWcCPrpzJ+AlhYh2E/BFEgIeDgJe4iFNQCSdB3jzAtlWZwIe9iTgzRICHg4CXuIhTUAknQX44gWyrc4EPOxJwJslBDwcBLzEQ5qASDoH8LV0MQS8pBDRbgK+SELAw0HASzykCYikMwBfyyuGgJcUItpNwBdJCHg4CHiJhzQBkbQ/4GPzuaeEYmcCHvYk4M0SAh4OAl7iIU1AJO0N+NR87qpoE3Am4GFPAt4sIeDhIOAlHtIERNK+gM+Zz71wE3Am4GFPAt4sIeDhIOAlHtIERNKegDfM5164CTgT8LAnAW+WEPBwEPASD2kCImk/wBfM5164aQ8CHvck4M0SAh4OAl7iIU1AJO0FeMt87oWb9iDgcU8C3iwh4OEg4CUe0gRE0j6AB+ZzL9y0BwGPexLwZgkBDwcBL/GQJiCS9gA8OJ974SaQT8DDngS8WULAw0HASzykCYik9YAXzOdeuAnkE/CwJwFvlhDwcBDwEg9pAiJpLeCF87kXbgL5BDzsScCbJQQ8HAS8xEOagEhaB3gZ3HOKIeAlhYh2E/BFEgIeDgJe4iFNQCStAXwtxI+ZgJcUItpNwBdJCHg4CHiJhzQBkcw94Guo0FYMAS8pRLSbgC+SEPBwEPASD2kCIplbwNdQIVIMAS8pRLSbgC+SEPBwEPASD2kCIpk7wNdQIVoMAS8pRLSbgC+SEPBwEPASD2kCIpkbwGceqBLwRSYEPJ6U/oCAd/cg4GWimLzCgM8dLUPAF5kQ8HhS+gMC3t2DgJeJYvKKAt44FJKALzIh4PGk9AcEZHv2eQAAAmNJREFUvLsHAS8TxeQVBHzhOHcCvsiEgMeT0h8Q8O4eBLxMFJNXDPC1vC91nlDmXrgJ5BPwsCcBb5YQ8HAQ8BIPaQIiCQ/4xp07Ae+SX88h4PGk9AcEvLsHAS8TxeQVAXysW4aAd8mv5xDweFL6AwLe3YOAl4li8goAPtXnTsC75NdzCHg8Kf0BAe/uQcDLRDF5yQGf80CVgHfJr+cQ8HhS+gMC3t2DgJeJYvISA94wWoaAd8mv5xDweFL6AwLe3YOAl4li8pICvmAoJAHvkl/PIeDxpPQHBLy7BwEvE8XkJQS8ZT53At4lv55DwONJ6Q8IeHcPAl4mislLBvia3ZyAd8mv5xDweFL6AwLe3YOAl4li8hIBvoaZE/Au+fUcAh5PSn9AwLt7EPAyUUxeEsDXTDuyQcC75NdzCHg8Kf0BAe/uQcDLRDF5CQBfM+3IDwLeJb+eQ8DjSekPCHh3DwJeJorJOxzw2QeqBHxT8us5BDyelP6AgHf3IOBlopi8gwFfy/Uh4JuSX88h4PGk9AcEvLsHAS8TxeQdCvia0YeAb0p+PYeAx5PSHxDw7h4EvEwUk3cg4GcXyHYyJ+Bd8us5BDyelP6AgHf3IOBlopi8wwCfXCDbyZyAd8mv5xDweFL6AwLe3YOAl4li8g4CfHaBbCdzAt4lv55DwONJ6Q8IeHcPAl4misk7BPD5C2Q7mRPwLvn1HAIeT0p/QMC7exDwMlFM3gGANy+Q7WROwLvk13MIeDwp/QEB7+5BwMtEMXmbA754gWwncwLeJb+eQ8DjSekPCHh3DwJeJorJ2xXwqkv9f5LUJl/lOtmGAAAAAElFTkSuQmCC;" parent="1" vertex="1">
          <mxGeometry x="342" y="503.66999999999996" width="48.67" height="48.67" as="geometry" />
        </mxCell>
        <mxCell id="4-L-n2TwKw5mKGtv1cZT-33" value="" style="shape=image;verticalLabelPosition=bottom;labelBackgroundColor=default;verticalAlign=top;aspect=fixed;imageAspect=0;image=data:image/png,iVBORw0KGgoAAAANSUhEUgAAAOEAAADgCAYAAAD17wHfAAAACXBIWXMAAA7DAAAOwwHHb6hkAAAAAXNSR0IArs4c6QAAIABJREFUeF7sXQ1cTff/PzfkoctkSKzM437yMDWTGZXNPEU0irZpSsXPY5rw8/BztuGHSJgNRWam3GwJEXugZpswjRHblFWzwibjIpXOv/fZ93v+33s6t27p4ZZ7Xq/t6t5zvuf79P5+nj8fFWe6as0MtGnTxvn69esLOI4bIAiCGcdx5hzH4bMQnyqV6k6TJk22WFpavv/7778/qDUDe8I7qnrCx18jw9+yZUsDvPjIkSN9L1++fDw1NRV/AkxKVxHHcfUp0Jj7ADx8j9/ps/kEmHkcxzUiz+AevZejo6O2R48eL/Xt2/fnrl27CoMGDUK7pqsaZ8AEwiqe7J07d1qcO3fOJiYm5mJmZiYFixKASusJBZqW47gmDPWjIKQgpu3ibxacho4Sz+C64+Hh0WPEiBF/+fj4ANCmqwpnwATCSpxcsIiffvpp9/j4+FZRUVGxHMep9VA4SrEMebshYGLvof9mAVnaeww5EPLs7OyOjBkz5r9Dhw7NdXZ2zjKk46Z7DJsBEwgNmye9d/E8b/b3338PXLdu3RSO47wYFpDKaSKVEgQBnywwKMtoaA/uEyrItiEHM6VklOKW5x1oi7K95iqVuDXEMRD5k75LBLmzs/NqV1fXQ88+++wJT0/PR4YOwnRfyRkwgbACu2L//v2jd+/e/Up0dLQvoXYiMMjGpZtZBAIBH/sW9ndDqRzahxKGXnIqJ2+HAtaQ0eFZKney97NjwvcS4AVBoP+mn9p58+ZFu7m5aQYMGPCFIS813fP/M2ACoYG74dChQ6127twZFR0d/TIBhLhxVSoVK6+B/cQlficIAt3gIjWUsaYUKJR6sT3Rp6TRAbiC4kUORkNAzr6XvV8COjlc6H06ABcEQaSWzNjuLFmyJHHcuHFezz///D0Dp/eJvs0EwlKWX6PR1Dt9+vTOkJCQN9gNTzYl3bCKG59QQPqbDisnY1lL1V5SQNva2uar1Wrzhg0bcs2aNStSq9Vc48aNsfmLbt68aZaXl8fl5+cXPnz40Az/paWlSYeBgTtcSTakmlL2sNFHjUX2VRAEaTy2traFS5YsWe7n5/ceOawM7MqTdZsJhLL1FgRBtWfPno6rVq06mZKS0pKAgFOpVOKGZ26XazrFTUipgowNpSDUt9GxcX/hOO6PCRMmxA8cOHDz9OnToQmttGvTpk3qs2fPDt+2bZsrx3E9OI57jtG0Kpk5dN7Nyogyiq6kCAIY8bwESD8/v9NTp04d98ILL2SpVCrxR9P1zwyYQEh2QlZWVuOPP/54+uLFi0NY+YdhN5VYO5Y1k4BGFBkAKVWMsAoTVlmy55VXXpn/9ddfZ1T3hsRh8+abb3bYvXt3GMdxo9gxk77IwZWvUqmoXKp0GNFDiKXslC2XWNlOnTqZrVixwtPT0zPeRB1NIBRnICMjw3LZsmX/Cw8P96dsIkP1KLWTgw0bjaWEVIOIJnEv3YisMoUF4ua5c+fOXbNmjVHITAsWLOi8cuXKOI7jniXUkY4DNkl6gYrf4TiuOR07IyuWpShCG3mCIMCBABcOrKINGzb4zZw5c49KpXqiHQSeWEr4888/t1y0aNGGvXv3epCNAbcvuUKEbi5F7xQi/+AZbKovunXrtjowMPD7zZs3J6akpDgyQGWVMNuK2c6A6qZ8Zb0PlFGlUn3OcdxgovGlj0hyrUajaZKbm9vw008/HZmUlPQRASwOHMiMpTkKyE0pVHbE93nLli0LWLRokeZJZVOfOBDm5ORYzJw5c1dMTMwYxudSLt9hQ2HzUUoml/XopspxcnLifXx8Pp40adJDuomcnJymJyUlfSDzWkEbhcOGDeuWkJDwW1mgqInfCRBxYIBiUc0uezDVo/3CvQcPHmwcEhLinpSUtJDjODvyW55KpcLzJYDHyohMO/SfOSEhIXOCg4Oja2LsNfnOJwaEgiDU8/f3PxIREfEqBQdzerMUrwT4iIyHdYKyxHzo0KELJ06cGP7WW2+BPStxvf766/0+//zzRAJiOasWynHcOzW56Pre7eLi0uj48eN/ERDKuQLIso31PRsZGdlmz549GxMSEtxYm6ZKpVJyGGBlStHUwyiybmzZsuXFKVOmZBrjHFVFn54IEC5fvnzRokWLltEJZJQt+EqvLY3Y+XCPmZWVVdqKFSucJk+e/EdZCxEYGPhsWFjYVeY+uYkCVBgymNFcffr06XjmzJlfFTSftI/JHMf1N6TDGzZsGLJw4cI4rVZLZcAiRn6k4FaySeaTAw8s7p9xcXEdR48efdeQd9bme+o0CPft22c3ZsyYnxhFAmvsVvKtZI3sWNeMyZMnr4qIiNhaHnkF9kVPT0+Rasq8UViNY8ozzzzjXNMhR8OHD3/m8OHDP3Ac15rZyHIbaNGkSZMm7NixI6Y8m/27775rHB4eHhEZGTmI4zhrsKiMhpU2pWTiABgxd4XOzs4xa9eufbtPnz4F5Xl3bbq3ToLw8uXLTd9+++0rycnJLRh3sjIdlYk7Fk7hL1evXv32vHnzch5jMaG4gAJGZLdkBno0SzWokMG+sra2fs/b2/vXxo0b3+V5XsmL5jG68v+PhoaGNv7000/b/vDDD0Ecx00jv8hNDvID6s9jx47ZDBo0qMIRFStXruy+YMGCT4o5AHvMhUqlkjspsJ43kiaZsKn3g4ODZ65evXpHXTRr1CkQgpVZvnz5vMWLF79PjeYqlYpVELB2OwoO+HdSJYRm+/btgb6+vjcfd8fHxcU1HT169C0CNn2+nHKWjLp/4fv4zp07r3j++edvt27d+rqVldXfhoITlPjs2bPN0tLSrK9cudI+JSUFhwFYYDn1kbvBscoYGixc5OXlNTIqKqpSfEI1Gk1nT0/P3RzH9QSnQNaHsq1y8UA8DIhrHEB754svvuj32muvXXrc9TGm5+sMCM+fP9/Rycnp8O3btzuTKHN2QZXkjyJG4RKzc+dOH29v70q12/n5+fWLiIg4RhQd6A9YVOpfSqmNHAi4T+5hQ8dCbXUA998cx1EWDesIpUkrjuOeZoJ9WeM6DiDY/ZTCqCjlYR3FxTnr2LHj0vT09Pcqe9PGxcW1nTp1akp2drbIBjNyutzUgZ9FxwfCopqNHz8+Ijo6eqpKpaoT0Ru1HoRQlc+bNy8uJCQEXh9YTLph6aaT2/qojQqb7ER4eLinv7//9creZLQ9f3//ruHh4SkMECmFkUfFy6mAkopf7gTOOgDgebkztdJ38mfoPSx7KHIMnTt3drty5cqBqpobtBsXF2c1evRoDVJ2gHUnbCorOlCOhfW+wb+v79+/f6Sbm9vZquxfdbRdq0F49erV5v3797+UnZ0NH0/q38luckpl6ALS326uWrWqz/z588vUdFbiIuBdUE5QoKBvlA1j2dXSjN4UqJQ6sCBjv5ODj6W6ci8e1hRB74vneX4Cz/OV6r9a2lwiA4G3t/cZjuP+RcCo1C+so0itKYvq4+Ozffv27f61WVastSAMDw9f4+/vP4dhPeWUhGVBKet5f9KkSZ127NjxOAqXCuNy5syZdhs3boSqn6ao0Ef9lDS35XkvAI5NTKmbEvVj26NUN8HDw+PNmJgYsLs1cgUGBvYOCwsD50C5GtoPRaoPkUKlUmnPnz/fu2fPnmLoSG27ah0IMekjR47MjY+Pb0YWSjodZfKOuLGIxjPPyclpVFJSUpIxLNCmTZt6r127NjI9Pb0rASRViFDQsKyo3I4pV56w5gRJ2US0spTqsomi5NT0Bsdx3/A878fzvKLzQXXPGUSMfv36fZucnPwioYrU1IODRa7kksKnwsLC5gYGBq6t7v4+7vtqFQjT09OtevXqla7VapswoTXsaU/DjWhUOzbz/4qzmy2fMmWK0dmZfv3114ZHjhwZsGvXrldOnjzZgeO4bhzHtSE2O52xMGFULJtWFoWj+wMyHgAJL5TLHMdlu7i4HPfy8jo0ZcoUbGqjvCIiItr7+fntgpMAWW927IrBxRMmTEiLioqyq01O4bUGhBqNZpynpyeMxdTgK6cQVA6iLlC/jh8/fuSePXsQp1drLlCB1atXq3/++ecef/zxh/OJEyd8tFotIhfwH6ViNIqDte/h3zh0oDW9yHHctxzHXXJxcfnJxcXlF0PNG8Y2UZiP4cOHj0tISIDyBoob9nAqofWGXVGtVv+Zmpr6vK2tbXXK/BWeOqMHIdjPefPmfRwSEuJJ7EpKg5XYOWLc/R/P84tr68ar8GrW4QcPHTrUbMSIEVDcdJG5HcqdMCT5/8svv3xp8ODB5419WowahDgFR44cmRQfHw/1tVxQp3PLqq45V1dXp/j4+G/KM/F4z/z588euXr16Ook6pzFzYON+dHV13R4fH48QJNNVgzOAA3n48OHxCQkJw8h+UJKXRUpJtKeFW7ZsGTplypQTNdjtMl9t1CDs1KnT9bS0tNZMFjMI6HKvfHryaTUazdOenp5gyQy+tm3b9tzkyZOPE3avkSypEfWmEcOQRowY8cqhQ4eg3azwdejQoYbZ2dn9c3Nz37p9+3bHgoKC/Ly8PDEj9/379wsKCwtVDx484AoLC//JkVhYWC8vL080Sj948ECFjZifn889fPhQZE3z8vIE/LuwsJArKChQIb9Mfn7+I61WCxkYm7QhHiWaUrwHDyIkCcZ9/Bv34N9/2dra/mpjY/NB9+7db27dutXoZGg66StXrnxqwYIFkG+b6YnSEG+leX6Cg4PfDQkJqXSHgwpvAtmDxgxCbAKon6k9TcnrRZxoS0vL3bm5uW+Wd1KCg4MHhoSEAIB4j/xxVs0PoON3M0tLy6sXL17sYW1tXXDlyhWzR48emd+9e3eAVqsNvXv37r8ePHhQeOfOnfoPHjwQZddHjx4BHGLfCXDE9yAxEz7y8/PN8/PzRYWDVqsV78MzBHQiuAjAOHwPgNKLJHcSwYi2AUD8gfcVFBTgHaJdtKCgoP69e/84A0FbDLmKBCSLhwtjr6RNsxpn9jtJMeLo6HjH1tbWrXv37tCssrJpeZfhce6Hod6e7BHWJCOZeMi65bu6uv4SHx8PVzmju4wOhFevXm3UoUMHcacpAEPSiFFnay8vrzFRUVHl9urYvHlzl6lTp/4i07ICGWKkOLNSbF0HMY2FWq0u/OSTT7I5jmsHqgTgkE8RRHl5efRTBA6oHQGhaCogAKyPZ/Lz88V7tdp/7OIEgIUPHjwoKiwsNCcALCLfmxEQggLiWREUBIDi8wAfAaD0N0B67949RCaUoPRknKynDcZLC82wphMdtl9mDmKDoLFG91966aUhPXv2vNC2bdtHS5cuRdh+lSR3GjVqlPOBAwf2E6ooHkjERirXnhY5OjpeS05OtjU2FBoVCJOSkqydnJyg0aJe9nRCWbsZDXPRrly58pkFCxZAG1iuixh44aTdgvG0YD1t6GKKAGMiIMQTH8/7+flxbm5uAAvAxIJPfCYvL6/w0aNH9QEIChR8UoASAIonNgFg/qNHj8TTnLCjOhQQz1IqyFBAFoCgfvjPrKioSDwUyLsBQLHPCmYdeZyjfB7p/FOfVzmFRP9xiS54xBeXdTSgBxh9T1a3bt22Fscu7hw1atS1ysrcvWHDhmazZs36HtH9hD1lDxFp/UAVO3bseDUtLa1TVR0K5dqI5GajAeHnn3/e4/XXX4enBM1kTcdDNwL1qMf3v2o0mm4VWUTiazorJCRkDfFTZI3dlN2Se6zosMKElSv65JNPpAVmqJ/EUgIUlEUkv0vUi1BOsKDiu1hWs7CwEFRQBBQBpj4Aon3RQE8pYFFREd5BAcgRNpQdo3g/QzGUDjrMsUHpKRQ2nT4XOUlGI+9G+9Skkjhy5Mijjo6OZ3r37p01cuTIB+UFCUnNgUDpUUzGBMomS2YNwo5fKyoqek6lUhmF3GsUIDxw4IBLMVuBaAPWm16H+hHvF9yytJjSlFvIRnqLn3/+uUlRUVEbOzs7GKwhG7EhNPoOMcVNilN13rx5XM+ePal8J34qyYCE/aSspwREQgHBalI2s7CwsLA+YUFFSmoABZRYUCUAop8KbL0+iic/kOTaR/qcUiSGnHswmCgolArQ2tjYbHZ3d//Y3d39cjnLtcFjJkhmxmAPFUqx0/74449ebdu2rXFnhRoHIYl+h3GZ3SwlwntwgnXr1m38pUuX9hmyun/88UeTP//8E2zH64IgdC0qKrprZmZ24bfffmvg5ua2shSbo1LzdDNKMiNiEIurFBW5urrWpyB79OiRqBBhlDCQ3UTqSthPsW0GfGBnRbkPrCZLDUE5IfMReU9s9+7du0W3b9+W17eg8hgFAZXj6N9UvqURGFTmZb1PyppSmrxJTiFZSlNaGyxnwcqfLDtLFWE0fSSd89scx4FD+sHX13fdxIkTb5QFSltb21GZmZn7ZaIG+ie9mxxOaZmZmT1tbGxqtKBqjYIwISHh+WHDhsEAy6bMk4ceYdPlubi4dDl+/Pjvpa00IuofPHgwzMzMrL8gCMj+1YWo36HGVzVs2PCn06dP3/b39/dQOClLo4SUhaMbW6yyZG9vz02bNk1k+QASqv0kMpsoP0H7KWsYKewLn3rqqbzmzZvnNWvWLKFJkyab69Wrd6VevXr3hwwZgg0hKjHKy5KVhSSl31FVCtrRhw8fWhRreJtlZGTYZmVlvXblyhX7u3fvwtG8E8dxTzEKK9YPlQKZ5pChbB8FkBLQWRDqo7Qs2FkxBN/DuTxNrVbvhEtbWFgYQFriImk7MmSZ06X+4gEcpFZWVrfOnTvXsU2bNpUaS1qetagxEH7zzTeWAwcOFL31ZTkr2VMTSpj8gICAFvrsVgBeXl7ebJKqoZ4gCDlgMx8+fIh2LDiOsyRq+sIGDRrcTkpKyg0ODu6pUqmwwcpTvUjHPgkQdurU6f7UqVMbNWrUCIC6b25untK8efNtrVu3PtK7d++/qwNE5VnsyriXgjYzM7PLrVu3PkxMTITNU960nEICpKwzudL9FCAsq6uzF2gWN2p2YHL43Bg7duzkzz777JCsYezvWyqVCs4XLDcjiSEw6tva2t7PyMhoo1KpaoQi1ggIL1269HS3bt3+hLJQlmuEVRjAO/7WzJkzbTdu3Chapul14sSJpg0aNHi92MA8k+M4G0EQ4NAt2goEQbiB06+goADPQ/sJqtIYGkyVSvXXlStXGvn7+9uUgxLS12IRpRhAHA5+fn5Ti52MIytjc9eVNqAgWblyZfP09HSXb7/9dlxqaioc02EWADXF5qdrfF+lUrFVrOgUyJVjcltmCWAS7xg8j7ahM0BmPfEgCAgIaLB169Y/VSoVom7YjAX0fuyZQkdHR+7kyZNIt1ElppTS1rfaQXjz5s2mrVq1AgWEYoRNs872U0x95+Hh0Vaj0WACBeRNsba2hodEH0EQNqlUKhsmZg5UCounxYRCxiIXBLQG0DKS33Pu3bv3lLu7O56VU2B988Tayug9AHheRTx06grYKjKOAwcONElKSnoxMTFx+KlTpyAuPANbKwEPknKJC8cczDpaaQbAuI9N3SEBl3FCgOP+WJ7nr2zZsmVvdnb2cFmmNx2xh8j4l2NjY3tUNxCrFYSYIJVKhezT7RibFeYdky25pIHdKFZZ9+d5/syNGzfMmjZt2uThw4eW9erVQ3zZAihayIQCDFgA0f0E1K2goACnbS5OZPLdQ2o+ePToUZaZmdlXc+bM8U5PT+9QTmoobQiSGGpdMejnVmQzmp75/xkg7G2TxMTE7seOHevHcZxLcZIrrDOyEMC2ycqQiHcU40hlxXZYmV0ykZCcNOK9RBOuBGr8LioCsZeKg4r3hYWFuVfnGlUbCAEKBweHsykpKThpJFaAGSwVwPOHDx/+5rx5877ExOTl5anr16/fRhCE5zmO8+Y4rrcsnycle5hIUNY8GMqxgIWFhelmZmbfPXz48GSjRo2utmnT5iI0YRcuXGg3ZMiQCwo5MJXmXq7Zw2Llvfrqq89+9dVXVZabpjo3gTG9C/vk8OHD5kePHu0eFhY2tVgzOpopQiNqemUZ9Njuy+279ICXx2BSSqqjJKKuievXr//37NmzN1fXvFQbCP38/OIjIiJGMDYruSEV9pv6Q4cO3TN79uy5Dx8+bGhmZvYvlUoFTaeLSqVCTT1QOeojyNq0xMkmrl3a/Pz8002aNNnYunXr7/r27ZurlH9kzJgxY/bt2/cZ0Z7JPUeUjNvimpCF2lMcHDuhuhbpSX4P7LtHjhx56siRI4N37NgxMzc3t68szT6lZDT6nqWKcoBSsUSulZX2Ik1/+cUXX7z22muvwa+4yq9qAeGGDRtGzZo1C3YbelLRoiOYFJqGAir/tPfee09TUFAAb/9nVSrVC4IggC2hcoJOhjJQJMh7giBAFb3H2to6ysbGJr1Dhw6GJqmF0T+YMdqzi6OkPhcNvcWyaWh2drZR1pOo8h1Twy8ApdyxY4fVjh07JiYmJiLHEBQ+4ICgeJObktBbuTuivEx5CTMK1b7+/PPPHZ977rlrVT3kKgdhcnLy046OjtCE0qhoOib29OFsbW2LQkJCEPcFnh8pHiCo43Qr4d+Yn58PkJ1Tq9XvNm/e/NjjZIa2sbHxycrK2qqQqZude9Y8ATn0Js/ztsWBw5IGqKoXytS+8gxAprx27drA8PBwVMGCskfcV4xLItVos4mfWXshy5pKmdKJxhWHLjTvVZrftEpBSJyGoaGkLmIleHZy6hSGh4drYXAjCXIBwBIG8gcPHpx46qmn9tnY2HzYv3//SrPpFOegaTBlypR3OY5DKWkko4WaGvZFKAbYgqAidQQF5jgOwIV90nQZyQyASvr6+r4ZGRm5hBQ8FTWojAikc5gqlWpjhwIgDhs27KeEhASHqhxilYLQ0dHxL9SD0OO7KHndh4SE1G/eXEyhIndXw6a/rVKpdvTs2XMF2qvKyaBt43T97bffzB8+fOgWFRWFSrL0J8mQDCDOnj372WIh3qScqY5FKec7IiMjG0VGRr6TlJSEbAnISg4bIMuFsdSQathBBHTC2UAk1qxZ4zF37ty95eyCwbdXGQgXLVq0fvny5bOYyGcdKkjiAc3hBN2lSxdoNNFp80aNGsGZGWE9x9u3b7/K3d09sarZgdJma9iwYS4JCQmHGbmRyrA4IL4TBMGpuu1KBq+u6UYo0lQLFy7s9r///Q8y/FtELKIeM6zvKjtb0vdEUZN/5syZp/v06VMlzt5VAsLjx4+/6OLicoqRA9nTRRwgWNUJEyaYvfzyy1K0AHF+/rF3796+gwcP/tGINvfhYsANkQn+Yr5LBwcH37Nnz5q8ZmoB4Dds2NBw1qxZfhzHQX5k2VTWcI+f2DSaotYexWgEQWheFXuy0kEoCEIDlUqFwNyW+nKDgsTDTcjLy+t+QUEBDPHY0KcHDBjgPWjQoCvGtp5z5sxpvG7dOrhZoWs6fpGg6HFxcS2fhGKWxrYuFe0PWNWZM2eu0Wq1/2bqX7DacHkeI3hiqSdMmLAhOjq60vUAlQpCkH4vL68T0dHR/Yj9TcnQzVlZWRXNnDlT9LjPy8u73rdv335ubm7GXh6ZUkMdwy/x2IFWd2BFN4XpuZqZgcjIyOY+Pj5IiQg3RrZmIgUkqwMQv9u/f3/7yt6rlQrCffv2TRkzZszm0igggBcYGFjYsGHDvM6dOw/19/c/WTNLUL63QlnD8/wjYuukam3xIAEQV6xY0XLhwoXVojgqX89Nd5c1A0z9C3lIFh6VFDjEbAG21LoyM3xXGghv3Lihbt26NeqLUz89VtNJVfvIC3qne/fuH3l7e/+3R48e5UpPWNZkVvXvdnZ2G1JTU6cTKi+xpoQawhaK+oCmqxbOAEmPgazlL5XiUyweuK6urrvi4+MnVtYwKw2E48aN+2bv3r0DZDlC6UaFzGdubW2dFRwc/EpQUJDRyX3lmFCaipHWP8SjKGDZaNKkSb127NjxUznaMt1qZDMwYsSIpYcOHfovU/uC+pdKdmvoNPbs2TNg/PjxAO1jX5UCwsTERHtnZ+ezxLFWybiNjv6o0Whe9fT0rLGyW489WxzHTZ48ufO2bdt+ZnxOxfESp4MMQRAQnVHtMWmVMTZTG//MwJIlS+zff//978gasxWhxN+Jee2WIAiIS31sr6nHBiHIuJmZmZgcVxYhL2qYCB99+4MPPvjXjBkz6orMBGqH9Ho60eCYg27duvlfunQpwrSha/cMLFu2rP3ixYt/k0Vs6Lha+vv7LwgPD1/1uCN9bBAuX778P4sWLXqPAJDNXiaScfDQvr6+L27fvh25ZOrERdKwI9hYpywbFdwPHDhgM2rUqCox7NaJCawlg5gwYYJbdHR0HGOaYlMnirlYL1y4YN2jR4/HKjr7WCAkwqyYsZkRZqVIdMKiIRfkmFoy7+XpZnhxvT9fhhrSeEiMH36lsEGZrto/A7HYv7KaF5LXVKdOnbLS0tKefZxhPhYIJ0yYcDM6OhpG+RLJeQgA7xw7duzpslLUPc4AaurZY8eO1R80aJCY+0ZewBJj53m+Hc/ztaI+Xk3NYW14L2Oaot3VCXHDWkdFRTl5eXmVqxIYO/YKg/Ds2bOtHBwcUGpZXrgR7YseBt26dQu/dOlSQG2Y7Ir00dHRcW5ycnKIzDFY1ARzHPeFIAhDTUqaisys0T1DuR7aMdZ2SP9dYSxV+EF7e/tLKSkpHQk7RmUjypKhs0UrVqxoXZcN2CRUC4VhwA3o5DmBv6G7u7tLbGxsotFtKVOHyjUDXl5eLaOiom7KooGoN5hoO1yzZs2muXPnzihXw+TmCoHwq6++6vTqq6+Ktj6l8BCocK2srPLmz5/fJigoqNLi/ioywKp+xt/ff3h4ePghBb9SLM6fhw4dsh0xYoROysaq7pOp/cqdAZ7nG/E8f5c5aEscuHgjSWRW7gDgcoMQypi2bdteyM7O7swkSpIcXknAa6NiVk3br1+/zk9IvN13xNN8GfaHAAAgAElEQVSCTRwkVo+ysbFZk5WVFVy528LUWnXOQEBAQMutW7fKKSErG2Kt68+bN28zqfZcru6VG4T79u0bPGbMmC+Yk589FcSN16lTJ65ly5b5+fn5H6SkpNT5XCxhYWFWgYGByPxdQnhHPJpGo2lV250UyrWr6t7Nm5BHmJikaJk4UeQiQ6XZFhplZWU1KW9ti3KBEFSwRYsWV3Nzc9vLbCdiX6ApUqvVCNIV+eW//vorz9fX16IGK7lW23Zo3bp14o0bN+C2p5M4iOYqIWWrq60/phdVzgzs2rWr2VtvvfUXYUVpwmGaLEqeMrFo9uzZn6xfv963PG8vFwgPHDgwZNSoUUeUAEhBiIRNarVa0h7l5ubuyc7OfqM8naqN9xKTRYHM+VdyXA8ODn4hJCQE5Z1NVy2ZAaRbVKlUKD76IrOukkKGibCgdkP6Cbu5wbUPDQYhqGDnzp1vpaWlIboY06gTKwieGFTQysqK/U0sdOno6Ph6TEwMjJ51+ho+fPiaw4cPvyOv/ksis+HkjcxdJr/SWrIL7O3tP0pJSZmqJzcNZUepFw3+Fn2Ily1b9p/Fixej/J5Bl8Eg/P7777u99NJL5wm7Jc/VKKppraysECfI1nvnGjRoUHT9+nWkshgUERFRLclUDRp51d2E8t2omaHzBiyOs7PzhsTExEqPzK66oTy5LTs7O69KTEycJ/OHlk+ITpYFpmT4DRJzSH8vdSINBuGwYcM0CQkJqOtHG5QoIfGOybGysmptZmamczKAYjZo0KB+ZmZm4YQJE96Kjo5G9uo6ewUHBzuEhIR8Q4rdSLlLCDXkvvzyy5aDBw+uK47sdXIde/fu/cGPP/44WZYUmkZLmBM5/wOVShVIJgBgk/KbIqxt69atrwcEBBjE/RkEwvPnz1v26tULQavIwylP2oTaDKcjIyOdfHx8NltaWo5H9IS5ubm8pLJIEZ8QlT0qD6NojU5teHALarX6mFarfaVO7t5aPihU/vL09IxCNSdZehbJHEFMcIM5jkMs4XaVSuXDAJGypLCTZ+Tk5DxniPhhEAgDAwM/DgsL81byGCDVTkdfv379IBnEbbVarQYbygiudHmQtt5cq9WmREZGDvDx8TE0XX2tWt7du3e3fOONN64pFJyBSxu3YcOGV2bNmlVhX8NaNRm1pLOLFy/utGzZMmQIVCutG6naBMLyMcwVGJadnV3n1NTUS+Sw1VHYYJ2PHj2KwkNl+g8bBEKSkZpNWyGVgCasqNQOz/NteJ7PVqvVtAY5wCgPjCzSarX3i8tN8ykpKWtryTqVq5udOnVanJaWtkhekovM122mgGm52jXdXLkzQAjHQaS0ZDKv0ZdIlZyZQN62Mup2TqVS9WIqAWO/i/7Dw4YNi09ISBhZVo/LBOHOnTv7eHt7n1YwS9AM2ikcx+mkCZ85c2anjRs3XpErJywsLNi6EgAi5Mc/AwICOmzdurVOxd8xJgslGfq+n5+fb0RERJ2Wj8vafDX5O7T9jo6O3qdOndpeGviIsgVUrojn+aYK9UeWo04loZ46IhhkR0EQGipVBWPHXiYIO3Xq9DAtLQ3FPUV+l+F/RXXspk2brKdPn14iqJHn+SY8zyNFPMi7CFgFLxsxgS5p8zue51/leb7OsKhvvPHGiN27dx+QJYaiqTCKzpw506hPnz4G25NqctPWlXcDfM7Ozi8lJSV9Bd2FzNwmxcJSExzJwA1C00dpDnier8/zPMrvoTIUiw8xafB7773n8N///hfP671KBSEJ2qVVbmgjUikzQoLr6WsdSVZ9fHxOcxxHC4OyHgZ4TMcTnbRzbObMmf4bN25MqyMLD9kPnjSsOltMB9K3b9+QU6dOLagj4zTqYSAu8NixY0MTExNRUwL2Wra/JeJh8SMRHQ4IgjC6DAULctIOk1sOCIBvk1oYFQMhDI7Lli2br5BBTfQRHT9+fMSePXv8S5t9AuRdHMd5kvJj8sSqchJOta9XXV1dJ7/99tvfeXp6ltsz3Vh2xIoVK1otXLjwd6a6Ex2/yB1oNJrWnp6eN42lv3WtH8TtbGbx3ltGx6ZQoIhVIooHJEwOffv2nZKcnPxJWRpOPz+/ZyIiIrIUcCICmXje6LUZlsWO5qJUscKpAbMEoscbGOIXCiAGBATMCw8PX0HMHBR4LAB1TiPCpoJSQlZcv3jx4shly5ZdraWbBDGF1K9U4gbIYv8Kc0YtHZdRdhvy+Jo1a/rGx8eDyxjKpF+htjzab7YgDH6DeAS28vSWLVtGT5kyBbGihl6CgmEf7RX6+flNKk3+1wtColhALCBkOVpRV7R7UTcsjuMaG9pD3Hfs2LHmXl5eh3Jycl5ikgTTMCjKmsrtizhJ6El1p23btp/MnTv3v0FBQbUmdeKhQ4cajhgxArUsaOZuiRUHEN9///2OS5Ysqa0HTHm2QJXe6+Pj0yoyMhIRD6gzCTBRjT77Xh2xgPwAOV00uI8ZM+b1ffv2gb0s70VZUpr0Gs9L8j/HcXrFNr0gnD179n/Xr18PFTvMC/KyZtz8+fMnrlq1Cmxmua/t27e38vX1/Y1MFAKDlWyKbKUcavSmqSPwm7ZTp06pM2bMWBEYGIigWqP2yXRwcAg4e/bsFiZhEFtiDdS+abkn8gl/ABzW2LFjB37++efQUPaGEpBJt6LEZbEAZFNyFtra2k7NyMjYWdF9FBoa2jgoKEjLGPmxOqLSEQZ+jUbzlKenp2LG+dLYURRooclNKQjE2EFD+FxD9seqVav6zJ8//xgBIyiuHHi0GXnxUCo0i7w7sUMWBgYGBvbv3z9c32AN6VMV3wO/UigFwFlItdQxn05OTlOSkpKQpc10lTIDK1aseHrXrl3fpaamUhZe3DNKFbPkQQZEkQi3M7xBtOcVBxzwkZGRoZWU/eAhY+jXyVHq4+MTERkZqag/UQThd99917h///53yMBK5I+xtbW9lpmZ+Uxl7BacZsuWLQtZsmTJZMifaFPGW7NUmDoAoE/sSQcWmQ0uvtOpUyfEMr7VpUuXRGMB5ZgxY5rv27cPsWlS/koyh+j/fZ7nn+Z5vlbV56iMPaCvDeyNrVu3Ph0bGzsjISHhP+TgovsRrCbN9k5NAyWqgJG2KdXDnyIXZWdn98mmTZsWDho0CEG6lXLZ2dnFpqamuinElKJ9vbVKFEG4bNmygMWLF4N1KtE5nCLFcXFuxfFxByql56QRaArDw8NnBgQEwPcUMqM4YQzVYGvGsUZ/NqKDTTRFuyfy+t27d18zdOjQraNGjcqu4RSMoHb+chYc89q+ffuojIyMOh97qW/fnDlzpsHBgwctvv766/5JSUkovNqauZdm9WO5H/ozq2ChQJP8dgnlw/455+rq+sH06dNjKony6QwlJCTEIjg4GCwpu/dEjodowhsrEQRFEKpUqnOCIPSSa3soGT958qRlv3797lQmCGlbOP2+/vrrth999JH/3r17oVoWqSNRELGvLKHA0dMf1iEAt0D+wsRcd3JyCnrllVdQW/A2z/Mwmle5XOnh4WEeExPzt8xDn5ZYK/r3v//d+qOPPoJWuk5esNdlZma2uX79+rNarfYFQRBeTUpK6stxnDXj+kUPYJ2wOD0TQvUJcr0F/fvPFi1arFqyZElEYGAguDuDwoseY/LvEZFDJ8wJWtLg4OB5ISEh6+RtlwDhhQsXzHv06IHsYNDmQcOES2yQ+M9lCoLwr4oKsOUZHKr+btu27bnFixdPzMnJgdMsACmCT190fxkLRSPd2QWT7HYAZvv27SNbt269z8LC4qfjx49XlffOmxzH7dJj3IUbVam21/LMYU3di8P03XffbZiZmdnir7/+crx+/Xr3P/744/XMzMyepE86Yg6+U0oibWD/WQcSatZ6f9KkSZDDcOBV+eHK9HMDx3Ez5RkWSPk8ROn3LxOE27ZtGzR58uSv9ZDU+oGBgd5hYWGfGDg5lXYbFnXlypXtP/nkk49SU1NdiDJGZEWV2GbZi5VOSzZhj6j4IRNFHxVlB47jYDpAesdvn3nmma2///57ZaVwPKNSqZ4nVFkqLAMnCDc3tzb79++Hy1+tujw8PBpnZmYO+eWXX7xyc3OdZNSNuoRBxEDNErmyTYeSyTXy+iaCxPYB0Hh+5ptvvrl7165dSE9YncCTusfzfAue55GZTR5xTx274Sqn07cSlHDChAk7oqOj35ZtbImCfPPNN60HDhxY4+ySh4dH55iYmCSy0NIk6AEk6xOoxMbK84bIvXpYxQ+eR3EbsB3QdiJAN6Zt27bf//HHHwY7ob/wwgvWP/zwwx9yrR5h+SMFQUBQaY1spFKQr7Kzs7O8ffv2kD/++MON47g2OAMJhwJFHTgnyj3hcKRRCPrkecplUW0x+7diN8j86PxmaWl539HRcVpCQgLCjGr0Ij7SqOjM9oPip2jnzp09vL29L7E/KsmEVI2uw48T7WOyIAgv1/TmsLS0nG5tbR3WtGnT+vn5+dydO3c4rVbLXb9ekngwdjnWFkkFecyFTmUlGHgJlcVvkhmBTBoFs/QcsylKmFGYicZmxHvgYLDWysrqI7Va3SItLQ2lt+h76O2iS6C9vX3/lJQUsC9Vdr300kstzM3N59+8efPN7Ozsdrm5uSxrLn+vjvM+/VHBVUuMOGDmUNHey/wu36ysllsuz4v3Wlpaci1atOCaNWsm/gcqmJeXVz8nJycyIyNjCsdxNe0UjxjCVrKgbtGsNmHChBXR0dGL9IIQ2qk+ffrk6wnezXN2dg5KTEz8qMp2haxheKh/+eWXtidOnAhBZRwrKytkcqvfsGHDooYNG2JT5Jmbm4vl2Bo1+qcqGwCJ/27dusXl5uoQbHFzMGpt9m3yjaM0RLlDgXzDslpaClZ8BwDCiIxF0NmQzDzLvYaoHRTtgB2GzfaX4hqlWYQCN+A4zoJ4LLUorgLVluO4jkSbCOcKvBefbGS/fEx6x6NwMNBnWY5C3Pwydlr+Ozsu9sDDv9k5ovNCPUzo+8TvaQKxli1bSutMb8jLyxPvwWGM6+HDh0UPHz40u3//fmF2dvaXrVu3nj5t2rTMpUuXgjpVC2fh7u4+MjY2FtEzOnuMeJohz9IgvSDcunWrc0BAwHGZ0kNS+4eGhj4TFBR0rapAuGXLlganT5/uHBER8TnHcf/CIltaWtZv2rSpyEI2aIC9x91v2LChyPI0bNhQ6oq5+T9xxhSMjRs35h48+Ed8u3PnTuFff/1VH8DUarWK2jTZmPVpXuUbl24meeIr+RSxJhX6G32GZdVYjZpc7a6jbSONKH2ntDwsGFgqxYJLaQyUurPudhR8cs2lHIBs2+yYqWxUwhOL3oSEYU8//XT9Vq1acVjHevXqcY8e/ePDT9cU/87Lk/RmRQwIxcMZQMSeKSgoKLp7964ZOZC1tra2k996661vzM3Nrxvi91yRvf7xxx8//fbbb99gDjNJ/wDlpiAIjVktrQ5Uvby8EqOiomjdeXkS2/sXLlyw7NGjR6Uakzds2NAsLCxsbHp6eiiylOFkRVQ+kkOZm5uTvFEcsraJ80E+QQnxp1lpQMQNjRs31tGEPnjwoOjmzZtcdnZ2/du3b2NCME4q2NMxi0K1AkWgbRlqHmFBWhaAlX4vzx6ggBTnRc+D8gNI/k45ZSvr/SVkZ/JuHTuujGWnWRnEg8He3j6/bdu2ZhAnACpLS0sqHxYR8IljYcEnA2Bhfn6+eCCACuL99BNriJSbACK+Lyoq4u7du4dgctyOPn4xduzYTZMnTz5emXZDIhfCwgBPHrlTSeHnn3/e9vXXX5eSfUkghPYRFEer1bIuQOIEEDbqKHGMLWthyvyd5/mWYWFh02/fvj2XsGqio62FBTgskU0xa9CggbjhQeH+SeD2DwDp9/ibAJCypuJJbG5uLi4IcvCTBcHntZ49eyb26tXrCzs7u19sbGx+f+aZZx5YWVmBPREyMzMbpaenP/Xrr7+2Sk5Obn327NmOKSkpL3Mc14/EgoHy6sgqjKuUfLxy6iRX+pQ2P6WxvKxXCKvIKHO+y3kDC1T2PSxARWpG5ToCMrl2k64l5r/I0tIyyd3dfe9zzz330wsvvJDWpk2bu927d6dzihPW/N69e/WvXLlSH6nkL1++3D41NbXnjz/+CAVQB47j2uFQZtchPz9f6tPDh//U3Hn48KH0HcBXUCCKhyIACbUsLCgoEPfIvXv3WLZ/19ixY2NnzJhxsJKcOXYUixJyBaf4vsDAwMlhYWEwRYmXBMKbN282bdWqFQIQoUKWcsjQXIoODg4zz549+0E5F1S6HQ6u69evX5yRkQEbmQ0xvkusLo1wtrCwkOSYBg0aiKeIubl5oZmZmfh9gwYNAFB6uoifBQUF+Ugg9eDBg186dOjwyXPPPXfC0dHx53bt2t14nFhEHEyYo61btzbNyMiwOXHixKu//fbbxMzMzG6MLEQ3Kt0glIoqUSNW9mQ3Lct66oxNbsCWyWAsK1vRpZEOPjbImqGmrMuX/IBhwVjYqVOnq126dDnap0+fz5999tkfmzVr9vfjzD8dECjL8ePHzc6dO9f2xx9/dDh37ty7OTk5XRs0aNAIBzM5jAsJBRT3LsBHAMgRAIrjoN9hrAAhMU2xhx8wcNzX13fTtm3bvqqoHOnk5DQiKSmJyoXYC9SWWWRraxufmZmJw0UXhAcPHrQcOXLkLVm4v3gT/BoXLlzYccWKFeW2XXl6ejppNJqwYjV+d+poLav1js41wglBBVkLCwtJvqBZ2wBEKoAXU1AUIUXXYnr37r1hzJgxvyxduvRBRSfscXYvnoUXyN9//90wJyenWVJSUsdr167ZESraHrULiQofm8OSUZqwShrp0JNpG9l7KNjlsmKZ3VdS6zMP0Q3IbkQqC4prQ/weAbIjffv23dKuXbu0Ll26aKdMmWKwSabMTlbgBhySq1atanbkyJHex44dW4p09Wq12tzCwgJyjCg2FRUVmVF2lQFg0b179yQuj9mPElBId+7Y2tp+sXTp0smTJ0++W54uLl++3HrRokUI5mY5GDH4AXoNQRCaUrlQooQhISEuwcHBqDNBN4R0ygmCcIPneWtDBVmS1gIGbrgi4UKEhFzpUMIlCUIrfT9lTUkyKEpB4tzc3ALfeuut65VxwpZnUivzXmh9MzMzG2dlZbUpLCzsmpOTMzonJ2dsbm4uZGIqDpR4JRNXid9KM4no6664Bra2ttzTTz8tqvctLS1vtWzZclfnzp3X5eXl5dR2B3LM7blz5zrGxsYmEDYWRYpY2bX+vXv3KCvNigriPiXabMnWSaPs8Zufn9/AiIiIk4bsBZoahhyqOhwL1vHixYutunfvLsbESiD08fEpiIyMhDKCpieknQIlRP09yEh6L7x04cKFz/3vf/9DFDlOf1A2nVOAPMyevPQdklKB8VrJKM7itn/UqFHv7d+/H5EH1aJeNmSCq+qehQsXuq5YseKgjBsRKZ8gCDd5nrdVyPZVVd2pE+2iwGdMTMxrFy9eBKV8ge5BeaSDbLB0P1JOQLTdknvyx44d+++9e/dGGrAnr6tUKh0ndLKWZlFRUf28vLySJRCSkmf3c3Nz4VLDyiooYgJ2ZF+xB7q70qqQ1BUvhYeHIy5Q7KgsLpBVictlCjZqHr9dgMYqODh4zfjx4/96QjORwSVwAsMiYUqp0RrlmBE5brrKOQM43A8fPqzeu3fvtO3btyPlBdJ0Ym/DD1nJ3qlEQMRoCArGfv36vf3999/vLcUpHBEz8HySZEICQg57PCQkRCweK1JCUuYXaiQ2dEh8FzSjDg4OPmfPni0RRR8YGOgQFhaGdOCipVzGclJ2iVI7cTNRcwAzmKQ2bdrsnDdvXnRdL61tyL6Ji4trOnr06NvMSU0VNZAjkPvSiuf5GpXFDBmHsd9z5syZJrt27RoUFhY2jeM4pLWnBESuGGOHoqO9JqzqnfHjxw/as2dPibJ3Li4ufY4fP56sAMJ8V1fXW/Hx8aK4RkGIOmwAoI5NjebICAgIsGCT8xJ+d02xHTyIgA8ftPNKtiZJC0q0fVft7e3f9fb2PhAYGFjdXu7Gvj+4jh07Tk1PT/9IIcoCfUccp6RZM/rBGHkHsZdPnTrVYvfu3ePWr1+/mtiqxf1aSqSOJEsyxGRfSEjIW8HBwaLKFZeHh0e9mJgYGnxMv6ZJs0HgoCsRVfAc465Wwk4lCAIigsWig7js7OzsU1NTIfQiCxtryqC36ACZdBLfAaQLeZ7ftnTp0nsG8NNGvnxV1z0myRbdCDqLPn78+Jf27NljkIKg6npZ91pGasKEhASbzZs3z4mLiwPrL7KRTJ4lDFoegiVihoT5mVlYWARrtdr1zP4+qlKpXiOzJSlowNVAm96mTZt7IggjIiJm+Pn5rSNyiI43iCAISMLbmTQCg/1rehIz6awKo8n7dcSIEWPj4+MvmIBn+MYdP368x549e6LJXNOFpwqCa4Ig2FZDgKrhHa5jd4J4rFmzBhaDeCJGif6/hFtUAiO+o7I7dBuoTwFl4jaVSuXNgBf3gRoWnj9/vk2vXr1yRRAuW7bsXnGiXyhlWIOzOK24uXXr1mtv3Lgxn3SCnW7KekoqXyatferMmTMdNm7c+I8rg+mqyAwg5AUB1OICU4dsyCLdu3f3vXjxYo2H7lRkULXtGY1G0/g///nPmbS0NNh/2fhVufzIil3X1Gr1/7Ra7QaZ+6PoR4o1/PLLL58fPHjweXF1x40bV7B3717WPiUXQKkfJZ2/Et4gTAarJI1GM9RYkivVtgVn+7tmzZr2c+fOTSf+h1B+Saw+2B+NRtPUNM/Vt8Iajcb8P//5z5G0tDQELNPaKlLlJtITdo1YwMpd/fJ27twZ5+3tPUEEob29vZCSkgKgsf6R+kan427FyHyHN23a9Nb06dMrLXtV9U2vUb8JNfNeZEQAKoOg03pNR0Y9olreudjY2Oa+vr6f5ubmjlCgjDQDHCvW6Ti0Ew4zPyQk5GZwcPAzIgjVarUAz3JZ/BOr7UTDNNhVYlmJY/cvc+fOHblmzRpTBukq2FwI75oyZQoyeEnGYuo/Cu5jxYoVrRcuXGgqv10Fc19Wkx9//LHt22+/HQ06xlR4wmOlRdmIpjsQr8DAwPthYWEW1GOGZoiSy3slkvHgBdR7wMHBYfwPP/wQY1K4lLVcj/e7o6NjSHJyMmrg0YZY2YNVnD3ei0xPV2gGPD09X9ZoNEi1AhYV7ClEB0qs0KaOsZ4GRQwbNiwvISGhMV1VaHFoXkd5kCmV/ygbhM+rPM/3MhmNK7Rm5X6I2GWxuDTLnLQmoIYeHh4DYmJiqjQVRrk7/YQ9QMxK4EiayfMGyZJWSeJEcaVqLiUlRTpaUVFGbiNkp5GVQzYKgjDbRP2qd5cFBAQ4bt269aQ8yoUoxG4JgoCcJpIPbvX2zvQ2IuepVCoVnLJhafgn38o/l6ITjLW1dVF2dnY9iRKWZfvDYjdv3jzw9u3b601TXmMzgHwdoIYlwmOsra13ZWdnT6yxnpleLM2Ara3tt5mZmf2YQ1FK3U9dPGl4meg1Q54sjRKK6f4sLCzm3bt3r0T2YNPcV98MbNq0qc306dOvKUQAwEicv2nTJiuTdrr61qO0N6nV6hitVjtOIX8vHqN6lX9q2pcFQoJYhIG8ZxzDe+J7sZ/juFHy/KpknVAK2uOJnyEjmAAix3+FEEBZjC4NJhZ7KQZPGADCG6zvqBGM74nugkLFLCpviKdrYGCgXVhYmE5y2Sd6wmpw8DDue3p6wk8avZBXN6NR/KWDEKerhYXF0Hv37sFn1HQZyQwMHz58/uHDh1fIKv/SpEXHBEEYbFLSGMlicZxPcTKD7TLzkpiqBHZ2xOuWSgkJi6NYuclohvgEdoSEwEAdjkgWnRmAbDh06NDXjxw5Asdj02UcMwCdC3rC5gyixXbLpoRsCgzjGI+pF5iB+fPnO61ateqYnoKjhWfOnFE/oZkJjHGDIM0F8gdRs4Vkc4cIwVJCeeehFcV3egveG+Non7A+oTDNC4x5ifWkQf4S5E01XTU/A6g5gsx7uKg9Xkwdo9FodChhia6SmEATCGt+ERV7sHPnTgtvb+8/CTWkCbpEdymwrOvWreswZ86c34y0+09St1CqDfGIOhEXIHIIJC6NEopJmF588cVnT58+jUIkpssIZ8DGxubTrKysNwg1pNnBaHApKOM/9QNMV43MQMeOHX3S09NZxQybShTUUHLg1musl0XW18hATC/VPwM0vyWThkFyP4T2zd/f3zM8PDzWNIfVPwPHjh1rNGjQIBQMhSxIsw6yLqD/5JkhXSsNhEgW65GZmQlDsOkywhkYPXr0lLi4uM2y1H0SNRSF/ycgb6sxLQ05HL9GeWwFYz1NnQixoVTFDB0TjMD5b7zxxsDdu3f/aEwDNfVFZwaQpr2J3KUNckffvn0/PnXq1CTTfFXfDDg7O69NTEwMZNaDDZBgM66VLhMyXQYQi3x9fQdu374dGjnTZWQz8P7773dYsmQJUmHQSAqa90fUwh04cKDVqFGjkDnPdFXxDIwZM2bFvn37/sNUiaZvZLOt0eDe0rWj5Ek2Z0ahu7v7uNjY2LgqHoep+YrNAAr2tGQSC1H5A2uIDGCIADddVTgDjo6O+5KTk6lvLxuLi7eycaBmqDydk5Pz/yDEHXLvC6avlJSKvGzHjh0/T0tL8zTJGVW4mhVo+sCBA01GjRpFfRXluYDqL1u2bODixYtPVKBp0yNlzMCJEyeaDhgwAH7WiCWU55RRyjFThKDes2fPSiCkVUUpWnUyQ8koIuVn72s0GhtPT0+xsozpMo4Z6N69+5yLFy8uU6lUtLAp9drHmmYLgtBepVL9U3vadD32DEABExgYOGr9+vXgDsVit7JG2QJIUsoLEDNnZ+fCxMTEBqJ2FBVrr1+/Li/kAq9vNmENGpOysQmCICZ+cnJy8p8xY8bHtUTphqQAACAASURBVLlU2WOvhBE1QPxKYRzG+pUo9url5fVGVFRUlBF1udZ2RaPRtPL09PySJPqltVgoyynVqScDpGCUEj35+PjkR0ZG/hNP6Ojo+CA5ORl5RynwaNo2/CynijrIJq5tV/38/N4IDw9H8Ys6X8LM2HeNl5fXK1FRUV8wsiENm0HXtRcuXHi6R48eYhFN01X+GUDZiBkzZsw7efLkf0mmAxYTVAxgc/MqprcICQm5ERwcbEWT//69d+9emqCGAg+f8iS/VLvDpj+EwZEu6MVly5a5L168GLUFTVfNzgBqSiJfKS0/Lq4nqi63b98+LiMj442a7V7tezuSOc2YMSPk4sWLU0nBGMytPAs9HRj0J5Q6Uo6E1Y4WhoeHf+Lv7+8rgnDhwoUOK1asOE1sGvKqSmgMmrUespp5eFQORjyLK4Xn+Vd4njclAq6hvbZq1aq28+fPRyoM2gNquoBMX1+j0TxtkucNW5xDhw41nDt3bnxqauqrpHygvMo0nVs2Jy8ap9WdWFFOxBfEhq+++qrzq6++miauEEoM8zxfoFAsETYmOJ0+3aJFC7tbt25dhBOqXOgnQ6EApHW58fV9d3d329jYWFNyWsPWu7LvQu1IeGzoHKxEnscBalnZL6xL7fE8b87z/E8cx3Wl+hHmUKPO2HLxDFzhnYCAgLZbt25Fzc/9KpVqlDzjGqjk5cuXm//rX/+6K4KQ5EwECCX0EirXSBCEHFp7fsKECW2jo6PPcRzXgoljU2JbWfsUZYcOh4aGepgKgVbfNqXrijfKc2HCr3Tx4sU9li1b9nP19cj438TzvFlKSkr3uLg4FP0U965SzCaT3FeKWiGYCeU4bhEz0s9UKtXrzN+UEoIjgYdTgRyE8tyjYgknjuMa0kagkq1Xr15oUVFRIOkgBaGOXYrJqUFNGlJU8ciRIyd5e3vHeXp6mtjVKt6X/fr1W3Ty5EmYLHTWloSp4dRuXMVdMPrmwRouWLDgmVWrVqEAK0qaiYosMmfUIqC4v2nqQpR553nejed5cBjslaJSqXozcYS0RPxtcJjiAYn/iTFN/7AsJeqv4SUDBgxoceLEiVy25Y0bN7adOXPmYdLpEmW2ZcinPLSYPpEB6I2RI0dOnzx58pfu7u7olOmqmhn4A9wMw+ngLaLYMGbMGPd9+/ahsMwTdZFaED3Wr1+Pkn+SkkpPikIpmRZr9iEESjt06NBJR44cKeFF5uHh0TgmJgbiG31eVMwQf960U6dOiXU/2QQlbCp8uiA0P+IUjuO2Kq1ScHDwkJCQEIARZBlgBODElO20cAl7ClA2lwaekjZx8lwZPXp05JtvvrnLw8MD6QBMpo5KgkVwcHCbkJCQDFll5ftgh7BWGo2m2ZNg5wWrmZmZ6bh9+3Y/juPg0C6yhgzwlBQu1AcXqyGlpcAfdnZ2i3fu3LmmlDQi04vT4ocylX7F9mFNCAwMPBkWFuasA0IfH59jkZGRLvI066T6KAySw/XtCZwq8+bNGxsSEvIB5EWm3jcekRdSxHdUVcvGvtFB4n5MzP7FixdvGD169ElTrpRKQeMmjuOmEvlGcqPC2rVp02ZzTk7OvyvlLUbWCM/zTTZv3jw9JycH+VhfJECiMrLcBMcqsNiaLDSTHUb3Z9++fd+ZO3dutAG1ITdwHDeTkccl+XHnzp1TvL29RcImUcLw8HAXf39/JA5igSMCQxCEyxzHdTdkfkNDQzsHBQVBK9eago2RR+QlozBoGuyo4yguKy+c5ezsfHns2LHLe/bs+e2gQYOoJtaQLpnuwU6YObPhxo0b4VZFDzt8Upe2+ytXrmy7YMGCv2v7ZG3YsKHZp59+6pucnDyB47jnmeRK8oKddPyseUGidpRDIxXI7oCzQ+GdadOmnSvH/ruiUqk6MZyg5DRx4sSJdgMGDICY8P8g/O6771r0798fbKCcJIsls+fMmdNs3bp1qIVg0HXgwIGWa9asiU1MTBzA2EtYKqivHVaBILn4kJsloDo4OKS4ubm9vnTpUrBZJtbVgFVRq9VTtFotgn917ibKBZT2Etmj2nIRv83BsbGx0ZmZmeDAWNcwKFbofqHmBFA37G+qsVdSumC/s5zafp7nJ/M8Xy4faY1GU8/T0xPyIN4h+ZOSuYaYB82o6MMrrcbNmzebtmrVCojHiSGyhJQaAYROTk5Dk5KSEClcruvChQvqqKiodcuXLx9DWFWRJDNqXzpxcjcfTCDtPMsmUG0rdaejz5kNHz78Kycnp4BOnTplPQkyTrkWAvnxPTzqxcTEIKYQ+UopBRCbAVs6bty4MXv37jW6MDWA7fjx4w2///572yNHjmxOTEx8idkbSppMOjVyKsdOmVxbjN/QFr5PHz9+/IqpU6fGDRo0qEIa/GHDhg1ISEj4RuHAK7S0tPwpNzfXgXZGAiE0pC1atNDm5uYiFIMdhOhhwXEcZIoZ5V14ej8mMiEhob1Go3kzMjISrAIMoKI7DxP6gT9L+NnJ3in3SqcqX1ExxLCxOP2g7Amwt7c/t3Tp0ocmislx3bt3f/7ixYtnFSLwMa/XNBpNh5o8wLBPYmJiLJKTk585ceLEmOTk5HcQI8nsAeqFwm4Ldt31cVv0HiU9BChf8vDhw3d4eXl9NnHiRFCwx+WuVhUrveYpyYO+vr5ztm/fHlYChPhiwoQJp6Kjo+FvqNThXziOe66iIGSfw0THxsa20mg006Kjo2eisCIBT74sHwce0xcYWWZXGBsOpZqig3pxzpyL9vb233bo0OGXo0ePmqWmpiIdXV+O43pyHPeTWq2OatSo0Td//vnnTQLsMt9Vy27YwXGcl0xbKnIY3bt3d7t48SLsZVV6gV07e/asTVpaWpcLFy6MvnTp0ttIz0G17GQ/sG5f1CWMNXGVsGuTTsu5K1bfgFvwOyjcXicnp28nT54c5+3tfbuSQ7xg0pNnSBfnODw8fJC/v/9xRRBGRES4+vn5wc2GpSpULZsXGRlp6ePjIzdGPtZiCYLQ4MiRI10TEhLGh4WFQaXL8vbUAZZOHFtUQ8znX96Xy4BJwSmxvZCJLSws0GxS/fr195qbm59t1KhRqrm5+f0rV65gMWt9LB5hS+8ouB9ik2h5nrfkeV6HXS3vPNP7oRC6du3a4GvXrjVOTk7uwHHceI7jupCDl/WpFNlB+cHAgJJdbyXDuZyDEk0LxC6NZ6nZ7JOAgIAtL7zwwtmAgACY1B6X4pWYmtDQ0MZBQUGYX8k+zijB8i5cuNCqR48eEpurI6GfOXOmSZ8+fRCZLSfvYuau4cOHux8+fLjKDLugkBcvXrQ4efKkQ3h4eGhycnI3cjqyfD9LHeXaVqW9wp6WrFZVEcRMRAgN52KfQfqIq2q1+niDBg1iLCwsfv39998REF0pG7aiG72Cz73AcdwZ2VpDYVBfrVZP0Gq1MYa226tXrx7p6emva7VaaMTxH+QdG1avQNqiDiHyWFV6yCpxPSXED6Zf8pg9UYnI2KexP665uLhsHzdunKZ169Zp1cFqe3l5OUdFRR2XeSnR7HdfcBw3hJ1bpWIv2FTUZYdueNrA2mIyPtfQxXnc+4h8AHbRcteuXT2uXLmCjTOSeOmA1JeHEspZF7Z7LLuqt03mVMVCgyMAGwtlFk5ZzBs0aFDzo41cCwuLn83NzQ+o1er0rKwspD4wNtNKrkqlai5fJ2gHmzdv/s2dO3f+LCoqglsbOAUkEcY8wSkZ31lzHNeG/KZTY0EmB+nbBuzBxYKP/TfLelKgSt/JuBrKrv7p4OAQMXbs2A8KCgquVxZFL+de/gjOAPIoe/TX1dV1VXx8/IJSQejr6/vO9u3bUXaLjcoWVbyklFNDIym7BRsL6rSXMKmUMmFyilUaiJVYHqUTW96GlM5O5qiAd1MvovKsaVlU1pCDSM72iW0yhxgNSaMbnNVAsyKBfK5Z3QHLodDx0YOP5VgMUbzJ22KDkmmbohkBe9HR0fGH3r17e27evLnGU/6TfKNQ7OgcTKQ6r9m2bdvaT548WbQP0qsEJfzkk0/6T5w48VsGaBgsBGbR3Wb58uW2ixYtAltWIxeRZ0CNcVAYsgFFW6OC/Ki0QWhwMnsAUeDJNwbdTHLWXX6/EgWmFFHxAGFO+MqYYxZwbF9ZYOj7t9L7KaBZdp4dIxtjqjQ3aFPf9+L7mPHT+6jd7kanTp1u2NvbH+nYsWPY6tWrf6+MCarMNuAsMGvWLHAYdG+KYyBjun/s2LGn5Mb+EiAkOUrAcsB1TGejgRI2b948+Pbt25J6tTIHoNQWTpY+ffrY/PDDD9s5jhtIqIlSQh1DusKqp3XAIY8ykDXGbhp9m4xSLH0HA9qglMaQw8OQ8RhyDx0nHYOcKlEKrXRY0e/o2JR8KzEWHbuyrFNKVJDlFlhQYm7xruy2bdte7tKly/muXbtebNeu3bFil7ucGmItDZlj6Z727dv7ZWRkhCuZJoplQWQ7eFneoL4CoFc4jkNWLnmJXzyvFQQBqTAqXatEOwfg+fr6PhMZGflWsewF/hmkHXKqvP+lyXn0XirPss/KKRHbjs6/mTwt7PPy97J/y9ktOQUtrZ1yLXg5btYHRPn30pzJ3AaV5p2OSz52SiFZoClxHfguv3nz5pnu7u5wczzSsmXLxBdffPFmdShPyjF35b2V1anQw1YMhPDz89sYERExyyAQzps3b/Lq1asjlPKQgqyGhIRYBQcHQ9FQqRfyZs6ePXtWenr6u4TiwbNG3yZW0oyKi80oUGj/vreystrzyiuv/OTi4nLl+eeff1jsAV/YtGnTBg8ePGhw/fr1er/99lv9jIwMqNPbpKSk9ElNTR2YmpoKVToUF5S/hz0Tl45zL75g2He5YkHy6FGYLEMOkUqd4zL6wGoWlWRiFlilHTaU6otU0tnZ+Tdra+sDL7744hfW1tY5Xbt2zXvqqadudu7cGVnhquwwr+qJk7e/adMm9fTp08GKUrc4ydQH3Bw8eLDFyJEjdUICxb2j1NEjR45YDB06FHXvqCJBkgOwwTt37rz8ypUrfGUNcu3atV3feeedNTRSowxli9LmoGE56BJ+R2yib3Bw8OnVq1c/dlgUWPQffvih3qlTp9RZWVlW6enpPc+fP+9+6dIlF47jYFSk6QXLsmPSeUQ/kd2usqawtHZKBTpzYJXK4hPTDZWVoRHGwXTT1tb2FwcHhy86d+78dYsWLdI7d+6sbdWqVYGLi8ujugQwQxaqX79+80kAtbi+9BkiD0oZKgyihOQm5JOxUwpyhEGX47imhnSstHtWrlxpu2DBAvijQt0Nh1b57XTTlsiBKgsOBuj+7eHh8blGo0Gajho9XRnTSr2cnJzmt2/fbpeXl9cvIyPjlR9//LGXIAhww6IHnFwJ9LjTWhYgMac4qCi1ogcXlG9qUj+BbiCRimMTubu7D4uNjYWNy3TpnwFam57eIYo9OMBcXV3j4uPjFTPc6T2K/fz81kRERMwhyhmdlG1Q0ISEhLSrKEtKKsziNBXJtYx86xuinNXUWltbD5oyZcrZ2iCw14ad6+DgsOns2bPTmMOQavbAfsPVrU7GHFbG2mzYsKHhrFmzYJqAmKSThRuHWHHwr9rb2/ue0rv0ghAJTvv06YNGaW5FNE5NFZCB0gRBEMPzDb3Q5sSJE6MvXbqExDc0koI+Tk9oWvaZahKpYgUy6BkbGxv/rKwsHTuLoe833Vf6DBAb1/ckX6mOBhcbadKkSZY7duwwpSFRmEZra+tvs7Oz+8lLoTEePHrLzpcllMCBmVb5oWyLqP0ijRtcirk4YNg5PDz8KKPlVNKY6QyP8NKpxZn6P5ozZ8628sQzmgBXsRkodma237Zt2wniV4pGWA7knCAIL9Q0u1+xkVX5U6IIJEsOJbLyrq6u2+Pj4yfr60GpIAwODh4fEhKym3HoRjs0Twbn7+8/Ojw8fH9pwyMUFX6Io0knqVZTbrAVNXMEeFj4kIEDB65LSkqCgqhGZbwqXz7je8FBjuOGMgoyyWPFzs5uZmpqKtKYmC4yA++88077tWvXIoq+hB0VSr24uLhmo0ePRhFXxatUEBL2RASHLOaPejXAV1JM26Z0rVu3znrOnDnpxL2INfyXcJ6mEcccx/nxPL+H53nqvWJa7GqegQ8//NBy2rRpfzC11iXWFEqGyMhIKx8fHxNb+v/rAuXiIFlJNDFQGk4GNG9vhUCIh4pPvr9SU1NZZ2mJgoEl/eCDD9rMmDGjRIZtPz8/l4iIiK+YbFaKBnGi5cRvSzZs2LBu1qxZMHaarpqfAXipIPGXjj2QbCzEwg2q+S7WfA9IGguau4fqT0Q7IfZ2YGCgV1hY2N7SelqWTMjt3r275RtvvAFbG/VSx6eUP5HjuAR5JrZhw4a5JyQk7KYOtozfJlWLI86LLu5XPM+PVEiaWvMz/AT3gHBB1FkCMyEdoqCGCxYseG7lypU17jBd00tkaWm5KDc3t0RyZfQL3N2ZM2fMy8oWWCYIySBB6ZD6vgQ1A9oRg0blNjc3t8779+//lcnaVsJ5mjqzenh42MTExJQrgU5NT/qT9H5HR8eDycnJrkztdSq34yBGZI0Y/fyEX0gVgqxuOp5SwASczdPS0qzKmh+DQBgUFPR8aGgoAkApuUW7koLGzs5uVmpq6kYS4aBlwqDkcWLwocOz0cXBsUhnYLqMfwaQSYBNkIseix5KTk5OY5OSkj43/iFUTQ9ffvll22+//RbZ/ihxkpxLsM8/++yzvmPHjj1d1tsNAiFlTfSUhQLZBUuJPPyri12ZpssoJhsLljNy5Mg+Bw8evFZWx0y/G8cMzJ49u9f69et/IOKI5AtJ2K1b8P55grXXp1QqFRIK04vudXiUoaJZG0Py1hgEQryh2Jd0xpEjR9YRNrNEegIaAybXopLFwglxguf5oSbZzzjAVc5epHAc15s5XCVzkqWl5Ue5ubkVzsJXzn4Y0+3I6L2LcH064VpgRZctWzZp8eLFHxvSYYNBSJy6wWqiXaXwFdZdhypdqNf9F4IgwO5ksvcZsipGdk9EREQLPz+/bEbMkDYd6ld++OGHz0ybNq1EdICRDaPSuvPSSy81/v7772+oVCqkN2HxQL27IHZZ0CJLZb3YYBCiIWtr67XZ2dkzmMXQMbhDSaPgtnNhy5YtDlOmTEGgsOmqpTPQpk2bVTk5OUEygzQ9ZJEwGMmdn4jLysrqlevXr38lT+REIugLZ8+e/f769evfM3QyygXC2NjY5u7u7jdlDtcsVWTJMhaIc3Nzs9m/f7/J19PQFTHS+7777rvG/fv3hy+xvIciEIOCgl4JDQ2FbbGuX5gAODIgyRUbf0kPpPtZWVk2NjY2Bmv9ywVCzC6RAQJKqV4q5iUVBAGe5MnFdsR+dX1VnpTxjRw50ufgwYPb5QHMxOYLJQ1qIOJQrrNXixYtht66dStBdhhRu3mhj4/PzsjISL1+okoTU24QajSaxp6enshWTKMdqBGfUkTq/5k3efLkdtu2bTP4RKizK1dHBkbyD2UjtyiRd6SsAaTwpd+pU6e21ZHh6sMLRC7WJCHqQqjb5dWrV5/q0KFDuRJklxuE6Jlarf5Aq9X+Wy7/sVm0SKcq1H4dXsRaP7SFCxc6rFixAiYLjEXKUUPqleTHxcW1LM1ZuTZPQLE5Il4QhBEKLDkUMoWTJ09ev23bNp2cooaMt0IgOXbsWP1BgwaJXuEKTr40EBRBu08Z0gnTPbVuBs5yHNdNvvbk4EW42tBaN6IyOtykSRP7+/fvwztGbpiHLCgGvaOkg6EaUfZ1FQIhGrC3t1+fkpIyS54WkfUr5Xm+ninqva5tR476E0NBVyJbGzTkISEhnYODg6/WsZFDuUhl3hIBz6hUvXr16gp5D1UYhEQ+QMQD/EaxGFKSYJpteODAgc9/8803CMo1XXVsBjp27KhJT08fK0tyC7YMCjnUQGxVV4Y8aNCg544dO3a5FEcUeMhUmOurMAgxwePGjZu7d+/eVcxCsEZcsKWIzG9bVxbDNI4SMwDnixJpKUkqDK8dO3bAR7hWX4TYIOM8cu3SXEuSaQJj3bJlS68pU6b8VNGBPhYIyUvlDr4Sz0xiz7YUBzZOrWgHTc8Z7wxMmjRpxI4dOw7IzFWiEzMUNRqNpn4tT+TLNW3a9OO7d+9667OPqlSqG4IglBkpUdoqPjYIV61a9cz8+fOzmE7K/eiKFi5c+OyKFSug2jZddW8GQCXgxA3qIJmtQCHs7e0TUlJShtfWIc+ePdtj/fr10bIE1GJpAEJguKNHj7YbMmTIYzmjPDYIyQTT8H5KBaV6DURjdnXdunUOc+bMMaVEqK07Uk+/Q0NDWwQFBf1FNqrkMwxzFbSGGo3mGU9Pz1oXNfP+++93WLJkCapT0yTNOkoomCRGjx69OC4uDmWxH+uqFBAeOnSo4YgRI+DcrRPeT3pGjfdXeZ7vx/N8pafPf6wZMD1cGTOAZF+jZECkeYhqndfU/PnzbVetWgXtLo2j1KldQrKRZwmC8JwhoUplTXClgBAvmTBhwvjo6GiQbimFBZPlGekscFu+p6fnaxqNJqmsjpl+rz0zQCJsUB6aTYGCAYj+lO+///6gJUuWSDXajXlkTk5OAUlJSdBjICk1W0eEdUwoWrdu3XNz5syplPQelQZCMrHIrNZBT40FlpeOFARhsim0yZi3Y/n65ujoOD05OXkD2bhSnUeSyOuqIAhdjdmvlCRsOqhWq4dptVo4obATIBUAAjFxdHRck5ycHFy+GdJ/d6WCMD4+vo2rqyvizsRTkOTdoA69OhVqUGY6KCjIJTQ0FAGjpquWzwBR5UP2g19pCWP2mDFjvPft2/eJMQ7T1dXVIz4+fruVlVWT69fF+re0Niel7DSVC+yBvwuC0LMinjH6xl6pIMRLxo4du/azzz6DJ01pZazZEltZH3744fNPUlCoMW7EyuiTn5/faxEREUflgd+EGuadOXOmeVmZxyqjH4a28c4777Rcu3btJbVa3cLCwsLsxo0bYvidQgVo6orJffDBBy2VUnwa+k6l+yodhOQlP3McB/aDvlOebVtMFITfmdLIP+7cuXOAvqIZjzNI07PVOgNQ0gyXH8JYZ1tbWz4zMxO1J2v0mjlzZquNGzeiMGkXS0tL9KWwoKCgvlar1VecSCQazs7OSxMTEw0O1jV0kFUCQhIAiszD8DIQB0lYU8gKYE/FwjJsUCQDxh9CQ0OHBAUFmUKgDF1FI7qPFMr8W0EvIGrJS6tOVJXDQLIyHx+f53bs2PEN7JoEfGAv1QUFBflarZZWgmYzxUsZBYtLtSOR9eCq6GOVgBAdff/998csWbIkVsnfjql0y0bli+NjMnJfnjVrluv69evhCGDKTVMVq19FbTZt2nTt3bt3kQpDZ33J2kIzXm3ZuzUajfl777038sKFC1FwJmApHx0+o4gpUYGZEIdrW7Zs6VBVKVqqDIQYoL29/bcpKSn9Ga0YpYhK8iKoJARh0dZI4tPQzHkHB4fFbm5u8aaIjCpCTSU3S1Jk5jMsKaUuSIBUf968eTarV69+LC+Tsrrs6+v73Pbt2+dzHDcR/bCwEPMUs+X3xD5ptVrxoJAfGJRTAwiDgoI6hoaGZpX1zor+XqUgJIsBLxnKlippTOnksDYm9j5q7Afr8NngwYP/++WXX2ZWdMCm56pnBkaMGNH70KFDKYQtZVX8FJDY1Ikcx/3s4uKy+fjx44i8eKyL5/lnilNqIqh2CoClVqtZLa1Ele/du8cGGkARI68UJiliHB0dJyYnJ+96rI6V8XCVghDvJvYXpEzHaSMWypCnDCd9ZKmjnC2gOTzoswDk2ZEjR048ePCgCZBVuUMer23IXwMUKv9KmarJfsDfiLjZUJwqYmV5XhkUFGQfGhqKUm29yHNqtVrMRFh07949ahZjM8FTOY8a4+UOBhSA+NwpCIJfVYtDVQ5CzMaWLVtsp0yZIk8XTueanQS5FpXeIweu6JfIpNO41b59+3EZGRlPQrav8uzRGr2X53lznucfEJU/PViV6lJSYOCevICAgHZbt27Fwa14ubi4jDx+/DgS67YgNyALHOIYKdjwLJR/bDAB1cSjghLulesj8G48D+8u/HZNo9F0qI4okGoBISbq7bfffvXjjz/+UsFsocN6kkllDfz4SmcymZURn2U0q7SttFdffdVx4MCBuSY5skZxiJefU6lUoFKsPIbv5VpIyT8TztHTpk2z/PDDD8HxcO7u7k/HxsbO5DhuEdEZiCBjy7Yxe0AcsEw7W0IBWNqeEgThNnE8f1Ads1dtIMRg+vXrt/zkyZMLmMq/lAVl8zdK42aSCZd5irLApGEmZKHRdpaLi0uAm5vbeXt7+zuDBg2iC14dc/zEvmPIkCEWR48epVnby5oHHW6HpFEUXR1JiBTrTM0GCtB2S2g2mVLfInuqoIBhoz5wDw70ovnz5zusWrXqXFkdrqzfqxWEUNS0aNHi09zc3PEKXgmU+smpGxQ7KMvGThjuYWXIEpPJus2RU5KyveLcWVlZberfv/+2wYMHp02fPl08cU1Xpc8AtJMr9fgSy18mp1as3EjvVeKIWPZWeoaAGH+vad68+RGVShWXm5vbSA8rKrYvCEKeu7v73NjY2E2VPhOlNFitICQDValUqvMcx/UgWil8TdMG0K6KJophw4bFHD58GIDtSgT2kUx8F+4tDXzssOkCS1ovBqR0YZEdLmr48OHf9O7dO2XIkCG/mChmxbeih4dHm5iYGLCirQ1sRYllpGuMTyWuSW6HpPfjwH2b5/ndjDjym0qlaic7vCUKCdB27NjxcFpa2uiqVsTI56PaQcgAUQx5YjSm7IRSOQ+13frSTs+ZM6fxunXr4L1OZQOwKFQIVwIdvpOrn+XgxYKx5dvYkxUsDpySz9rY2Fzu27fv/vHjx6dUh7Bu4MY1qtvA6Xh6elqcPXvWJy0tDVpO0TWxHJdcdAivpwAAFJBJREFUF0AfpXuDpYRstWisGQ7RT4cOHbohISEhTQYkvpjQLWUK1+LQp4HnYioOVA0TBMGpugGIAZZrhsoxmYbeCk8YGHXZbN4SSAgbGc9xHCigzsXzfHOe5xdzHAeBHc+LCyRzHqYAZRdXbqukrC37Pf2OOg2wlJSenrBz3eM4Duwy/ApvdOzYscjGxibi3XffhRNznfPymTt3rkVWVtbgq1evup86dQp5VXCAQdPYkGQba07WAp/6DOCG7A12vSjw5GIK2gHw5kyaNGn3jh079GW9xv5AiJXEZZF+i5pUsseOC4LwSk2tWY2CkHpWEIrImhzoRscnqOI1nudt9Wk60Y6zs/OgpKSk7RzHtWc1X6wGTVbAQy5fKMkk4vuZ9uQnNevZIz+1KRXGJ8YmUWwrKyvu2Wef/bVt27b+sbGxMFhX64X5WrduXaObN2+qc3JyBqenp/tfvXp1YGZmJigKVd+zKSz1sYqsFlL0wyQD0Xt/RQYq03ye79q164hffvml1JQZPM+bFWdySOA47jWF0u2idxahgDUKQGOghByZLEwoqprSjSunjDix/uzVq9ez58+fB/Up9Vq5cqXtnj17IlJSUjpzHGdDwIfNJV4yJQ8FGj6plpYeAnLnAva97EZjNXM68idz2tL26e+lhXqVNcTK/l1JCUI9SdBPedlzOhb5GFhWXlHjXd6OY907d+4859dff/3UUEo1fPjwZocPH8aeUivEtopcDgF2lCAIbxrabnn7buj9NUoJaSdJWv3LoGKMv6GOypqcXFjYgRzHnTR0gIjo+P77722++OKL0QkJCSht7EAS09JTW6761gc0tj9yjRzrHiX/jYJcTnnlRutKpR4K81Oa4oMeNrSvcopfYi2Y9uWHjk55PAbAZS1ZCXkQ5gI/P7+XIyIiDF7vbt26OVy6dOm0Qi5c1g6JvqwpLnA6r6YBaBSUkK4MSRaFOMR2CkCUNgFRPc8trtK2vqxVVfodNsSjR482/uabbxyTkpJGJSUljSagBKVky4CzBU/lwGSppyHgYbW4bN13ageTU2NKYZRYZCUZVieSnWh+2TZLmyo59WK1kErUWmm8er1gyItLsPF6TEwUKBgP2MU/NRpNm3IowlyLD9n9CuYvafzEGybUWABoVCBEZ86cOdOgT58+GSiDSOw5ilSJTGSYIAhzK+Mko8D87bffbE6fPu30008/jU1OTu7JcVxTIiOxNkZxg4iT9/+2y/KcB3LWj1UIKbF9+lg/+k59hwC78em/6TNy0MrfURr4ca/OGOTeKizwSHQCNa7jOWqO0lG4MM9QhQnuXVoM1mVlTS7RLbzFcVwEUfLJDz00gUByvHubIAioKGY0ijOjYEfZSSYO30iLCH6+hGxIFRyEIibOmTNn1Lp166rEvQjgPHjwYKMbN27YXb58eVJSUtLrycnJqLFAg5PRPwrKEhtbVkxTiaVjXbco5VICCAsSRflNDoyyNq4CO6nvEVb5pMRqQ+FE/TbPjxkzZm63bt3gmZTP83x4amqqRxkuZCz7KgFTEIRbxc+343meJo1S7N+CBQssV65ciYDb7mS/KLLD5KAwGhaUHYzRgRCdIycbNpuSs60kgxD3tPt2dnZvpaamom56tV3oI14WGxvb4q+//upy8eJFt4yMDNeff/752dTUVJz81N0KtyltDFaZo8/WSes86FPiiLZWBWcHiVoxcZllzQ2rlKIaYXowiGyivb39zbZt2+7u2rVrxFNPPfXb0qVLUQIBHEFpVAVFQ30ZIMKs0EzWGR2XMwCmT58+/zpz5gzEE72XnZ3d6NTU1N2MPVIut1Oqamb3f+1dC1BTVxq+CQlJMCIRKI9tlfXRGRy6lrGFtuPYYXVFM6PdYadIdQYVumGqwgobHtLuEmzLlsfKCtpOMYKiRRkWaDstWRwRxt1aYLXVEcQtUoG2RMZCoEDJm81/e07mcAkQIJEEuTOOmnvvuef1nf+c//H969YltLa2nnAkCYgb5pAgxJVbvXp1T0dHB6SjYvoFjtO8IakIrG1mw/50M26+7stkMs7g4CB3YGBgX11d3dH+/n734eFhrIHEgc3mLe8krHUYZBgkTOloVkIwNL7mZoOU9vDwgFwL9/z8/A40NjY22HGCAstaJJFQhbkw0fVC0kodFBT0dEtLy3RBtJAH8WXG9nPcGRuVZwwPD4+ora19pIv0TOaXQ4MQGiIWi5NrampyCKM+/Exu42jNHpaKr7/++iq5XE7z1jnDBSaa1tZWVkVFBS1VrL0AzN9+++0yDocTCDF7MCHZbDak5+ILhUJwFVvq6uoKixcYzjFY2a6uZg9B+pyo/eUqWbFiRXJSUpJdtvXwnZCQkLjm5uZjxA6BOYbw2D+lUum+vLy8Sc1QsbGxy0+fPg3s2BAoztTMmrvPpHiB3YVaKpU+l5eX59C5Eh0ehNCr6enpv8nKygLDq/ckVIp4MIA+AWZZuilPHjgOO8zhG630QDbEU6vV3m5ubga9Xq8Bp2GBQKAtKirSWQtA/NyHH37IVSqV3hwOZ83Y2NgWFov1MjCIqdVq4HLA22G6b7RarVm6arXmY5Z5+zY8PKweGRn5csmSJdGnTp36wR59V19fzy8oKPhzdXV1KNiFkZRXLl269PPMzMyPrFgEILvXBwy6fdIrCoAN8YDQwHulpaUhzsDe5xQghEkHEy4uLg7yGgQzjO1MjSLNHQmDcOjQoW0nTpxwiFUwJiZm44MHD8pMJEhLWSxWm0AguMZisS6ZIre/FwgE3QDIoqIimERWLxzgS8vj8XyAjBZyqY+NjYEdFJweBOicSCtMEOjGKXyA3Ii8DAYDLZlGR0d/VqvVP4tEopdLSkocIsEr4gcFKsXnkfkBt2WCFhS7oV2/fn2rI3GcTrXAOg0IsSRxd3f/bGhoSMwwD2AVPLahkXymp+rr6w/MV0QEOCKkpaXlenl5JXC5XDaHw4HZD3+rxsbGHrBYrK/4fP45NpvdodPpBr28vIx6vd6o0WiMKpXKWFFRAW0aB0zYwvb19XENBgNXKBSyhoaGOHw+321oaIjl4uIi0Gg0nmw2ezWbzRZTFPVbFIFOer7oDQYDNhvQEnJ0dBSfK9l6vR7+GHt6eopjY2MP2ItlzErJ/yqwpKDcEFhBNUHRhc+ToaGhRxobG4/bQ5JbWd8ZP+ZUIMSt27Vr16Hy8vJ8IlU3ucqTSgpQr8OA/SQWi7fW1NTMOpvqjHvWJIqysrK8z58//+WKFSt+DRPdxcWFXrm5XC69H+RwOEYOhwO/wRm2xRT3/C+DwdCmVqtb+Xz+TxUVFbBFtVoyMusIGtzMzEwYY9+WlpYdFEWlcjgc8K3FEsQsURDw6P8DDydIUoPBYOzt7e2KjIzccOTIEdVs+mC278TExCwtLi6uQRw1pNaTVNLh6Bdak56SkvJcTk5O22y/OV/vOSUIobPKysp8du/eDSRPTNJWSxHWaqSq/0YqlYbl5eXZPT1bdna2f1FRUduTTz4JW0LsnE4JBALapODi4kJPLC6XO6xWq9tGRkb2BQYGts/mbDiTyQOSuaqq6un29vYUE9PZa3w+H/wotXq9HuqpNRgMWHNjHB0dpUH58OHDBzExMc9IpdI5M6JNV1fkS1wO2dgJ6TepmyBy3DhZX1+fNF+7nenaNN19pwUhbpiPj89nvb29kA0W+4DCLWw/w9sXMmwF7t0vKCh4JiEhQTNdB83mPhDOxsXFDQUEBGBtJGwXmUVpR0dHW93c3HY2NDR8P5vv2OIdsVj8TF9f33WRSET3FQKe2dtGrf4lQqizs/PH6urqFS+99JJdNKjINgwEvbtQVM1UXj2ww6Hvb9q06XdXr16FJLVOezk9CKHn33nnnRfeeuutWlDPM2xReGDM5x2cTx3d+LimpiZKLBbbFIxLliz5dOXKlbAwcHg8CLWjtK6urjBp6HOYVqt9KBQKf3/16lVwNJ71dtNWsw6UXhcuXPjT4OBgrru7u1qtVkNdaYmINakajUavVCoVKpVqp62+C+UA+NauXbvj3r171Ujy4YBbHFKFF1UcM4oDvs8VFBS8Ya+F1JZtnK6sBQFCaCRssyIiIi6pVCqgWCc5JZnOxXhQaVIfAKWvr2/6hQsXjttiOyOXy9ccPny43cfHx8jj8bDPKRuBkerr66vbtm3bzqko/aYbNHvdf/PNN1eeO3eu2dPTE+yMdN9oNBozqVJ3dzdVWFjot3//fsgzMqcL3BMzMjJebWtr+4gRAMy0/ZEeUlCXByEhIX9samr63BEWsDl1Anp5wYAQd8a7774bbppMJSarhh/8RmhRSS8bGFg41NN7RJxFePny5dGVlZWVcwFjcHDwpz09PTt4PB6tNEBKGFcej6dWKpU/vPfee4HzrG2cct4AV+jx48dv+fn5Aa8PG7S08LdOpwOFDeXr65vx9ddfzzozESyWe/fujeru7oYxgnzwliIwsE0TU1jgZ/5RUFCQthCkHzkICw6ECFQuYWFhyQ0NDW8TxFB4RSX9NMf5GiLlDSht/mrinZTPIISG7NNRkUjEB88UNptNcblcelen0+lcX3zxxaeqqqrm7fxn7aq9Z88e9ytXrnzn5ubmDsDD9TcajVRvby9IQXqBm8l17NgxgSnTVoLpHeB7gWMDaWYY54aIyqWBhxbIGxEREYcqKyubHTnb70z6Y8GDEDfwk08+8XnllVduIu+MySLqJ0Q3oIGH1GxSiURyfoYaSwPkQMASEIERzlOwqkNolLNczX5+fmD8p4xGI5xjacWNSqUCcNArizXXwYMHPU+ePAmkTxBqhDXZZEwls/+hWHzuU69Zs0aqUCjka9eutem53Zq6P6pnFqQkZHZebm5ubHJyspwggIVHJgtmBbDQURAIjEDkdG3Dhg2v3rhxY1JqduKbOqFQiLWyai6XS295VSoVxLNBeNa8K2KsnFxfiUSi9ajPODqdju4v5Gkz7bwJCgra2tLSAoHXsK1lZr9lMuCZpSLqc/hW8+nTp7fFxsYOWVlfp31s2s502pZZqHhKSkpYTk4OqLMxMxsGItMDg16NMVBRlAaOuk+XSCQFU0jHjymK2oGju1FKLkhCyQkMDDzU1tb2gaP3KTiHy2SyPqFQaA45GhkZoRU1yPmBzjPGvKKiop66ePEiGNiD0D0mOwEzZIsEH/73d9nZ2S+kpqbaNXWaI43BYwVC3PFRUVFvX7x48TBSzIBygN51kcoaYpBweAxpa4TbIDET4+PjSwoLC81bpc2bN/vU1dXBuYkGOBnQCtrYiIiIlU5wLrwsFAo3oxRitHYUOcZTHh4eewcGBkpx/8THx/MKCwuT4BxN0NVD2+HPBOMoBif6G287oY/vJiYmivPz86dkUXMk8NiqLo8lCKHzwD4VExNzuKSkBM4rdAQ/I0cGSeGHQYcnFX2OIWgdYMsqk0gk7/v7+xtkMpmOKAu+RUtRiAABI/P69euDbt261WqrQbRVOdHR0Z6lpaUKFou1gQAJ5oWFduhDQ0MPBwQEXCkvLwfO19342wymPEtVwmc/LFGhT2Ah+3diYuKB/Pz8e7Zqh7OV89iCEA8UgDEtLW1PdnZ2FqJHJLk0mdKR9EvF0hOHz5jPmFNMSBK88pSUlKScnJx5P/MgShHQXEK8H31ZSHNOaivxdh7HRDHTGJg9blBx5t0EDrSlKOp8enp6WlZWltLZQGPr+j72ICQ7NDc3Nyg5ObmCoqgATIJrgTqPaUyGIsiz5ThXuUlScGHeFpic78fHx2cVFhZCksxHekkkEm5RURFpNsALCwkqaC+90KDKTQgfQr/j894EP08GEVT22bNnc6Ojo/udSEll13FZBKGF7q2qqvI8evRo5s2bNyHtMlxwtiNX98m8cEiyYEtOx6Q6np7wyAcSfv/GBP4zMpns7yZ6f3jXLhcY43NzcyNHRkbeoCjqOWQ2YNrpmNpLXBdmu5kSj6wz2bY7mzZtOmiK72yMjIyckrjJLo128EIXQTjFAIF3h0Kh2JuTk/M+IQks8ZGaWcJQcczQqgmBx5aeQ4CEcxJEh0DEwgjwwMA509vbe/iJJ56A6ILqqagwJBLJssHBwd1arfb5zs5On/7+fnZXVxfY9UDTuRrFFlpqA3OBwFKRrDv8hrXG9OLElI5EGjoAbJpMJvtAJpNZY9pxcKjYr3qLILSybyEy4tKlSxvlcjkAwYvQflqSilDqVO5Y5FdJAJvBS5ydsP8pgGQcOTHa6mJmN0vbZPIMSwKPVJLg8jHAMPjI/5OSEN41J+AhpDl+pmrfvn2xZ86cAWXV4mVFDyyC0IpOYj5y+fJlz7Kysr8VFxf/AREpwUSGvOmQJ33cloy0N6Ib5BaOtE9i4OLJz6RwsARsprSy9O0JHkFWNJkpFUluUfp1HMluyorVR1FU0/79+/+yffv2/83S1c+KKi3cRxZBOMexvXbt2q8UCkWYXC4XK5XKFyAJMPBgMrxz8FeYoLMEGvzbhPMjkdeBKWXJMxyWVMz3SXsnlpAktSIT0FgzDGYVkvcUTDdNHh4eDWlpaYWpqak/LSpY5jaJFkE4t/4b9zac6aqqqnwUCkVEZWXlTpVKBXSE4F2yHD9IOAaQqccs1cLSGY3paodBxFQCMbeuliSmRZ9NQsrhOkHZd0UiUU10dHRxeHh4p63jL204BE5Z1CII7ThsAEqFQsFtamryqa2t3drY2AhZhiFWD7hAx6n6GSm88NbTEsgs0XeQgMHnRkzshDWt45QoxJnTHNKFjOdQfnNYWNgxsVj8H6lUCttsZ/F3teNo2q/oRRDar28nlAygvH379rK7d+/GdXV1JXzxxRfLbt++7dbR0WGpFpYUO7QJBAHWHDBMsHQzk5ZOZdOkgR4cHKx/9tlnq4KDg88GBwf/d+PGjYMLMVzoEQ7zjD+1CMIZd5n9XsDsaOvWrWOpVCp2e3u768DAwGqlUpl0//7915RKJfyfVooQkhMqZPZrBU8XDw8P14CAgB9XrVol8/f3P6fRaEa3bNlivHPnzlhGRsbYomSz3xjOpuT/AzjQj+1AHRb9AAAAAElFTkSuQmCC;" parent="1" vertex="1">
          <mxGeometry x="532" y="502.55999999999983" width="50" height="49.78" as="geometry" />
        </mxCell>
        <mxCell id="4-L-n2TwKw5mKGtv1cZT-34" value="&lt;font style=&quot;font-size: 14px;&quot;&gt;&lt;b&gt;IBM Quantum &amp;amp; Qiskit&lt;/b&gt;&lt;/font&gt;" style="text;html=1;align=center;verticalAlign=middle;whiteSpace=wrap;rounded=0;" parent="1" vertex="1">
          <mxGeometry x="462" y="558.6700000000001" width="100" height="30" as="geometry" />
        </mxCell>
        <mxCell id="4-L-n2TwKw5mKGtv1cZT-35" value="&lt;font style=&quot;font-size: 14px;&quot;&gt;&lt;b&gt;Amazon Bracket &amp;amp; Bracket SDK&lt;/b&gt;&lt;/font&gt;" style="text;html=1;align=center;verticalAlign=middle;whiteSpace=wrap;rounded=0;" parent="1" vertex="1">
          <mxGeometry x="272" y="558.6700000000001" width="120" height="30" as="geometry" />
        </mxCell>
        <object placeholders="1" c4Type="Relationship" id="4-L-n2TwKw5mKGtv1cZT-37">
          <mxCell style="endArrow=blockThin;html=1;fontSize=10;fontColor=#404040;strokeWidth=1;endFill=1;strokeColor=#828282;elbow=vertical;metaEdit=1;endSize=14;startSize=14;jumpStyle=arc;jumpSize=16;rounded=0;edgeStyle=orthogonalEdgeStyle;exitX=0.5;exitY=1;exitDx=0;exitDy=0;exitPerimeter=0;entryX=0.25;entryY=0;entryDx=0;entryDy=0;entryPerimeter=0;" parent="1" source="4-L-n2TwKw5mKGtv1cZT-17" target="4-L-n2TwKw5mKGtv1cZT-22" edge="1">
            <mxGeometry width="240" relative="1" as="geometry">
              <mxPoint x="177" y="390" as="sourcePoint" />
              <mxPoint x="202" y="430" as="targetPoint" />
              <Array as="points">
                <mxPoint x="207" y="340" />
                <mxPoint x="232" y="340" />
              </Array>
            </mxGeometry>
          </mxCell>
        </object>
        <object placeholders="1" c4Type="Relationship" id="4-L-n2TwKw5mKGtv1cZT-38">
          <mxCell style="endArrow=blockThin;html=1;fontSize=10;fontColor=#404040;strokeWidth=1;endFill=1;strokeColor=#828282;elbow=vertical;metaEdit=1;endSize=14;startSize=14;jumpStyle=arc;jumpSize=16;rounded=0;edgeStyle=orthogonalEdgeStyle;exitX=0.5;exitY=1;exitDx=0;exitDy=0;exitPerimeter=0;entryX=0.75;entryY=0;entryDx=0;entryDy=0;entryPerimeter=0;" parent="1" source="4-L-n2TwKw5mKGtv1cZT-19" target="4-L-n2TwKw5mKGtv1cZT-22" edge="1">
            <mxGeometry width="240" relative="1" as="geometry">
              <mxPoint x="556.5" y="240" as="sourcePoint" />
              <mxPoint x="611.5" y="337" as="targetPoint" />
              <Array as="points">
                <mxPoint x="457" y="340" />
                <mxPoint x="432" y="340" />
              </Array>
            </mxGeometry>
          </mxCell>
        </object>
        <mxCell id="4-L-n2TwKw5mKGtv1cZT-40" value="" style="shape=image;verticalLabelPosition=bottom;labelBackgroundColor=default;verticalAlign=top;aspect=fixed;imageAspect=0;image=data:image/png,iVBORw0KGgoAAAANSUhEUgAABAAAAAOECAYAAAA/m0PDAACw+0lEQVR42uzdCZgkRZnw8ZqbAQZmhu7p6enqrqrM7K6urIyoGXqmqzMzokRXRcUVPEDdVVkvPBYVWEXF+0YFQfEADxYRFdaDVXFREXEXEQ9ULjkEAUE55D6HOfD7IpsREObouysi/7/niUdWXJjKiHgj4s3IiEIBAAAAAAAAAAAAAAAAAAAAAAAAAAAAAAAAAAAAAAAAAAAAAAAAAAAAAAAAAAAAAAAAAAAAAAAAAAAAAAAAAAAAAAAAAAAAAAAAAAAAAAAAAAAAAAAAAAAAAAAAAAAAAAAAAAAAAAAAAAAAAAAAAAAAAAAAAAAAAAAAAAAAAAAAAAAAAAAAAAAAAAAAAAAAAAAAAAAAAAAAAAAAAAAAAAAAAAAAAAAAAAAAAAAAAAAAAAAAAAAAAAAAAAAAAAAAAAAAAAAAAAAAAAAAAAAAAAAAAAAAAAAAAAAAAAAAAAAAAAAAAAAAAAAAAAAAAAAAAAAAAAAAAAAAAAAAAAAAAAAAAAAAAAAAAAAAAAAAAAAAAAAAAAAAAAAAAAAAAAAAAAAAAAAAAAAAAAAAAAAAAAAAAAAAAAAAAAAAAAAAAAAAAAAAAAAAAAAAAAAAAAAAAAAAAAAAAAAAAAAAAAAAAAAAAAAAAAAAAAAAAAAAAAAAAAAAAAAAAAAAAAAAAAAAAAAAAAAAAAAAAAAAAAAAAAAAAAAAAAAAAAAAAAAAAAAAAAAAAAAAAAAAAAAAAAAAAAAAAAAAAAAAAAAAAAAAAAAAAAAAAAAAAAAAAAAAAAAAAAAAAAAAAAAAAAAAAAAAAAAAAAAAAAAAAAAAAAAAAAAAAAAAAAAAAAAAAAAAAAAAAAAAAAAAAAAAAAAAAAAAAAAAAAAAAAAAAAAAAAAAAAAAAAAAAAAAAAAAAAAAAAAAAAAAAAAAAAAAAAAAAAAAAAAAAAAAAAAAAAAAAAAAAAAAAAAAAAAAAAAAAAAAAAAAAAAAAAAAAAAAAAAAAAAAAAAAAAAAAAAAAAAAAAAAAAAAAAAAAAAAAAAAAAAAAAAAAAAAAAAAAAAAAAAAAAAAAAAAAAAAAAAAAAAAAAAAAAAAAAAAAAAAAAAAAAAAAAAAAAAAAAAAAAAAAAAAAAAAAAAAAAAAAAAAAAAAAAAAAAAAAAAAAAAAAAAAAAAAAAAAAAAAAAAAAAAAAAAAAAAAAAAAAAAAAAAAAAAAAAAAAAAAAAAAAAAAAAAAAAAAAAAAAAAAAAAAAAAAAAAAAAAAAAAAAAAAAAAAAAAAAAAAAAAAAAAAAAAAAAAAAAAAAAAAAAAAAAAAAAAAAAAAAAAAAAAAAAAAAAAAAAAAAAAAAAAAAAAAAAAAAAAAAAAAAAAAAAAAAAAAAAAAAAAAAAAAAAAAAAAAAAAAAAAAAAAAAAAAAAAAAAAAAAAAAAAAAAAAAAAAAAAAAAAAAAAAAAAAAAAAAAAAAAAAAAAAAAAAAAAAAAAAAAAAAAAAAAAAAAAAAAAAAAAAAAAAAAAAAAAAAAAAAAAAAAAAAAAAAAAAAAAAAAAAAAAAAAAAAAAAAAAAAAAAAAAAAAAAAAAAAAAAAAAAAAAAAAAAAADkRrBoaXn10hWVZlellpQq1bTqDcYikHrPcjjSDGQ64oVNZf5e67Glr67S7O+N/v0oXVupNqU3qAa6zT+jo3fNqt2K4fJCobiY5wvACsVivLh7YK+OLBCWopFaqTayZ2kwibOA5wn11LJI9vVr8cv8MD3YBMi3e1K9x5Pph7LiS3Vsv2x90gTDz1ZE+vnsr0f/7y1/3/xv3zv6/yPUW03QfFUljPcPGnrvIFJ7+VEr8YUaKopY9AZDfrm8bmVHR3WJ+SPNpVYAAAAwFrv3iWWl6nClFMZrSvX0yeV6euDoPDVKv2zmnD8x880rzXz03v5G6/9NZzH/jg3m33WdL/R5Zm78zUCkx5n58cHlery3mQMPe7Vm/8pAd5o/8nxqDcCUWx40d1vlr+vNFvVePVlXDpN9PZG81QSmE/1I/TwQ+s8mUD003cFwAsHzbyZw3mz+nBf4Iv22+bN+sL8ev7hcS0f6wmaY/aalS1cvNT9xDrUMAADgvnK5vJMXpn0lObJnJUxe4Mv049lC28wbH2y3uexY5rr9Ql9m/vwnBXX1ejO/VWURD/pSriA5AGD7i/zlwW7d3lBfb21tZILHCypR+jGzYP7pTGQ52yF4ekJd6NfT48q19IVZoqM4EPd0doa70jIAAAAsVYwXV2prSiWRxBWp3mEWyue7Pq99ZH7baG02v/ciM8c9ulRLn1UM46A4+okBL76AfCmXd6pEza4sCFQi/ZJAqNPMAvj+vATDCSQH7vJl68ulmt6nJ2gWs90QBT4tAAAAaDsd1XRJpbKm5NfVy/woPZe57NYTA57QZ1XC+M3FWrM/CNZ0BkGwiNYDuGHBMm9o957B4QFfpO/ypb6SwDcVgVM/4Et1cl99JM0OgMmeM00NAABg5ue6xWK8vCLTVwVSXc08deLFzG2v9WXrqOz8rj4hljG/Bewwt1gsLg6ikQMCoX5NMJvRswbOC8LmC7IdFgV2CAAAAEzbor8v1KEv0v8Z/Qaeuei0FU+oH/bWklb54fktnw4A7bLo9xutF/YLfQWBqm0SAg8FQp8aBM0izRMAAGDyevrXrfalupC55uzNbwek/u/iQDxMawRmWEmol2+5hmR9O56+T3nMyaxSb+iX6ppiVT2DlgsAADB2K4M1YSD07wOpNvC2v63mtxsDoe72Iv3ZXR++jhDAFJpTCUeek23pDxqtO02n20TwsTZgrjeD2GVeFD+bZt0O/Soe7o+e9EZPto41dfP52S6+SI/zpf6YV0/eWq4nLyr3J6upJoxVpdqUZZm8KIjSI7J25IvW8TPZfj2ZHlMR6UfNWHVYqd58fqWaVqkVjFdXdbiSXTVcqaVvGY2Hq9PPznJsPsarp4d6A+vWUTszJzup3lutv2bmvXex6LcjIZDdGuYL/fu+cOQAWjAwAcu8oT5Pqs+YznRDduAcwcXJYHlPINOzV1XXMkmeQdktDr5QP+2XrfvsaCcq+5zkniwW+DL98kAj7qEWkS2ufam+atrG9abcbdrH5nY9aXpL4vr6LMHV5Y/eSw1sWeXFi/sjs9AX6op+qW4f3THX7gcAC31Rdsc6lTdNsU3qF2QH0Znnzcsum5MBpq+Y2H9tlsgrFMKFtGxgG8ph/Axf6rNNx/kr2c58fU9lJj/XeSJ9d4HTVqe3jw3Eg2bydocDWfY/lvvXsTsgf+aYOHGMqf+/2DpGjN5JLfWVZZmOUJ05XuSF8XAg9G9MO37QzjjcWu9FyeuoyalKzAe7eVGa7Vi6hXmhk/Pc7NONqyt19Y7u7qGdafHIuwX9UfraQKhfmI5xJ0GCkm2f8oT6jhcO9dE9ppbnDe3u0uQiWwB69fQTBU7kzUf7Fem/mDq/zZXk8JbE51fNT5tP7eZJcbGZ8/ywv2H/p4yBbD1YEklMnU6iNQzEPX5Dn57NfZgD5mae+4DpO78ri/Q1xH/kybyyiA/ypTo32wJOMKBsveiNpo38H5OLKV1AHerknb2R+haDqNPmVCL1GWfvnBb6Vx0d1SVUcw50yV3M4v9qt+Kv/iUVO369tbWRmeOcme2kYL6X32LawO2eUP9V6h+p0SvgpEpdvSyI9Nn9Ut1Hp6eM8y3ZrytR+jR60eT4Uv/J4UH0KGrY2cTVITmYBP7Y/NS51LbjMVio3zjYfjd1dXGuxVj19a/1fKHPyE6PZ45HedynYReUpX4RvQT2D3ZRnHhCfc006tvp4JTJJgICoc7praZr6Vnjl20zdL2NlAbjhJp2yyqZVvNyHoxfV++kxl1OZCVHu9qWfdF6DTW8fV1+siIQ+pTsswnmdJQdzHevzBLf9BpYZWWwprMikg8EUl1OR6ZMzwFw6ru9wZBPbxu70ev+XG8bQl9XLpd3oradMc8X+sL8vAHS95eqwxWq3T1LBoY6sitw3f2MJT2OWt6mOV49OdKMT2z1p4x3vnu1J9J/pQuhnc3NtmgHkf4m15ZQZioR4Ev1ya4uuQvdb8f8sPWUnLxFfRm17YZypPbK3fegQp1GzTsYfxv6PMfH429Sy1tLvKcHBFL9mTkbZXJz3fSXfaI5RI9C21jmDe3uRepNgeBtP2W23vqq27ww/ZcCJ8GTAHh4sLyhEASLqHH735plh+Pl8aqobm5AcUpned3K7FBbt9ttSgLgMborScnMTX7EddaUqTwjwBP6mEIYLqSHYfaCW80Et7o6klP8Ke1SPKm+3+0xcd7m29QwWZ2XtlAJR55DjVv+5ixqytyeCi3U8bQAh5KvUv3M+TYbpZ+ipkfN98PkDdmZRczLKNOUCLjLq6XPoqthZgeyQTXkNfQpvtSb6YiUdrxb1a+nBxY4TfsJimG8PD/X6uizqXHLxxqRfCDHcezPBXY0uWJuv9QbnE+61tNX5T7JLuJBX6ifMxejzMxLr/RDhcLQAkIsplUpjNeYwPY/dDqKLd8jZifu0nMf/yaqdW1e2kDPoBqgxm0VLjR9+K48x7ByGD+DdmC/iojflYf22t2/Z57vMJ9n5scHsd2fMvNJAP2/2afYRFpM/cK/NrKnCWzn0NEoFpa/lkQS04sfZQaL/8zNLoBI/Qc1bumbtFo6kvf45Uf6VFqC9eaYReGDOUi4r89rBfcMDu5hxppvM9+izOInY39auXJNJ+EWU/OmMIwD06h+TOeiWH96aqTeWOCTgIcTAHX14tzUv9AXUeN26hfpu4hd+o+0BLstWza0ex7eCue1rZYGh2Nf6juYa1Fmvw+2bujrE8uIupiwJT2De3hCfYmtTBSnvk8U6anFYnFx3vt3EKb1PNV7n/m9RHUL26lUlzCh0w+Vy6uX0hosTrhG6ticvIE8J2dVO68k1GHMrShtdiPWL7ghABNSruu9s2sm6EgUR7eEX8q3UoX5vtDrc5T4eReR3S691TWriFccrObCIjFHW5A/kJdK7eqSu3iR+h7xidKWZwKI9N2EXozHov5InUXnoeTgrdpfO8vhyjx3dj9KT83NxLShf0V4t0tFps8hVj2ysPo+LcJOHdV0SV4+s/O8WOShTrNrhn3ZuonYRGnnUgzjYSIwdmjLN2r30mkoOUoC3L+iX3l57fOlKNknT2dALA+auxHp7eEJdSRx6pH2eyUtwtJ2nJM4GzRGr6x0Xm+Y6v6G3kRcoljwKcD5RGBsV/Z9IVv+KfksemNRtEQuJ6bhUF+urlMTyb5Ee3uYRe8FxKdHEgAbaBF28qU6Nx+7VNL/dr0uKyJ5NfGIYlW/XK1SojC2McsKFgVC30JHoeR5ct3rr41yOTkV+vocnf1wLAHfDtkZHdnhd8Snx3zTGSX70DJsm16Z+VVODlKuhMkLnF781/VxxCSKfeNG+lkiMbb+FlAkR9NJKGyV0g/6fhzkbvePSA7PUaLnAiK+JeNSbeSpxKXHJbBk+nVahmUJVj9ZkYv2KfXt5ufOcbYeI30qN2JR7Oyb6nYiMZ6Y0awlJTKaFMqjZwL09AzukasJai2JclO/jdZmzgGwZGwS6p3EpCfc73w5LcOyBGs9eVFOxs5vODtGCnU6i3+KzaUUtWpEYzw+q/kGOgeF8tiJjLrbdI15+ZmhlnfKUxLQ9W2qzoxNkttotrLIupuWYZd+oX+Vk8PG9nex/rwoPYPFP8X6zwDq+vlEY/yD7I0CnYNCecJE+y95SgL4Ij0pR9epnUDkb3vzst04xKIn3mTR079uNc3DDtk98XlYPPpS3VcohAvde0HG4p/iSB+tq8OJyHhE98BQB8GNQtn6RNssis8z3WRuHmKBN5Csy9EOj98R/dt8U0qomsShbbzJkQkHWdrSjgdHyjk5P+d7zr0ci1pfYn5McaiPfoKIjEcDXE3vScegULZ3eqo6Pg+xoK9PLcvRtY+bshPmGQHaOCElksOIP9ucyF1GC7HkDXIYH5SLt4uhOsip+FNP38fin+LUXFa0vkRExmMmWemz6BgUyg4CZ03n4uotX6a/zEudZgdzMQK089s3/U1iz3ZPW4cNMTXSF+XhYNWenuE93Ik98SuJMxT3+qk+hYiMR5RC9XI6BoWywwn3huJAo8f5hGAt2Sc/5wDokxgB2ngSLvWNxJ5tfp70UJefrKCVtHk89YZ2z0WbFPp/nYk7wQi7YimuzmO5QhaPCXZCvZWOQaGM6ZCjS4rFeLHT8SDQnTk6B+ASRoD2VKw1+4k5O4hHUfoWWkqbx9NQh7m4VSVK3+xCfXWW160MpH6A+EIhAQDn+UK/n45BoXCIyhZzzW+8NSeD4aZlyzzOAWhDZZG+hnizo+851UW0lDbfAVDXh+aiLQ6qAdvrqqOaLjGL/6uJLRQSAMjHAGUWNHQMCmUck52wqdyOCemhuUnohMlLGAXaMDEdqZOJNTuczN1GS2nzHQBC/T4PO+McqKp5nDlCIQGAnO0AUCfQMSiUcW0d/0tHtbrE1ZiwMliTm88AfJGexijQfsxE5TJizY5vsjCPagGtpT1lVyznYjyMkvdan/SO4lcQTygkAJCviZZQX6JjUCjj/v72Y+5GhaEF2fb4fCRzWpczCrSXYhgvzw65I86M6dvrA2gx7akSxsO5aIPmd9pcT31hWue6PwoJAJAAoFAoYypFyyc+230jItP/zMlp6pvCMNyVkaCNdqVF6QuJL2N9+6p+Sotp03Zc1+/Kwfb/m81PnWNrHVWz7/6Fuo5YQiEBABIAFApljFcfZYdwDTm5BbcnkMX83O6QHshI0EYLJ6E/T3wZ8w6WO2kx7Slo6D84fx5OPbX6UFzOwKKQAAAJAAqFMpGTuF/uZGAYGlqQn7eo6XcZCdpo4ST1r4ktY57QbaDFtJ9Sbag7Hwfi6n+ytY7Kg2ovYgiFBABIAFAolIlsIb+zq0vu4mZs0Bflog4brasYCdrGPNOn1hNbxl56B5J1NJs2S2JF7i8uTT99sFB45iIb66e7e2hn8+e/kfgxLe3ib6Y8YModgdA3+lJdGwh1uR+lZ3tR8iXz373Pk63XV8J4/76wqQLxpLjXXxtVKmurQSCL3d0DHYXlwW7ZWDD6n1lZ5u2e/b2u6nClMjDcqNSSViUceU5Zjhxo/tlv9aQ+JjvQ1xP6f32hrghG/536RvNnuM2Ue4OG3kzdkAAACYBpPZXZBJos8N0zGvwa+q+BbJkg1LrBj9R1JkD9yhf6DPPMv5YVM0n4sumQn/t7MX/vpEf+nlTf8aX+mfnry7L/f/PP/rP5Z96cXf1kFix39svWvaas57CsNngLEqUfcjE2VMJhnYfDkUx/2lwoFBczGsy+vtrIU4kp473JQn+NltNePKGOzMGnU1+2NkEj9DHEjknPdzea+cHdptxkyvmVevKBSpQ8fdmyod3bsc6L3ur+Sqj2N/Pwj5qYed5oAkjq281/3p+beTQJAJAAmFhWczTgmQW+6UR3+yJb0Ouv+ZF+S6WWPm3JwFDHbNVhl2xVymFzX08m7/Wl+olvglp/lvWUmgTBzLSNh4oDcY+D4WGO+X25uA2gVEtfyWjQDhPzlIn5uBNY+gFaTpu144b7B8t5UfxsK+umNrIncWMCb/UbrQfM3PIOX6Zf6B0Y1uZRznWnx4YLy/V470o9Pc6T6prRF2wNvcG5+TMJAJAA2GGgy7YLbTKL/Hu8RnpKqd58vnlUi2yt476BpvIidawv9A3Z7yIpMB1v4dTxLsYH87vuzMdBgOonjAZt0N5k6/+IJ+N/E1ew+CR2597+h2lfHuZJPT3De9iZnNHnETPGNg82C/77vSh5b6G7e+d89uaOJaY/v9Z7+HPI0bmz1bsiSQCABMDWvllSvyvX00NXrIi6zGOZ7/CEam52cn3PgGpURHoS30ZN3S6ASmW07Til0hh5Q07eol7HaNAG45HUtxFPxj9+LVkyuAetp00SAFGyj/vxMv2BlXUj1Mvz8FnbJD8purA0OBwXsm/w8VjZmmB+z+DwQPbCZ3Q3MAkAkACwbsJ0hyeTY73BWHR2jt4BnudANzc7xK63mq71pfoxA+CkBs7Puzjo5eEzgIfPASjvxIgwe3prayMm55xDYrtA6ONcb2+VMHmBfTUztMDUDQnGrc+JbyiFyVMKZcbA8cyNssMkewbVgBep4wPZepAEAEgAtN32Xn17UFdHrpJpdfnDp4uyXXIbsoDW17/WMxPKrzAwjnsQ3bAyWNPp3IRWtu7IRQKnnryaCDB7fJG+izgywdgj9D20oHZpx8r50+UrtaRkW73k4WDG8e4c8iL9uS6ZrGBOPCXmdQ8MdZRqep9AqAvadC3EgbFwOwHgS3VfRaTHlWoje25ZkM2lpsevo1pdsnJg3bpsSxgD5ljfxKnPODehjfQXcnIOwLn0+llsZ1KfTQyZeCmE4UJa0ewq+nHg/sIxvdi2eimXVy/N5oXEidG3wBsrUfqW3Yrxcnrs9Flq2lxvdXitL9RpbTPHMXM5agZOJQCy76990TqtKOInbTmNnWzmFCtVWxU/So7NrjpkEN3+bpOCY5+UdHX5K3JxHaDUf6Gnzx7z/K8nhky8LA9Gd7dhVpOl6Qudj5ORfTemmD/zZ3njn73xV+/pGRzmvJAZlsXmShgP+w112mzOpbyGPpragPUJgEDoq7x6ekil2pR8uzuTmfR1K81zf1+/1BuYdG+9lE27dC5OZFdLul93mwrF4mJ6+cxbGehObieZ5LbsuuYTllnmCXWi87vcBtWATXXS0ZEuMbHlnnwv/tV3y4Ory/TQ2bd7n1hWrsbP8KT+xUwnAwKRHEYNwLoEgOkom4NIndkXqv0JZLOvM1y30o+STzJp31pbbV3iWn0HUT62Z/sifg29exYWTmH6WmLHpCf5l9KSZjlOSnWL42+RbylYtsPNq6efyPFb/3v8SD23wGewbak3GPL9enK4L/UdMzO/SZ/JU4cVCQATvB7whD7FG4yfvVsY8r1SGyoOxsIX6hwm4P+41a4s4ie5VM/lwZG9cnKTw6/o1TPPl+pMYscUxJ4gWERrmh19YTN0fpeJVO+wrFrmBlLdnM9bidSPsx2b9EwrUoeLymH8DE+oH03XroDsn5u9uONZ49GJl1AntNcBJeo+s+j/z1I48szsejpqyI5B1g/VQSbA3M8k/JHB93+cG6Iarbvcvw5Q/5XuPAttS+qriRuTL3zfO3sqUfpK19tXKRqp2VQnXpTPnUWeSD6SXXtIr7RPdh2uJ9JPmLnIA1N8yPH/8XTxjwmAKP14G3zPv94T6mt+Ld6vWIz5BtfWNyBCeWbh+3Mm4qOfAdxlHolTA3Ag1e9ycQ5AgXMAZtgCK+5QtmGBFo6wxXO25lJSf93xnW0P2nZPvJmP5O4GI6+hXkFvtF+XL1eY9nu4L1s3TM0NVenzeKr4xwBZV++cvSxl60eVevqqjo7qEmrClVVisMiT6jNMxk37rievd6lqy5F+XS4OcYyS19GRZ7Bdhcm+xIspu4b0u7SoWTE3EOo2t9tW+lmrFlDV4UrQaG3O1QHEjfSFdEUHE+RRekAgJ/5yzRfqrALnQOAJCYAZvLYm+wbFl+oS0xjfuaISdfH03eWZRVTeDwg0Afu3jmV3Fpk6XZ+DcwAuogfPYKwQ6r9YvE/dYbls/Z15pTBe43rbKo7euGTR3Fbqk3N1C0gY709PdDzOSL2nL9LjTJy/YRxjwm+CYE0nTw9bSQDEybQHJ6Hv9rMt/ubfxRPPj0o48pw8XxdoAu+G7MoXp1IAsnW5++cAjH6+gZlqUw39BxbvU1e6/GQFrWqGk1j19BDXD7btqKZL7Bqr9J/zcuhwUNeH0gtzZW52aKBZV52Y3TrlS735id/865sqUfoxPqvGthMAZrIwHadOZm9/s++v/Ch5o/nXzOdJ51N5UO2Vt214j9s2+SGnFmtCH5ODBMBmzgGYOf05v6N76j89etI6WtVMLzbVdxzfzXamTfVRFLGY6TvWZ2vx70fqdHpg7i0s9o80KzJ5gRlPn5/dzmX+uzk8FoxhUq9+NIUB6V5fpGdUwniYJ4vRJFMt3i8Pg/HWb7VoXe5SXXZ7Q315+LTDq7l1fkO7KsmRPVm0T/FW4Eb6aVrWjJrnS32n0wvNweHYsjntN3Ly9v8Guh+ACcsW65P97jAQ+rJApkfYdkosZoYnksNy+RlAQz9QcOw2gH6pr3G+3iL9B3rtDEzU6+lxLNqnfFFwZ4G3PzPXhmvNEecTot7Q7lbVyTi+kbb35YLe0F1LSvRAAJPNmH5pvFv8TfmTF6kTu2trCELYkTmeUD/M44TcF+ogt5I57h/aFsjWerrsDIw7jdZVLNqnvqzk0KcZ4zfSdzk9fknLkqHLg93y8NmhJ/Qp9D4AU2GuL/RJ/VJv3E7G8d5A6Os8mX5ueU+zyCPD+AwtyA5Yy10CQKpLXarFUrX5ZNc/6cgSnAXHdm60ZQJA6jtYsE/DZwCRXSe2292Gp+4Tyra8Wk7E+9lUH2ae+pYc3FRzOz0PwJTq7Ax3rUTJUVnW10zOrs+29mf3v3rVdC1PB5O2ZHCPrZ1Y6vhi8m7nJr1C3+r8Iqoe/zsddvrsVgyX5/ZskGlPAKRH0MJmxNzs3COX25Jtp/+bxfFl7p/6n76PrgcAsEpFqA/kbeLfLeJBtxIA7n/OEUj1F3rr9CmL9G0s1qdre7C6nBY2A214UD/J8Rh4f8Gy8yT6pb7N8VtqbqXnAQAsXUDqu3M1KRfqBJfqrxSqV+Rg50b2GQBXmE6TbJcZi/Vp3Lq9eq+ltLLpbsPpx1x+0+xF8Zssq5K5rt9SY+ZOX6HnAQCstKqaVvO0C8D8VtfeJs83v2mD61sti8V4Mb11mpKAfP8/vbsAHr4LGtOaAFDnuhz/ypbd6lQK439x/O3/5uyQQ3oeAMDeyZPQF+XoOsD7nVvANfR57t+pPvIGeup0tZ/WZhbq03mVZfpKWtm0mmMWyesd3wFl1fZ/L9LfdTwpfTHdDgBgtSXdAx39Db0pJzsA/lYKW2tcqj9PpO/OwWnLN9JTp6Ht1OMXs0if7ttHWj+mpU1jAjtUz3D7ENT00/a9VFA3O92nI/VBeh4AwP5JlFQ/y82EvO7WOQDdtTWlXHxLbdk2WBtUZPpz2xJB9rVdvYlPWKYxiSXTz7mcsC4UunaxrU5cv2a4YsZceh4AwHodpaFuM7BtyscbOXWza/UXNPSlrtfbymBNJz11avVLfY9NbaA0kD7TyoVc2AxpbdMU+6T+tcOfrD1gZ520HnQ4KXMDvQ4A4AxPqt9xDoCdfJF+yvnD1Or6EHrpFCcAGnqjTW2gMwx3tS1pMfrGMExeQGubDkMLXP7+38T1M+yrk+6dXT5YOBD6HPodAMAZ5cH4SXm4EWD0BF/HVGSq3T8HQP2JXjp1iuHaYZv6+9/r3/yZ/2hd8oorw6ZnzBJ6P5e3/2e39FiXjA7t3KUz9u//00/R8wAATglk69pcfE8exs9wrOrm+rJ1k+v11hnutSu9dIr6utCnWvUWPUqPyP7cnkhPsXAxd5f5o8+j1U0tL0q/4my8k6177UxGq487PXeoJy+i5wEAnJKHreRbtvF9w7nJsNCnuF5vHL40hQmAhnrAprrv9ob6Rtt5GP+TjW23N0p8Wt2UJ6wvcfismgvsHIfSH7o8BvUFnOcBAHBMV5dc0S/1hhwkAO5xre4qUesA5z8DiNI300unxLzsUxirEgDdQztv+bNn977fb91nAFH8bJrd1CkWi4tdPmyuWEufZedLBHWdu2OQ3mR+4nx6HwDAOWZy/Zsc7ALIBvK5LtVbdkCaqbsHXK43T+pr6KGTt2rVul6rzvuQrfuyhf8jMarRusrCpOMxtLyp49XVix3e/n+frfVi4yGd4/iU5w56HgDAzYlVlLzH+R0AUj9UcDCTH0T6TOfPb1i9eim9dJJ9XCQfserTD9E67h9jlDrdvpij/kjLmzq+0Kc7vEPtMmsTAI3Wfe7OG9S19DwAgJM6y+tW9ku9yfEEwN+WOriQ9KR6vesJgFI0UqOXTnKSLvXtNvXVHm944LF//nItfaGVbbc21E3rm6JkZ0Nf5WqMq4TpwfbWS+sBh+cNl9HzAADO8qW+yPk3yQ6e5lseHClnuxvcPr+h9TZ66CQm6EGwyLZkXSEMFz7uZywy//1G6xZ2UevptMAp0D20c7+F9T+29t560PzCBdbGF4fPZTAx52I6HwDA3QRAlH7B+QPlpP66kws8qX7ndgKArdSTWjt1D3RYNuneWHjM9/+PtnN9tXVnWAj9blrg5HmReoXD49IfbK6bfpcTAA31W3ofAMBZQT3e2/mDAKX6i4t1V5HqHa7XXc/g8B700okpi/g1di2a1be3mqSU6n+sW9wJ9XNa4BQkqKX6sbPb/0X6UbsTAA7fIiT1hfQ+AIDL5pgF8n2uLyQLjt0EkPEGknXOnwNQG9mTLjrB5J5IL7Fp+/+qwTjZajuPRl5r4+Gj2W0dtMJJtmGpr3fzDXNrc3f3UIfVCYCGm59mbLmdgTMAAACuT7LU+c4nAJ74bbEjizx1q8v1VpHJO+ih41cul3ey8LrOrVoZ6E4bz7uoyFTTEifOLJB3zhbKjn5jfrXt9ZP1WYfPALiBHggAcJov0uNdTwB0dcldXKy7ikg/5fb5DepqeugE+rSfrLCsnu/bfqJLX2ffOQDqMFriJGJbXf27s3EtUieTAGjrBMC99EAAgNuLhcjOq7bGNRn3hnZ3se6CKHm684c4msUsvXR8SlGyj2UHPv58+wkA9UP7zgHQZ9ASJzEuSXWBq1fTVqp7SvsTAA5/AmBKsRgupxcCAJzVZRZY2aTE5cG8t5ZEblae3MUXyvHrAJOYXjo+XqS+Z9d96CMHbHcxKJLDLVzo3V/Yyq0GGGNyU+pbHL3+z4nt5f0Nhw8BHL3KM+EqTwCA23zZusnxBMCLXK27/ob6ltO7N+rp++ih47LApoRe9p33jn5Qz+DwgJWHWIbxGprjhOxs47kPY9zt8j0nxh3pdgKAcQcA4LxAqp86PZiHyXtdrTsvGnme0zsAOAdgXMrhupWWnYh+19hilLYuSelJ/Tpa5PhVovgtzt5sEqbPdGPO0Frv9KdnQp1FTwQAOM0Mdk4fBOhH6amu1l1P0Cy6nQDQfyvVdDe9dGyKoWpa9kb08jHFKKnPsi8B0PoqLXJC49EVjiYzbys48llI0ND3Oz7uXE9PBAA4PuHSBzt+mvyFLtefmVj+xuX6K9XTJ9NLx8YT6tOWbbU9ZIwx6v0sIvIhkK07Hd3+/0NX6qhftu51PfFc9Jr99EYAgLMqUfo0xwfz9U7XXz19ldOfcEj9YXrpmMzxpb7Lon75UKHQsWQsP6wsR5o2LiLKgyNlmuXY9fX1LXP1+39PqJc7kwAQ6nbnb6AR6nh6JADAWZ431Of6YG5+5nxX668UtWqOT8Q4B2AMfJmssGyBfMc4ft7coKHvtHD30ctomeMYi6LkvU4moRv6gUKxuNiVegqE/l/X5wwmPjHuAACcNie7tsrlwbxcLu/kcP3NM/X3V6fvZW7EPXTT7SuHyWrLtkRfOc5Fxzn2Ja9aJ9Ayx1XHf3J0MflTtxI16tgcJAAeKnENLQDA6YmXVJe7PJh3dcldXK6/SqQ+6PRnACJ9Fr10+/y6eodVdRqlHx5fG9cfs28HgL6YljmOccjRw+X8KH2LU8nG2vB+ricARuutoX9GrwQAuLt4kPpslwfy5UFzN5frL7tz3O2bHNTH6aXuJPGy7+P7+td640sA2HdWSdBobV5aXr2U1rljneVwZdYu3Nv+39pcKg25dZPJ8mA3F+vqCUXqDeXBvcr0TgCAkzyhv+LyQN4nxDKX669Lyl3MhGyTu9sxOQdge/qEWmZXfbbuHO9vzD7jyQ70tO7zIxHvRwsdQxI6Sj/u6FbyC9xMOLYezMUuAKHPo3cCABxNAKgjXR7EuweGOpyfQMv06y7X4Sp/XS89desqddWw7M3aFRNbdKjzLdy9ciwtdMf6pZsny5v6/6CTCYBG6648JACyHRx91ZGUHgoAcDABkB7qdBZfJitcr8PecFg7/hnAc+mp20oAJK+2qS4rQn9+YnFKf8K++995gzgGc/obeqOTB5hWm9LJhLPQ1+UhAbBlF8BNdFEAgHuDeV29zOUBvFTT3a7XYbbLwe1JWPopeuq2JuPqx1b1x8F1yUR+Z1no/exLPqr7CoW95tNKt60naBad/P5f6KucfWkQqRPzkgAYrcso+RI9FQDg2GAeP9vpa+QG8nGNnJmUXejsBMzhyfRkFIvFxb7Um+3Z/t+6d8K/NYyXW/VbH9nxkLRoqduJW7L1GUd3LTn7+Ud5UO2VqwSA1A/1CfVUeisAwBmBSGKXB+8e2SzmoR4rUr/A6esAvaE+eus/6q0lkWUT6csm83t9oS+yrt1G6Ydoqds0J5Bqg5M7z+rpk52eN+TkIMDHlE291XQVXRYA4ISyiAfd/n68lYsD5Eq1oW6n67GuX0RvfVzSJ1T7W7UYluq/JvN7vYb6tIXfEP+YlrqNsadc3snRN8a3mZ831/EEwE05SwBk9frg0qVc7QkAcEC2Rd7pN8dhmpc3x3N9qZ09ndkX6nh66+Mm4Q19il3nccSTOszRq8cvtnDRcDMtdeu6xZCTyedAKOe/GTfx+Jy8JQC2fI5269IySQAAgOV27xPLnE4ADA4P5KUuK1F6BOcA5MZcs9C426KF8AbzZ543qQWjl/bZeGBcd3lokOa6lUVkw83D5Hyh93O97rwo2SePCYCHD/fUf+3pGd6DHgwAsFcQLHI6ASBikZeqLIfrVrpcl5VaUqLDPqwYxoFlk+YrpiRcSX2NdW1Xpm+hxW4lgSX1Qw5uE99Y6JK75GLq0ND35zUJEAi9vlJbw3gEALB4IJd6k6sDdW80vDY3FRmGC12cVD96DkB6IL31YZW6+me7DsNT352K3+3L9AsWvjE8kxb7jzxvaHcn45RQ385LHfpSXZHXBMAjJRxp0psBALYmAO5xdgdAPVmXp7r0hf6au+cA6BPprVvqOVLH2nWXtnrFlPzuunqZfTsA9DW02H/UN7jnkJO7lKLkJXmpw7JM3pP7BMDDV32+0zyOOfRqAIBtCYA7SQC4oTtM+9zddqn+SG/9e6JHXW3Rtui/eZ63+5QsOiy8tST7/cuXB7vRah/lRfrrLsaocrjXyhxV44Lsery8JwBG45vU12TnKdGzAQD2JAAa+lYSAI7UpcNnOmQTrZXlkXLe+2upprttOgwvmOI34IFUt1nXdqdoB4Qb9prv4qdKfqTOzeHLg8vYBfDoQademL6W/g0AsGQQd/dO37wlAEbrU7R+72p9lkV8UN77qx+qZ9j1Dbz6/pT+fmnfZy6BTL/DSPOwStTscvSq0tzFJk+kb2Px/49JahPvru0L19Xp6QCAtmYGrhtIALijr5Y+zd1zANRX895fvUhZ9e1tJVT/MbW/P36FfecAtC5npNlSfzX1VCe/BZdpNX+1OXrw7P0s/p9w7seGIEpPKUzy6lMAAKaNGcD/RALAKfOCRmuzo29Ycn+gWiDUz22qs6K/ZzCVv78Uxmvsa7etB80ffS6jjWm/kTrdwbh0ZSGnB8GZePRTFv3bvAHkjkqUfoheDwAgAUACYCbq9C5Xt1iWB/N7DkBnGO7ab9G1nWYCfOM0PIYFZkG93ra2W6o1n8Vgk51Roje69/1/+pa8VqkvW09hsb/DOHhTECaHMdsEAJAAIAEwbcr15HB3PwNID85rX62IVsuyhM0PpiVmCf09Cw+JOznvY02WvHMxJmW7UnI+h7iShf6Ok9eBaF3l1dNDmHUCAEgAkACYDgtd/QzAl+pbuU0AROmbrep/kXrPtCwkw/Q1Fi4ALs37WOMNps9zbmHX0HdkNxvkul6j9O0s8scTC9RfApG+j9knAIAEAAmAKdUv9T1OJgAa+rq81qkv9Bl2HQAYD09LIsT8c+1bKLbuyvtY48v0B+5t/9cfYxZR3snMI25hcT/e3Wz6Di9SnymH61bShgAAJABIAExBvaqTXd1KuTKf5wDMNb/9bovq6c7CNB1811GtLgka2rodLsWoKfMaj7q7h3Y2z2CTa/GoHKoms4gsuaOOYlE/qesDz/QG42cXOCwUAEACgATARC2trCmZun3IyQmT0IfmrT5tO/0+kOon07zgONfCcwCOyms8Kot40MGF28YuKXdhFlEo9AwO72Hi8t0s6Cf9idul5Ui9abdiuJxWBQAgAUACYPx122jd5ejWyTNyV5d19Xq7kjTqyOl8Hp5ID7Fwcn9JbhMA9fRA58YXob/CDOIxfbKujmYRP2UJ1A2+bH3Lr+n9CoVwIa0LAEACgATAmPhRep6jWyavz11dSv01q77/r6VPm9YFpUxHLGy7t+Y2Fgl1jmtxqFJLWswgHlUsxstdTTrP8o63WwOhPlKp5vcTIgAACQASAGPUO5g83dVvJrsra0r5WkDZ008D2XrQrAYWT+fzyLYcW9huH+ruHurIWxwaPbPB9FnX4lDWBplBPCFOvZ9F+7TuIrrCE+qwvnBdndYGACABQAJgq/qlvtfNzwCSw/NShystuz89kOr8GWnbQl9mXRIgVIflLQaVaiN7OvhW9n+ZPTxRsRgv9oW+kcX6TIyB6mqvrg/pGRweoOUBAEgAkAB4tH6F/r2j30j+JC91WJZ2fT/tCf2JmXguXpi+2752m/42bzGoUlf/7tzYUkufxexh63yR/BsL9Bm/jvI6v9H6jy07A+bQCgEAJAByLNsu6GgC4M856qNfsOy0++fOTGJENa1rtw3919wtCKX6uXvX/3F3+3brPFK/ZWE+a58a3VuO1Hu8wViYKLkTrREAQAIgfxb0S73RxfpdFg715aECTf1dZNN37jP1bXSpNtRtX7vVG80ffX5egk+5vHqpg7eQXM+wsn2VMB42bX0TC/LZTji2Nlci9cVymKzu6KguoWUCaGdzzLJ0UWcY7ton1LJKpdkVyGaxUktKlWpa7QubqhSNPK8s4oMG5JOO6Jetd1RE+tGs9At1fFZ8ob7qyfSLf/+/Pak+k/19P/vfRskbzH8eWKrFzy0NDsc9DTWQ/bOLA3FP9u8qhvHyjmq6ZMshVvNIAJAAsJ0v9R/cPBApeYfrdZfFwWxRbdEBgDN61V12QrZ1p8eH8f65iT11lbp3/V/yckaVHfNE+gkW4W13dsXp2ZkcJAMAzIb53d1DO2dvBswEfkVlsPn0Sl2/yxfpGVlmvd0mu4FQd5s/28/Nn+3znozf1FdrPi1LSGSJguVBc7fs0JuCxW90SADkYBIe6c85utXxfNfrriySfa3qc1J9hkXGjhJX6dl5iT1m/Hwr2//zqTPca9dAtu5k4d225wb8qjw4sldnZ7grrRXAVJpbCMOFy5c3d+urjTw1EPoTgVR/dDagSnWfmeycX4nUx/sG42d3lsOVQRAsKhSGFow+CxIAJABmSVdpuOLiNVzmN93kfPJGpJ+yqs+F6b/M5PN5eKuxbWOFvi03CQCpf+NYzNnQzuN5u6nUkpaLY4+DNwrc7IUj/5rtvqXVAhi35cuD3Uphcpgn1BXZm/ws8Oc1+P/9t295Dll50Ez8zvVE+rYVlT0lCQASADNcz9e72Mf2GIh7nK63hj7PqrejgyPlmXw+A6b+7Wu3rQfzEHO6B4Y6XBv/vUb6bkaTcSYxZfo5FtnWzFkf8qW6PztEkJYLYJt668N7m8X+WaN3jUu9gUzvOAJto7XZ/Of6ftm6LxDpVSbgHtsXpmqm3y6QAMhJAiBS33OyjmXi9ETF9M/7ORxtu+badshlFv97o3St6zGnEqVPc+5NqZ+sYDQZZyKoe2jnQOi7mftZN0/dbOrtnrLUx5hqXEhLBnKsFCZP8UT6f4FQt42+0SZITsuprVlCxTzfv/qROqscJa/LPicgAUACYDLK1XhvR68DdPZedS9sKstOR//P2VloqpMt/P72ZNdjjhm/PuhavNnySR/G2xZqayPmd1YnA7JdrHf4UXrqqlVRLy0acF2xuNiL0rebBek1gRhdlPKGf5beGPmydZ8v9Y3mry/2ZPrhngHVIAFAAmAc5pj2c7t79ezuveqe1B+2avt/PT1wNp5Tby1pWfgZwF2uB5xAqktcijUVqb7MMDKJJECYvob5nCM7WIW+1RPpj0rBcEzLBhyRXYHnh+qDppNfYzo797i2dyC+3xf6OrOw+3V/PX1/cbAlSACQANhmXTf0OS6+mVjlr3PyjYT5bWfbVBe9MolmJQFQTVdZeBDgBpdjTamku226vnIspSeQRUaRSZk3+skoczfHruPVt/tCne+FcXYA7ByaOWDZot+L1HsDoX9v2/eUlCdkZu8JGq0rTUA+qyLSgzt3cGURCYD8KEv9OjevM0o+6GgC4GaLYk/2Rnve7DypcKGNsXrXlWs6nY01It6P7f94vOzKuX6h72W+5ugcNLs2W+pfBvXk9SYK7ESLB9pUpdZ8WrZQzBaNBC+Xg7K+1RetX2Wn8ZbC9JmF4NGrXkgA5EdXl9wlu8bKwfb9e9fqqmdweMCmT65MHXxjNp+XiW0/sG5LuYjf72qsMW33GLeuSdPnMYJMjd5oyGdelot553qzvrjAE+m7Vwa6k5YPzLKlS1cv9YQ60pfqCoJUbncKbDATmqtMYD7D5eQPCYCtLZT0Lx1sz3c4l5yV6Vvs+j5av2pWn1eYPse6+CTUbQ7HmStd2llX7l+3mtFj6ngD8T8xF8vX4daBVJeamHd0ltymBwAzmXUNEt8s+k7MtugQkCh5KCQAtjIxd/Bk7myCvspvOXUOgC/VmVb1tVm+1i67ns3G8ysKhb3muxZjur2hPrcODNYbC3zbPPVJgCh5HQdL5/RTVamu9KP0C95AU9ETgOl6MyLWtYJIf5dv+ykkAOCHceDipMsTyUdcqqcth7DaMqHbWCzGi2fzeZXL5Z1snAh3du61q3MLO5H+q2PfNf+RkWOa5qdR8kmSALn/VOB6P9Jf8Ovpk02TmEuvACapJJLYF+r7rp3ES6GQAJj04vJK994qqGtdqZ9yefXSbMukPd9Hq7PaIrkVqQuti1GheoVzSUapv+DU9X+h2p9RYxrbi1AnkgSgPHyjgLrZtIcT/GqTZAAw7sljmKw2wfSbBFQKCQASANuYcJ3gXH1LfY8z9VNPD7RqgdRI3tAWSe8ofoV9h8upi9xLMLaucSiubGDEmIE2E6XfZM5Cedz1gjd4Ufrh4mAs6CHAdqyoRF2+0CcROCgUEgDb40n3DmDKEp4d1TWrHEnQnG7XFs4kbofn1tcnlll5vVwYLnQltrh2wrvpizcyYsxY3PsaL64o2xjff+OH8UFdvlxBTwG2KBaLi716eojpIJsIFBQKCYAxmJNdDencG4NIf8yJibDUV9iUeOkTall7vEYMFtnYbrNPPhxaxB3k1MIj0m9nuJjB5LRIvkQSgLLt8ab1YPbJiD8YJ/QW5Nnc7E73QKobCQwUCgmAcU7UT3Pw+8FbHKiaeUFDP2DR2Qu/baeHZxYPN1n3jXmUPs2ZuCL11xw6/X+T+UmLGC1mVkWqT9p0Bgpl1nbnXNkXjRxQ6KguodcgN4JgTacv9KkEAQqFBMCEYkikXurg24H1ttdLuR7vbdcb0vSI9mrX8dvtm8im/+1MXJH6BncWGJrt/7OVBAjVf2Rve5nHUHZ8TkfrQS9K3lOqDlfoOXDZvHKY7GsG2fvp+BQKCYCJ6uioLulv6A2unQPQ1eVb/Y1gJVJftuuzi1Z7bcXMblCwbAtx9uc1f/L5tseUUv9IzanT/+vqBEaKWezKtXi/QOi7mctQxhpHsxej2VXH9B44ZUnP4B5BpH5ER6dQSABMhX6pf+xcnQt1tNVvUBv691Z9vx6uW9luSXIbtw/3DA7vYXs88UR6qEOLiYd6e904VNRmPY3hAV+oPzGfoYyz/569qppWTROaQy+C3Zn1KE5Mg76Xjk2hkACYssWmSA9xb+BX91tdJ1LfZc/WS/WXtkxsCfvGysrAcMP+eKK+49AC4iZGiLaxwJfqJxwOSJnAZzzn94m1HokA2Gh+OVLH0pEpFBIAU/7Grtbsd21Slb39zd4CW5notW0LdZR+vB2fY0W2PmldAsD8ma1PAFh4AON2Dhj7PiNEm7WvSL3XtLGNzG0oE0gE/LjLT7hCEJYIw11NsPsjnZdCIQEwjZP2S137DnBXS+8KrsjkozY965JI4nZ8jt3dYZ+F5wDcY3McqVSb0qUYUgzjYUaH9tMXNkN2w1Im8YngiYVCeSd6EtpWcTAW2YnWdFgKhQTAdPJF8gH3Bvn0GBvrol+2LrPqu3XZLLbxs7TuBHGbzwHwhH63QzHkVkaGdrb/PK/R+iFzHMrED69Vb6Qfof0m5GF8sC81d6BSKCQApj/e1EdSBw8A2liw8Ju/wCw8LHrG69v5GZtneZdt7bYs4kF7E4nqLGcWB1Kfy8jQ/rIdSJwLQJn4jQHq9mBwOKYnoT2y6JH6bnb6LB2UQiEBMEPm+FLd4VrdF4vxYpsqIbuW0abJ7MNbKdt4LJX669a127o63NYgYtrubc4sDkS8P8OCJaTcxaXDJykzf2aQaT8/Mi1pAZ0JszeACnUB2UwKhQTALLy9O961uu+qDldsqoNypN5k1ff/1eaT2/p51tIR+xaerctsjB+9Js66Mncxv+Nu85PmMirYlcTuC9fVs3M0mPdQJnh70N1BLX4lXQkzv/hv6KtY/FMoJABmZ+dRso9zdR+pY62qA6EutOn5rorW9bb/W2m7ztHJ5gCeN7S7dQnESH/Moa3Bv2BEsFW4sBzGBzGXpkyw7z/kS/WzrB3RlzDtOqrpEl/qG+l8FAoJgFlbKAXBbkHDrXNHzEB+n01v8iz7/v9vhbD9J0mmTf/VtnZbikZq1sUPoc9zKHH4JkYEu3X5coWpxy+SCKBMcO5wuy/i/ehJmNYg1c+WJQqFBEA7TOIj/T3n6t+et6lz+hv23G9tyx3pfpT+wLrJZz090LrYIfVdTsQMqTd0doa7Mho4MqZlnwUIdT5zIcoEyqYgSr9CL8KU22Mg7rHxlGIKhQSAm7ww/RfX6r/XTyIbnn0pip9r1XOt2fF2pBSNPM++cwBGD6SyRiVMtUNbgH/DSOCevvpI6sv0l8yJKOO+KUC2Ll62zNudXoQp0V1LSr7Ud9DBKBQSAO2iPDhSdvCu309a8abasivUigNxjyXNen72Vteyt9CbbLrBwiysPufMhD9KP8xI4HAioDby1ECq3zE3oowzEXBvWcRPogdhkov/NaXs+xI6FYVCAqD9JvOtix0buK040TuwLCFs0wI1sPCMnYpMq/Y8X/VbVw4Aq9SSEqOA+0r15pN9mZ7NHIkyzhcKb6T3YEKyb/7NIHMDHYlCIQHQlgkAM8C51gZWBms6238R1XrQmj4l1e9satNepM61cKL5XEse7xxXrl4LGvr3jAD5UpbpSCDUf/nSrQNwKdMZm/WnTNOZT+/B2Cch3tDuvlAX0YEoFBIA7aoSNaVzbaA6vLadn3mx2pQ2nVZdqo+8yqqkllAHWTfJFPokK+Y1YuSpDp3+/xlGgHwqDjR6PJEcGUh1M/MmyhgOwT2tUC7vRM/BjoNLMV7sS/tOI6ZQSADkznwzuDn1iZIn0k+3+QL1RKu2p1eaXVa16I7qkqDRsuoNX9DQd5o/+by237kSqZNdiRNFOdIk/Od9S0B5Jy/SrwuE+jnzJ8r2rwrUZ2bXuNNpsD1zzATvBDoMhUICwIpdAFJ93KlzAIRq63MAzPhg1Rbq7u6hnW1r04FsWXcOQKnaqljwXC935Pv/64n8eKze2trIi9QXA2HfGSKUmUoCqHNJAmA7k7v0NXQUCoUEgC2yZ+bcdYDVdFW7Joj7G3qjRVvTb7KxTQdS/cK2NlsO42e0+WOdFzT0/Y68zTuJyI9tmBtE6QEm9p1lFnwPMK+iPC55+FOSAHiC7O7R7GRZOgmFQgLAFsuD5m5mUbrJpXbQFzZVW44RfWKZTd//99eTd1qZAIjSt1v4dumodn6mpWh4H2cm8XX1z0R+jMH8skgON33zgsC260Up07nL8Ec23YyDadYZrlvZLzXX/c18Nu5vvtDrzbO/zfz1n0y50vz1RWZB80vzn+d6Iv2hJ/Q3TIf9kifUp81/Hj1aZPohP1IffPj/To8x/3+fN+ULvtRfz0q/0Gf4UXq2+e9+Zv76V+bfcaH568vM//6P2fZBU24KZOsuBgUSAE7sXGro092KC+ln2/I51/W7bHqOneFeK21sz6v8db22JePNuPOHto4RIv1vhz4RmkfUx/gUF3uN9G2jc8Fszsl8K+9XBJ5c4HYAZIOJmWxwx+j0LfI3mvLXbIJkyi/NROTzZREf1Duwbl0haO4225W/bJm3e0//utXlMNm3HMVv8qPkWDNInB40Wr8LGvoPpvzZ/PWdNm39JQGQL6Vq+mS3Tu3VbXkOQBbHrIq9QbDI1jZtnvUttrXb7EVC2z7PRutaR+YT3yTiY5IWelK9PpDqt4EZa5h75bNURPpRukLOmQHlCDrDlA3O67OrWcwE/mJPph8eXeQXCnOcaSuBLJaiZB8vit9ufud3ze+8ypQbs0HE/PZNtAESALMhO+ndubYQpn1t9ZCHhhZY9Qyl3mBz7M2Sxda1Wan/qU0f59xAth50IS6U6+mBRHxMaawJR56Z7RY1Med2qz7xokw+CVDXr6YH5HXibNmdzu1X9MbR7fuRPtOrJfsU2vj07plQHGyJShgf7An1DV/oG0zbuvPhpAhtjATANCenhBsnfD+yCyBMntJOz7ejWl1iVTI20p+1uT379fSj1k0mpT6iHZ+lV28+35EXDJuWt8GuQbhrVWVt1Y/Sb2WfBNt2HSllYp8h91aH19Ly82euqfyr6QTj6yzZoj8Q6pagHv97oTC0gGa0Y0u6Bzq8KH6FL9IzzMByd9DQ2em07BggATB1k3zR+len2oNQJ7RVgqWWvNSmOL2iX3k2t+eeMFltW+I0iNTP2jKZItQ5bsw/Wj8i0mOmdHXJXSpRclS/bN3LfM3l6wH17Z1huCstPlcTZvVpGv84DuuT6v6+avMltJwpzDYHa9cEdfVpM0G7Nzv0KnvOed4tQAJgEgumoFl0a1Bu3Vdooy3sgVC/tuj5bSo48OmViYV32NZuu7uHdm6/59i6yZFvdg8m0mOWzPGFfrUpj8zVWBs4tMZpqB/SxHOiN0j8oKHZ3rPjhf9DXpR+MTtBlVYz7eYWwnBhKVi7piL0cebZ30sCAONpP6585/v30hslfls8WdMvbZrwZTuMXGjQ/RaeA+DXR9K2e46OHGDbXUlKhHm0gfmlevPJQaQuZZ3gzkvOIEqPoGnngC+tepszG53hgVI9eT0L/1lWLC7u7h7qqETqpYFQ55MAwPZU6un7nWoPUfzstuiGYbzcrkVo679daM9e1PqMdYfURckb2yom1NRL3dgRpH9NhEdbztEG4kHTPk+27epSyhNvLGublw6YpsV/lL6Z7TvbGmTVfX4teVGhYO/1UU4LgkXlMH4GCQBsTXc41OdUe5Dqi20xZlRbT7Fqq3QtaTmRAAjjf7KwzX6nrYYMoX/jxq0g8duI8Ghr5fJOJvaWzDzmI9lcmjWFjUkA9VsasrvmBA19Kw398VtGW5v7I/Wmzk4Owmj7MSYcaZIAwNbnH+WdnIpLQt1daINv2X2hTrPo+r+NDjXpeYHU91v2FuneQjudXdFo3enE9X9hspoID4vM766tKZWj9LVm/LiOdYY9nwJ4kf4QzddBpiOeQCN//Fv/9Fu91XQVrYMEAAkAF2Jc+m2n7umtptXZnsiZRfUGi5K5d7nUns2EzLo32JW6arRNAsWBq8wCs4AqOHCoJXJrToeZY5fDZF9f6p+x7mj3JHrrvu6BoQ6arUM6Ozt3zSqWBv73Rq7u8yP1XAZWEgAkANyxMlhXdyoBIOL9Z/N5ZhMBqxK6kTrXrQSA+qJ1SXWRvLo9xor4ICfeykXph4nscEXP4PAe5UG1lyfS/+Rz5LY9c+SntFSn3ozpM2jYj3zrf+aKStRFqyABQALALdk1ZE7FKqFPmtXJWrjXapueV6kev9il9mxiwvMtHF9Pbo85j7rCiXGhkSoiO9wcsId27gubyhPq6EDqu1iftM9n0aVa81k0UAf09YllgWytp2GbwVTod2fXWtEqSACQAHA02SndmPhvWUzdXsiuyJytZxmpoyx6XpvMH9mp2J6dS5Oda2DXlnX9p3Z4di7Mecyi6J7s8FuiOnJgTnbWRSVK32JiyGWsV2Z97nEtTdKFtwiR+i6HW+iHTGA5gNZAAoAEgOttJNnXpXbRFzbD2ZqQ+ULfYtEBgLe52J7N2HWxdZ+u1Gb9zvpFLlxL5gt1PBEdeVT09wz87DMeoc7KkrssymfjQED1Jlqi3dPhnYKGXScJT8fJxL0DLK5IAJAAyIUwXOjSt4WVunrZbDzG7FtNy64w+p2LzdmX6sv27bRL/3VWx4la/CYn+n6UPo2AjrxbUWl2BZF6aRDpb/oy3+uZGU6q307rs1hF6JNyvvi/u1hr9tMSSACQAMiNOVnSz53rAPUps/EQs50HVj2nMDnMyQRAmPybdbEsSj87y0mTP9vf9/Wmcnn1UsI58KjsnB9f6P2ycTG79YWF+jTH8jB9G63OUnk++T+7Q7nbG+qjFZAAIAGQL2bQerdDcSzb2j5vpp9hIJLDbPrEa0nP8B5uxrxwpW3b2X2pL5y9J7bXfBe2/wdCnU4kB7Y3SAWLylH6wkCkp2Y3e7Fgn6ZzSGDhxEHY9+ZgKk+xLIZxQCsgAUACIJcWurAIeHRLdSxm+gH6Ql1o0TO61el5bqN1lW3j7/KgudtsPKtiMV7uwidAFan+mTAOjFW4sBwm/+ZLfbYpm1m8T2FCN1QH0b4sYzrBnbk98C+Mh2kBJABIAOQ5/rnzRsAsxmd0AM4Wb5a9Lb3E5bbsCfVVC8+umJUFrBelb3ehz/dW01VEcWAiWcBwuRn/jwpk63KXzgOazXPUaFQW2XXlmk6X3oCNZ/Hvr1aH0wJIAJAAyLcgSr/pUALgtJl8dn2hDu3aIZF8xOkEgExeZ+EW9qNnpd9Li26u2HZ//zURHJiCsaw6kvpSnRlweOCkbgRYFcRraE2W8IU+J5cHVgj1Q2qfBAAJAKwIhnxXsv9bzgGYO1PPrhImL7FqclJJqy635Uo1rdp3j3Tr/2b6OWUHhDlx9WeUvIQIDkyhLrlLJUo+acaL69kVMJF4rv5CI7KCG4fgTODgoZupe8cTALXmCAkAjFW/1Pe40j7KYbJ6pp6b19DfsygBcEce2rL5nTfadYWUuq8ww4dX9gTNogt9vVQdrhC9gelKcMf7B0Jdnsd10mQS7Z2d4a60njbnDcYifxkuvSm7torad5tfH0lJAGDM7SVSFzmT4IzUG2fmqYULs0Pc7NkurS/OSQLAuk9a+sJUzWx/Tz7owOn/2YuMOURvYHr1VdemgdCXBQ0ODRzbVbv6aFpNu096Rfrr3G39l+o71HwOMrciaZEAwFj1ypHnuJIM9YX69oz0Mcu2m5vnckIuEvsiPcS6CWNdv28GH9Ecs3i+2/qdPnV9KJEbmDndA0ODvlSXsCNgx6VQGFpAi2nXhuzIN3DjzJjfRs3nJLklk6eQAMB4BA03Dv/xpb59Rhaag/GzrTotPUx1LhIAUbrWwm2jP5ip51Mur17qxpVbXF8MzIa+IK0HUt3CGQHbLh29VW4naVcrTQPO23cpZcGp/3lRiZKnkwDAuBIAUl/jzGcAg82haX9ekfqiRQcT3ZevBKhdV1sGsnXTjCVIas1+B5J8m7MznIjawOwpV+O9bfoMbkbnqY3WKbSQdp0gROq0nCUArqHWc9S+w2RfEgAY18JApG9z6JaTt057HxP6dosWmJfkKv4J9X3bEvQ9nhqYkURfQ3/CgXM+jiJiA21hnhemH2bR/8SYXgiCRTSPdhOGC3P3DUuUvpaKz49SXb2YBADGaYF5vpvc+NxJf29a33ysHinbtWBKv56vBH/6ZvveGKnDZuDRzLFtd8TWSrHW7CdcA20Uc/1kRXbTDIv/x8SpgbiHltFmyuG6lTnLRN1QmMG7sTH7KvX0VSQAMF6BbF3ryF2803oOQLmu97bqurQofV6u4p9MtYXj9HdnYpLuQv/OznAiWgNtZ74ftT7I2QAPl0o9eQdNos14YfLyXH2LIpIjqfWcZWMj9UYSABh3bBTqRGfaSZSunbZEiVBH2nPPvN5o/sgL85XlL++UfSduWQLg6ul+LMUwHrb/JqP0W0RqoH319K9bbcadDbn/DECoW2kNbSYQ+hf5efvfetDzhnan1nO2kIvUe0gAYNwD9+DwgDuDb/ruaUuwNfTvLVpYXpbTcf6nVrXXRmtzsRgun+YE3/HWb6utNiWRGmhvKyrNLl/om/KeBDBzqj1oDW3zYmCvnfL0/b+ZVPyQWs9hAkCoT5MAwET0N/Rf3EgATE/sWxms6bRpi6MfqVy+MQ0ifYR9d9unB07jI5nnC/u//+8Mw12J0oAFOqpLAplenOtzAAZjQUNoEz2yWczVFpQoeSm1nsPJr0hPJQGACbUdqc90oq1IPS3nAPhh8hS7doGlr8xpEvSpFt5e8Y3peh5+1Oq1fz6T/pYIDdikuNgX+oL8ngOgOAegbZqiiJ+Uo8P/7sm+haTW88eX+mwSAJiIvvrIP7vSVnqnoa14oT3XJWa73VauXNOZy2R/z/Ae9u3Y05dOW7+O0qdZf7hnmDyFCA3YpatL7hIIfVUeEwB+pC6lBbTLwkikx+UoAXAmNZ5P/UJdTgIAEzQ3kK07nWgrMv3QVD+coKHOsWgM+GOeG7LXUL+zbMxeb/7Y86YnKay+zOn/AGbDqmhdr4lvN+cxCdDZyWdLbZIAyE8WyhfqcGo8p+3cgbueSQDMavv5mRvnAOhzpvK5FIvFxYFFpxt7Qn0n1+04Sj5o3TkA1XjvqX8SQwtsHxOyxYP5IXOIzoCdApHEQUM/kLcEQKk6XKH2Z1mxGC/OVaOLRmrUev6Uy6uXOn2tJQmAaecJfSjnAGxlAjOYxHZ9U64PzXUsrMd7W3gOwIlT3p9rzX775zPqFURmwPK5RZS+PW8JAOasbSBPBwBuyZYjh/xaEhFMMRlLy6uXBo7c41sJ4+Ep61tCH2zZFUQDuU76D8Q91rVZoS+a6udQiuLnWj6feSjbxUBkBuwXOLLDcOxnl8QHU+uzrFJXjdw0OKl/QI3nUzlM9iUBgCkYpH/rRixUR01ZAkCqb1m0aLqRVpwlbdR1li1275zqZ+AJ9V+W9+H7Cmz/B5zQFzbDPH0KEIj0FGp9tie0UXpAfracqI9Q4/nkzPZtEgCz3I7U0W7shlI/n6JHMrdf6tssOgPm+7Ti7BwAdax1t1fUkmjqnkC4MDtc0O4JtDqSlgw4FJelfXF5EmcRXUaNz/aEVuoP5yYBINWLqfGcJrqE/v/s3QecHVXZ+PEnPUAoCalks7u3bHb33jt3CSHZvXdm1qAUxYIoxYaCBUUF5G954bWsBWmBJOzuLUERBJRXRKULKKLYQCyANCnSO4QUkuzuLfM/s4lSQ7bcvXfOzO/7+TyfBSxkZ55z5jxnzpzTwwQARj9LvySuCoeyDz6HWlOZ62HG9doE1vw6WSzSEOt4h34b+JqnV2zc05IytF/+P28eu/8DPuLuVaXGqusC8kl2Sf3KE7nrtSyM2qwrgzIBMD++tI07HtQJAOt6JgBQkVxK2g/4IWcaY1b7aK9FKGF+Qq/fuaOdDBapb7LCGp7gc1vF2nAi/RHN356tJ4sB/wknzO8GpiZrWbo7d7yGIm16fQs44gdmm12MRqNTuOPB1JTsfIwJAFSkz0za5/vkG7ye0T8/7B9o9MbBLZr4ZnqLcbq9aVL375nKTeJZV+jddtM/JYUB/5kfba9Tfd1AEOqyUGu6gTteM4snBWgDwKe438E0I9q+C0eqoGITABoun95GQfW3URdSRuf9Gh1/+Guy92VhwzxPs3wt19cb00f7ezc2Nk5VuVDQuN2WGxv3bCSDAZ+OMQzzJ8Goyyq5rwuGZd7CxTODMwFg3codD6aQke5kAgCVpAbha30wATCqndUXNC/aQ6s2kjC/S+a+rCGRfqd2/ZxhfmHUEx+qr9R7NWPnWrIX8PGYNWm9Oxj7AJgd3O1avQGImfWBmQAw7Mu44wGdTU2aX2YCAJWdobd+4Yt9AJIj3wcgkjAP12q5YcLcj8x9xfO/xVqo4bfvo1610phIH6P5CR5/JnsBP2ucGoTPAFR//hbuda1SzEi1BGgC4HzueFAnAOyLmQBAJUU12/zuTTZWWz3iAtKwejX6BKwo7AHzGosnqftf0mzVytOjbrsabwjrLv+vS3QsI3cBn0/QJu1LfT9uNcwDudM10tCWWhSgTwBWcccDWqwlrX8yAYBKmjGjfRc/HAeoCuM7Rz6xZv2Vt6a69432ZXrlrF0Y1S9cl9pBt0mP10wArCNrgSD0zf54yfCm/VnC/gh3ulYTAIlUOigTAFHD/hZ3PIBmLZvmnjfq+wmuWOrTwpmq1S6efueDfQBGVFDU1dXtEG3rLOqz/N8+g4x9vfqYfYhuOduQ6HjfSH9f3feDiSatO8lawP9036tkaPvypD7Ona5VghnWvoGZAEja/8sdD57GWPqgoOR4XSw1gztexf4zZp7og36x3BjrGPY+AJGY9Xat9jow7IPI2DfIYQ33AQgbndePYszzP1q32Vj6KLIW8L+ZzebOvp8AaE1/ljtdI6F4MHaa3LrU9cvc8SDmuNkTlByf37J0d+54FSeXFvpjD5VI3Dxv2O0qYZ6h0+84d+6iWWTs681JJnfSbxd8+5mR/r5NRudN+u7+b29Uv8IEshYIBnfPE19PACSt47nLtSqOkvot/xvFJwAncMcD2YH+LSg57h7ryR2vrkjSulf/vtF6YNjtyrB/q80ERxvLpt80hw37j3qtWuncPJLfc0Z0cN+OgrZtNWnfTbYCQRq/Wr/x9wSAfQx3uVYTAAnriOBMAFj/jzseLLvEYjPcTaOCkuNzozZvOassbFinaZ87SXvDCCYA1mkzAZCwu8nUNxsHpD6h1wSAXZ7X0r54+L9nen/Nd8z+BtkKBGh8kbAyvl6ZHTc/xl2u1cx/3P5UcI4BtL7CHQ9a56n3ec/D3+isfQ53vcoz9C2pt/hhH4C6mDXkfQBCsdRSrfr+hHk4mbptCxLpiHbP84T9g2GPdxLWyRpP0hWmhxfvSrYCQarRrK/5e8xqHsZdrlVyJexj2QQQvi3ODOu3QZoAqFuYms9dr7pJqm9Zo/95vPaFQ55YM+xvaLVrfPPSEGm6be7SeA13w39+2OOdpH2LxhMA95KpQLCEfF6jhVtS7+Iu12wCIH1ccCYAzFO440Ea1Ebd7z03B2kCIBwz67nzNehHDfs8/ftH6/EhT6wl7V9qNPH7GBk6hBxus+/38z4A7gkpOn//H01YGbIUCNzY4khfj1kNa1/ucq2SK2Z+OjifANg93PHgcL+XDFLx70a9YYW587WYSLUO1n4CYMsO40OcAOh8TKPC6VwydCg5bH5Zt89WpkWSs4f6+zUaqffq/InO/PDShWQpELB+OWl/wNefAMRMm7vM7FI13hj8kDseHFHN3mhV5kzVzibufPXV+WSzyXB8yZLt/a7zWtMNbkGizwDD/ggZOoT+UsN9AKJJ65tDH0hbZ2s8dnmIDAWCOAFgfdTPY9aGpL0Xd7lGwnHrg4FZAZDsvIY7HgyNbfYBQSv+BzvT1g4601oVUIZ1nQ82Sv3JdgcksbRW3yTWx8w42bl9eu4DYD859IG0fZu27TJhXkyGAgGs0RL2Z3y9AiBpNnOXa6QhYb4vQJsA/pU7HpBZU8O6NYgTABEj9V7ufo360lj6KB8cB/jC9tuWfZk+R7/a69UfeQLZOSTj1L19QbOcLag/9/jt/WLz5i2eqZ7/JW0nduPmPqQnEMCxbNz6qp/HrPOj7XXc5RrR/VzcYe4B8CR33P/qI+2Lo22dxUBOACSs48iA2tDxKLXXTwB09m3v91SF1L/0+f7fvpTMHMZgM2ku1+3beJHFO27v9wob5oc0fnHxDJkJBLRPTtg5X+9bVW9M5y7XSDhmWgFaAVASaZzKXfd7h2ndFsTif8uOqqkVZEDtuEd16Z5DC5rNvbf5C86KTdNpJ/VwzDqKrBy6+S1LF2q3hLQ19dHtTloZ1rnajlsM63IyEwjoeNawrvZtTdbWWRRZPIm7XKsJgIS5d6B2SY+1x7jrPu4smztMnZd6VuCN5y/Jgpo+rL+i/14p1s+2+fvF27XakTjKnhjDMisWm6Zhvt62/QkA+25tJ3WT1gfJTCCoLxX0OXFnBH33vdzhWg5Yk+lEkAqkUCx9CHfdz52l/URQi/+tHeoTZEHtRFvtvXxwWsrmbT8vzIs12s+gMG/e9peH41XGq+vWr1vOiiybuK1fKBRKzNHp1IrXrFrcyBsyIKATsrOWTfP5ePUC7nItJwBiqWiwlkib3+Ku+1Mokf5ikIv/oQyGMeYmqkH7Bs1zyN1YbdwbTnAkO/+p0akvvyYdhy9s2BfqlrMzm82dt/lcSNqf1Hj5/3VkJBDQFwpJ/V8ovPmeVWn2rKqlxtiSuYFaIp20f8pd96O6HaJtnZuYAOh0Ghv33I18qOFEVJvZrf2DuWWvxW/wq41TRfVL2kz2xtOfJRuHzz1KVLc35g3N294lXxXRP9H3DRkDZCCwk7Ex88N+HqsuiC21ucs15C6RDNgEwAPcdf+JGPb9FP//2RQr3UBG1DAX45bpgxNTLnvdZLFhv0Wvz71SS8nGEYjFJus2ARA2rJ9vewLAfkDXTYvr6mIzSEggoGOJhP09P49VGxIdrdzlWs8yGdZLQSqQ5rcs3Z277h/1MetQCv9XFD6J9iRZUcP+NLx4V12/OX71pySvPl89Ylh5nY6HqzcsjhcamfGRpF3UMF8nvPYXqWtLzdd4+f+fSEUgwBMASXsNtRjGNskM69aAbQT4Ee66X0Sn6DhYHdNZ1Xj7+8mLmvep2h/dU1eX2uFVExtJ6x8aTQDcQRaOoldN2Ddod8KP8frzpMMJ63h9V+GYXycTgWByj+P1+QaAL3GXvfCwN8wLg1QguZsccdd9YaJO3yRXbYLLsLtJjdoKtaT3134iqWVp6pW/U1PSfkGbPj6ROoksHMXgs2Wxdvk7N7oo9vqJOPsqXdvfHs17N5OJQEBfIiStk30+AfBj7rIXBqsx8/MB2wfg39x1H0xcJazrKPjfaOlo5/1kR81n7/fw0z4AC6KLIzp91sD3/xXoX9s6tVpZFY2bK173OyTtR7Vsf4Z9FxkIBLn/tR7396eq5mHcZQ9oaEmnAjYBUK5vsRZz5zWetDJSn6fY33Z+z4otm0aW1PgBnrTv0zqPVAH4nyMlw4b9Lc32wZhDBo52AGpv1OuNkr32lX/+emPvsLuRnqaD4zPIQCCYIkb6IN+PUxPpCHfaA8Jt1sKgFUnhhJnlzutpfmzpW3Ud2FXt++1YKkqm1HiSKq7v+eMvf1e9ZSM91d7+ps8KGPtJ9UceRwaOclyQ0GfPh//ma/3LGz9GE/b/6ns+dipNBgIBnXw1/L+6dWazuTN32gPmRNKzA/eWtM1+mDuvnwY1MGpK2gMU+dv5fnthxzvIltpqbOlo1D6Ptp6vHk3aT+tTPJnLyb6KvIU6UruJ/ZalC18eRNs3arr7vzuBNYEMBII5xlX1SdHfb//Nv3OnvWOiKqoKgVsFYLQfyK3XR2hhaqka1G2mwB9CERS3VpMxte9XI0l7k+77AMyaNWuaTt+DN7aaHaReRUzWbR+ASFv6i/+dAEjaT2k5LknarE4EgjrxmrSv9f0Lqlj6KO60p2b77V8Hb7M0+7fceU1mRWOpRdFk5waK+yHn9nPCMuja96sJ+wy9c8ku6LZJrLsBI5lXGaqIXqfXhJU1uHneHqG9m3XatPJVv0PMZPUWEEDqWfueIHzeWrcwNZ+77aXEM6zPBa9QsgfcjYK4+95WHzOtaNJaR2E/zEKITVZqLtza3qT/ppLWv/XZPX3wbGGWT1fsxYB1r275OiPavks4YX5Xz6Ox7I1Sl9qBzAMCZ2LUsO8PwibV0Wh0CrfbQxa07p0I5FJpw7qGu+9dDa3mgarD2EhBP4Kl0AnzcDKotubNW7wjuVjNCQDzfLKughNYRupE7XbQbzabI4b9Fz0nADp/RNYBQexrzd6AbMB+IXfbY9xjk4J5ZFpnX11sL3ZM92KHGE99MMqGf6MYTJrXkkW1FzGsq8nHam1a2L4PGVfJCayFM3VbkqoG0h9uStrPa3n8Xyx9CFkHBEt9zH5bUDa3rmvds4k77j0T1YN+czALJfsWbr+3NCas46OGxVF/o1xqxbdWHphcXZhaSj7y/b+uosnOF/WaALDu0fNkos7i3OiiWWSch8YhbUsPCCfN70aNzp80JTsvDRv2RRHDPD0aNz8ZjqeXqP/KJK4SRmNWbMlcnU7ZGXU/x/J/b4okrQuCWig1tKYOJgO8YNnESNzuoZip0GcAsdSnyalaP+Bj08jF6hRQIrHJZFylJwDsf5FfVXkR8SuyzRvmNy3ZM5q0HhjCPXsxYpjnhGKmrf5n47lyGKbJEcO6LTifXJv0cV5VH7fMwD6Ak/YLInVsvlND8xYunhk2rF8xGKzooPJeBiYemFw1rIfJx7H+ttC6jkwbg9xNWMvJrypM1sbNj5FttbdHcmQnSEQM++FQLH3sHpElC7iKGOK44FeBetHavDTEXfdwARboYsmwfk0W1GjGfeHSNtVBPMZAcAwKoy1LFVFDja3m4eTiGBdQran3kmljMC5oXNyi65F6OkV9EycS1VwsNlnl+qbRrkSKJMyLVZ/fIRzFi22IJq2fBmyldR8vozxt2cRo2+g6P91nqBoNlkxXW6jV/KR7JCODwDHKa8NeSZbVVl1dagdycYwncCPp2WTaGA1W2zrXkmNjetTmnWSZB8YisfQhlX2pZD/ZEEt9aJe62AyuLrYar2qNK4LWx4Xi6a9y6z0ukkidEfCHcWFBZO8EmTD25rcs3T2StH/NAHCsPwOwXpI5yZ3IuFo/9Dv7yMcxXAHQ2DiVNBujcUHSupccG8vd/83Pk2U1N879pn+MXi6VIon02QsS6QiXOcgap0YM89Yg1lXcew3MDiXm8EDuLLAb7xh3g9HUW9R1folcq9bnLekjybraCifNU8jFMcrvhHUXGTaGuWtY55JnY7j8P2bGybIaj0ka99ytSsfz/n3BwiVLpI49p4JkTjI9O2pYzwdyhZPB81kP0egUvvfbEju3LN2dhKis3dRDNpowf0d+VX0VwN/IvpqbTN86VgVU6mjSa+wsiJk2eTZmffMLwrfiNecemVvtT04jcfPbs0Ptc7j/Pu8/w0uWBPjT6tKODYvnkQW6zPYnrOt5MG89R70uxbdblTEhkjQ/5nYG5FaNiqR4h0ka1nh+1bA3k4tjsNFlePGuZNfYakqyYmtMxhnx1LfIrtprjFnttVuhZz9QH0u9jVUBvjMpapjnBHv1qf0YaaCRnWbF5vKm6uVJgHnzFs8kK0ZunrG4panNLpBPNX/TdAHZWOPJ1aR1DblY+XBXrpFdYzx5ley8h1yrfDTEUovIrtoLxTve7ZFNe38Xbm1vEnZM11pdZK+oqh/6g14/RaPtHWSDXibwpvbVS1g4v3L4ZjXG5rq74DKZ5JUJALs4nTelNR8UkIsV7p/bOteSWdWYADAvJd/GYoDM5JUXNCRSH/dUXrR1FsMJ86o9IksWcHe06imnRAzrV4x7B/P4SfJBQ42G/QMe0K8Me6Ax1n4QmbF9C6KJSDRh388kkgeXSsesb5KhNR4etNkbycVK5nS6i6wae5FE6mDyrcKTsnHze2SWNzQlzM949QWUio0Ro/OaeYnOVu6UZ40Lx+0VQX/r/6rcbUm9hbTQ0xQKuNd3xGHD+pGwNOuNZ9AN88CoYT/qzlyTL57N4WeEDYdqW0gZHKlWyTdlUm9MJ6uqYgKD28rGgoXpJaQVEwDDWhmQtNerZ8g/G+Lt7+eueaNfjCTTZ7r3hT7tVTv//5PU0PlNlWE/SyK/4aYWT9UttJeSISKzYrFpYcN0Zz2fZcmTNkemHUfm1k59rOMw8rBiy/+L7gCMrKrSmCBp/4u8Y/NKJgC8MRkQSVobo232w5G4eX5DYi9WB1RRXV1sRtiwfhxNWuvoy163YrowL5RuIEt0fti3pPcnkbfZ+Q5EDOsXM2ZEdwnijGfIsD6nOr5/quvArub67QVwL71bTY2LJjtpNxXph62NpFP1qAHv5eRdxc6Dv5aMYgKgwhsIPqf6xL+HY/Y35kfb67irldfYah7uXuOmZGcf/dg2JjYN60oyxR8z/sxuvXkx9WI4YWalLuXv41tisWmNhvWVyJaOj+OgNI9QwjyM3q12Iob9KHlYkVhNNlVxAiBhfZycq0w0GnwfywTAmH8u8HSkzb4lYpg9jVu+x+bz1RG+DFXX8KqoYT9P37WdSNovzIi270LW+OOBv4qkHtKbqOcjhvWDxsYlc31z72PtVtRInxtJ2ne4Kx64z76auLqF3q12QnHz2+Th6Ae4M1uWLiSbqqe+3pjO3kCViXkLOV6YCYBqF2fWS5Gk9c+I0flzNbY/fkHr3gnu/Bup26ExaR+jitlf83nrMF8uxczPkz/+MUk1gg0k9lAHpZ19UcP+bSiRPkKz2dZxDbHOReFEukv9DjdEDet5Oj1/b2gZak130r3VhvvpkPudHLk4qjcN/WRSDd6GJe0Hyb9Rb5B1N5nEBIBHxgIbVdwZMeyrwoZ1WkM8/f55MbM+SPd+VmzJ3IiRPlL9/pdE2+y73COT6adGtD/aX+hJ/NYxGub5JPeIvsda32RYV4eT9jENDYvneemezg61z2lImO9THd5Z7oRFJGm9EMBB2IMBXwXwB3q3WhZSnY/RT45qA8C1ZFH1uYUC+Te6qI/Zh5BJTAB4vX9tStq3u+09kjBzkUT6uPrWjn0XNC/aQ+PbPMFd9bC12O+NbHnD/zj3uzIvPxsSHWxE6Ttzkjs1JTtZBTDK5arhpHmP6nAuDhv2CaHYUltmNu881rduWiQ5uyGZfmskYR8bTloZVfReT4c3WPzeV19vTVcPt18EeQf1BiOdooOrDXcHYfrG0Ww0ZF5OFtUgb+PmF8i/0S7/X8byfyYAdB4/bYoa9oNq/PRHNab8acQwu1V/fGIkaX4slEjvH0q0J+fOtWdJtVfBzojuMr9l6cKG2NK3hhOpj7uf2qk/23lqzHuDigeiSYtjTMfudKmT6UV8O1g1LyTJx2Ri4DH3TWzYsC9SP88IJcwvheLWRyOt9nsjcXOfcDy9pL6lfXF9zIy70dDasZf7z8Ix01IPrP1CsfQhoXj6U43x9FdUQXFqJNl5/uCspmHfzbmk27zmT9fFUlE3r91rGvC9K/5M71YbdS0pg89sRjHgUIM8sqgG7wOal4bI29EUT9YaYTM2JgAC8uIraljrVDyiCvE7VO7/Xo05fql+/iza1nlROGF9X41Ve9TfL3fHv+qfnRZps7/9yhj8Z+o/U2PbVRHDyqufP1T/m0vUz2vU//8f1D/7p/r7R1Vwsk7tVtPeTJ/ma6kdVGNbQ7ITmn83vMGdPHllZqsHyK+CvBdAfbzDpH+rDXX9n6Fdjihv+f6/tnnLstkRn8BifZEMYgKAIHzyLF4fZjPeAKwCSJjfJeEJjTuqvlDcevdr87o+tiTQqwDcGXR6t9pwV+vQNkcUz5E9tczbzmvIwZFFXSw1gwxiAoAgfPEpXiJ9DL1HYGb+2biK0LL4LzbGzY9tI63HhZPWzUFeptcYtw+gd6u+ULN9CO1zBDmbsNjAspYTAHHra+ThiFagDajLN5EMYgKAIHyw9P8Seo4grQIwzA9zDjCh2zL3xoR1/Jvl9byFqZag70VB71YT45rYq2Mky6iPIHVqp6GtcxF5OJKNsswc2cMEAEH4YC+Te+fMSe5EzxG02X+DZauERqcvJMyThpTXCfuWIF+rRiN9JL1bDfrTZLDzbgRRUJdtMplT87xlT6BhPovmzl00i8xhAoAgdN9LKxprj9FrBNCCBeYe6mG2kYZAeH+psH3KUPN6j8iSBcG+XvYT9G7VFzWs/6GtDquQeoas8cIEQHA3Tx3h0WlFddkmkDlMABCEzitqo7H0IfQYARaOm9/iKCDC22/+h178/zevk3Zw9wJo6yzKrFnT6N2qa7fGPXdrarMLtNshL6P+O1njgQmAhHUy+TiczbLMG8gaD+ezkfo0eUoQ2+3HTqK3gEST1p9oEIQXi/9I3Pz2SHK6ri42I9gnAqS/Qs9Wi7608w7aLseoaZWzLdYy8nEYE9LhNo7K8rCGWOpD5CpBvEnxb1g/oqfAlmJpYdt89WDbTMMgPDXQSqa7Rvlm6w/B3dXVvouerQbFVMLK0H6H1r53nt+yOxnjCRPco1XJy6HkbWcf6eLxCYB4+z7kKkFs89l7q2om4+kp8HKxFLOO5lMAwjPH2SXMz4y6GItGp0QMK5gnXSTt5+nVqi+0cGkb/eiQ2vizZIuHnv9J6ybycigrq8z7yRZvWxBdHCFXCeKN+i/7mbq6uh3oJfA67rIQGglR+2+D33JwxXK6zbwooPsAvEiPVqNVAG32w7Tj7U5Q3U6meGkCwDydvBzC0tk90+8kW7yey+nZ5CpBvG7SfcO8eYt3pIfAtkyKGvb9NBaiZkfYtbZ3VDqpVbHRH8AC6wW6sxoNQA37/2jL2/tExTqNTPGOhkT6neTldgfQm8kU75sVi00jXwnilS+E7E0zZzbvTO+ANxVqXdSgHnQDNBqi2keSzF6QiIzNyhb7W8E7qsq6id6sVhMA6YNo028e8xIdrWSKt4omtw8mN9/0GcXxqtr0wRarsAhiy8uggenhxbvSK2BonWcs9XYaDlG9YtXeNDuUmDOWOR1t61wbpGvaEEu/lZ6sZtxN1dbRtlmdohOVs38jP99kdVoifRxZoodwa/qz5CzBpKW9geIfIxkMfJIGRIz99/7WA9Onj30HtSDW8Z7AbM5GgVX7SdSkdTXte5v7U/yDDPFg0WTYZ5Gf2+xT+9UlmkSW6CHoxwATRCRpPlRXl2LDP4zI+JCR/g4NiRi774DNy1WeTalaUWZYDwSi44+bH6P7qvEEasI+hja+jY3UElaeDPHgBEAy/X7yc5vH/z1GhmhlXDRpPUPuEgHdY+dm1QYm0w1gFBZPCifsC2lQRIXfABajsfT/q3Y2h5rNZvXvL/h81vdP9Fu1t3PL0t3dPKe9v9FS6o5lZIj3LGhetAf5uY1JK8NeQYboJdSa7uRIViJwfVXSPs99gUsPgAq8yopOCSesn9OwiAp9k7RuQSK9f63SOWKYl/l31tf+96xZsWl0Wh7pOg3rT7T5121O+RKDEw/nbNL+F3n6+gnrhQsXzyQ7tDM+YthPkcNEQKIQjlufpdmjshobp0aS9rU0MGJUg3/Duq0ulorWNpnn7agGuU/78No+Mj/aXkdn5R1hw/4G7f5131LfRmZ4egIgS56+btKa5f+amhNJzm5q41Qrwv8v1upbzf1o8RijOYDGqVHD+i2NjRjhTv85dyLJE7ncmnqvn468iiY7/zmzedEe9FLeUteSMmj7r1sB8EMyw7sicfsD5OlrN6o1LyYz9BVKmPs1tdkFcpnw6crPu93PW2npGGOLJ4Xj1uU0OmI4O9JHY+Zhnns7mzQv98nM76Uyb/GO9E1efaNq3UM/8Irv/2Opt5MVHi6WtuyTQq6+3L+W3Yk8MkPzvDasQ92THMhpwk99U8Swzxd2+kcVjVeJdwGbqxBDmJn8Xag13eDFJA6Hw7uqP9+T+k6sWM83stu/99+oGhYnqbw8YFmvLskEssLbz3c1qHyBfP3P9//2E6SET/rimPkO9cxfT14TPnixtiFk2J+iVaNGA1uzx0/LqImKDpo2hRP2SeLxzb4aDPNAHb8PDBvWlQ2ti+fRC3nfgtZ0gsnS/+5TcSMZ4X2qSOLkn/8u/7d+Tkb4x/yWpQvdJdPkNqHvc9S+vTGW3pPWjJpqTHQcx7Iq4jXf+P5tXmKvVm0mspLW2RqtqHiu0UgfSc+j22Sp/Rf6BnfiqvpHf2L4QrH0IeTr4IqVUkM0tYiM8J0J4aT1fTV2ZXNAQqf+qF+NV5er/J1IE4Y3BgvGEves1TU0UI73ChvmN0S/Jb7jo0nr7xpsonjtnEh6Nj2OfhrarI8zeOncvFvjnruRDd63oHnRHqzuGzz+736ywb/Crda+EcO+n/EbocHz854FCXNvWi08Z04yOVt1pHfQUIP6rb/155kN+i5Jd48mVIO9tV791j8Utz5KL6OvWbFl04L+7akqKK8lE/Sh+vQrA79iJdH5TTLB98aFEtbJvMQiPPrc3BiOW2e5G7DTVOFpkbh5vkpajlsJzrdIT4ZiqUN9kbtG+qCox5YERgzrt428NfXH26aE1RXwb6kPJgs0mgBIpPcP+MB7rUhsMpkQDDNnNu+s+qgfupurMbYjPDL++/OsxthcWie04X4/6Nm3qUSlCv/NqqD5gfhsR+9QPP01jww+X2xsNQ+nN/GPxtiSudFkZ19ATwNhKbV2Fk9y9xwJ8OA7Tw4Ez9yoPSuatK6JttkbGesRNRr/PVHfau5Ha4SeZi2b1pS0fs93hH77zt8uNhnWzeLjTUjUwO8XNR54/q2xsXEqnYgPJ0cT9peD2G80xqyjufv6qY9Zhwb2uMo5yZ3IgOCaEW3fRT2Lf+TmAmM/ogp9Ttl9cRpJml9W6TeOFgjtNcTMD7mbw9HA9d8NOWpYD8xILqvzf9ZGp7i/aw02Udy4oLnjPfQaPlaX2qHJsJ4P2Oagd3LjtTVR9YXPBG0gHkpaX+XW4z9tIBQb3CPgRY5zJcboxdrGcNxcQVODDzVOjSas61kNoOdgKGJYT86N2bEgZez8lqW7V2vTtsFrTJEUGOGEuXdQ+sJoW2exwUinuOsaT4fGzHiQCh/V79/MXccbmavaghoPPeL2a4wPiVG/8U/afZG4tZqWBd+bFzPrVcI/S+PX58z5UHxpW1DztaF5aagK17nQYJgH0jsES6jN/kgQ+pBQm/VF7rYvJq0+E4jnXtLeUBdLzeCOY7t9eML6IhteEyNdURtOWl20IgTN+AWxwd3WWQ3g3SP97qoLtzcJ3yFJQ2vHXmP4rf+t6l/B0S4BFWnp+JjPd/0/mbvso3w1zHP8ftyWexwsdxrDME6mh3cNJe0LGNMSQ+hjNoTjqQ+Kj/fQAoZiSoNhfphOwUvfIZk/mx1qn0Ph/2qNre0dlX0IdPaF4h3v5sqiriVl+G3g6P4+9S2pd9GP+K/YCcfNE/w56W3+cfr0xbtyizFy0SlzW/ZsjBj2+XwiQLx6Mtz+Y7hl6ULx2alZwOjMm7djuM36OLOntRqsWxtD8fSnduOs+TcVak03RAzrhQo8CG5o5FrjVbMAdTvUxzo/rXsfGDXsPjX4/bzMik3jpvrX/Gh7nXpu3OmT1W73LFiYXsLAHJWdC4hOWRBdHAknrFXu5r6MNQP5tn9zOGGfNG/h4pk0CODNNDZObYib+6gBJHsEVCHChnVlQyy1SGKxySTfUC2bGkqYZ4ywOHo+1JLeX3grim1RbbEukoo2JqzjVT/4R6+/RXKPx3KPzAwl0ke4+2UIn7MEyh6RJQsiRupolQP36rRJoCr671YD82Pmhc169WuM505ijE2a15puaIylj3Rzj/Gnz9/2G9aPQs3tSXcSiNQHhjsXEEvvGU7al7IqoOLLkO4OxexDti7zxwi5S7mibdZ1Qxn0qkLuyUg8/YE5Sc6UxrCN37XemF63MDXffZsUajabGxIdrZHWdKKaUR8z441GqiXc2t40r3VRw+xQQvUfc8hn/NesWbFp7iSQO6lcn7Tf5k4KhZODE1lfD8Xtbzcl7TOqGe7+E6GE+b/1sfSx0XjHu0Ox1NJoIh2ZHmaZP2rLHX+FYqYdTpg5jsj2yQu1pP3r+kT7fu7zmgwHKjIRsGRuJJ76qOokH6KTGfH35vdE2qyjF6jBDxlVWXPUgDfamj4imrQujxr2E9GkPRA1rGfDCet6NQA9LhS33BMUeCsKAABea0Jda3tTfTJ9iBo3XBExLF566XM89s9DreZ+c6OLZpHGwBiqjy2Jh2LpL0aS1gN0QG9+7nY4aV0fSqQ/snVZLgAAALxt8vyFS9sa4x0fcz+vcvdVYVzrlaX99ovqfvTUx1Jvc09+IFWBGljQmk6E4tbnVAd5YyRpF5mNtO8OG9apoYS5HxvMAQAAaG9SY1N6TzXe/Wg4aZ4XNazHKcar9zItkrT+EErYx4biS93VnOzfBHiJu3t92DAPjCTM5aoQ/pvf9w1Qv18hkjRvUQX/aZGYfVBdXdt8sgAAAMDf3M03Q3Hr3SHD/LYaD94QNax1FOyVGVur+EPYsL8RNjr25Xt+QDfNzTs3xNJvjRrmie43Ok1J+wGddih+1ZKjpLUxYth/Ub/H6ohhfrqhJZ2aM4fNtwAAACDj3X0EGhId7wsnrC413r1CxWMU9ds9Avtxt0YIq1rBXT07c2bzzqQS4DeqYdfHTCtkWJ8bPJfVsC9rStq3u8dYeWDWcZPqiO4LG9b1kbgq9JP2l9Wf772RyF5RYckRAAAAhsFdHRttSadCidQnIgnrTPfoZzW+vM/drDhgb/ZLkaR1rzvuDyfMUxparYPdk3XIECDg5sxJzq5vaV8cine8uylhfiZkWN8ZfOOetH+sCvMrooP7DFi3ut/ZR9tU52nYjwxGm/20+mdPD/7cEo9v/eeqg+28oylp3+L+b92dXdU/vyicsLPq57fCifQxkdbUe0OxvZfOncvuoQAAAKiK8fVNVrgxnjogZNifj7gvxZLWz9SY9xb3xC31c6N+hb5dUOPrR9Wf/09qXH5J2LDOisTNj81vWrKn+n0ncMsBAAAAAHgDu9Zb0+fH0ns2tqbeG0mkj4u6e04Z9g9Ucf3TaJt1nfr552jCukv9s0fVXz+rYkO0ghtyu2/t3RW6gy/ZtkxK3K4K/N8NnoyQsM51X9S5L9PCreaBdeH2JndSg7sGAAAAAED17NDYuGTuHs17N4ea7WRjq9nhRiRu7hNO2m9rbE69vTGWPigS63iH+/ehmGkP/ndi6T3d073co6tnNpt8iw8AAAAAAAAAAAAAAAAAAAAAAAAAAAAAAAAAAAAAAAAAAAAAAAAAAAAAAAAAAAAAAAAAAAAAAAAAAAAAAAAAAAAAAAAAAAAAAAAAAAAAAAAAAAAAAAAAAAAAAAAAAAAAAAAAAAAAAAAAAAAAAAAAAAAAAAAAAAAAAAAAAAAAAAAAAAAAAAAAAAAAAAAAAAAAAAAAAAAAAAAAAAAAAAAAAAAAAAAAAAAAAAAAAAAAAAAAAAAAAAAAAAAAAAAAAAAAAAAAAAAAAAAAAAAAAAAAAAAAAAAAAAAAAAAAAAAAAAAAAAAAAAAAAAAAAAAAAAAAAAAAAAAAAAAAAAAAAAAAAAAAAAAAAAAAAAAAAAAAAAAAAAAAAAAAAAAAAAAAAAAAAAAAAAAAAAAAAAAAAAAAAAAAAAAAAAAAAAAAAAAAAAAAAAAAAAAAAAAAAAAAAAAAAAAAAAAAAAAAAAAAAAAAAAAAAAAAAAAAAAAAAKADp0umbV4pjQPdssjJil3My4Hq56Eqjirm5DgnJ18t5eW0Uk5WOnnJq5/nqfiRikvVf3bVYOTlhjcM9Z+VsvIzZ7Vcov77F6j/n3PUP+9V/+wM9fdfV399vPp3fKqYkQ8We+Ug9d9fNpCRPZ1VUv9Cl+zC3QEAAAAA4M2K+qNlkrNC5g/kZFEhJweoAvujquj+X1Vw58p5uVwV37eov35YRb8qzh3PRl4G1J/38VJebnVycqn6c68oZuUL6q8/4GRl3/6zJbFuhczgjgMAAAAAfGvNabKrKoKbC6oQLubk46pgPlMVy9e6BbMqnEueLuwrHKW8rHMnNdTP89S1+GIxLwc5vbKXc4bMJVMAAAAAAJ7niIxzumVWf17aCjl5lypyT1ZxYzknm4JU4I9yFcGaUl5+6eTkK05G9lfR+vRy2YnsAgAAAADUxI1dMlEV+3VOVjqKOfmSKlh/Vc5T6I/RpECplJdbShk5Uf11alNGFriTLWQhAAAAAKCinC4Z72Rk7kCv7FXMyAmq0L9RRZHivHahrv86Jy/d6q/bnZzMZkIAAAAAADCSgn+iW/AXMmKVsnLOYLFJ0e3tfQVy8lgpL8e7JySov59EFgMAAAAAXl/wu9/uZ2W6u1N9yT0mbzVv97VeHbBaNpfycsbGFTLfncwhwwEAAAAgyEV/t0zZuFLmqUKxu5wL1i78Ads/4MViRj7jdMmOZD0AAAAABKXo75LJqhg8spyXZyiOA/iZQEYuvlPlAC0BAAAAAPxY9HfLlFKv/K8q+je6u8lTCHOiQCkvv6ZlAAAAAIAPbOiWWaro/4Eq+tergq9A4Uu8wURAfykrp9BaAAAAAEAz7vL+Uk6+6+Tk6TKb+BFDi3I5J4/QegAAAABAA8WcfFoV/veU89JHQUuMdKPAx06QHWhNAAAAAOAxA92ySBX9Nw0u8aeAJSpxdKC7MSQbBAIAAABA7TmXyIRSRk528nKfu3SbopWo+CkBeTmelgYAAAAANdLfIy2lrFxWzss6ilRirDcGdJbLTrQ6AAAAAKiiYq8cqAqym3jbT1Q1smLT+gAAAABgjP31aJmkCv9Pl3NyD8UoUZPPAHJyLS0RAAAAAMaIu+y6lJGvlPLyEEUoUePPAErq546jTuquLhlfzMp71f/hGU5OLlE/ryzn5AL182tORvZR/5JJNH0AAAAAgSr8c/IVVRc9SfFJeCX6MhIdeVK7hX9GPqsK/bVveuxATp4pZeUUp1vq6AoAAAAA+NVDXTLVycnnKfwJL0YhI28fWfHfLVNKeblsmP/CzU5WvuWslN3oGgAAAAD4hSMyrtgrh5Xz8iiFJuHZyMnK4Sf3oTKhlJOLR/ovLefkOfUvPuLGZTKRrgIAAACAzgoZ2UfVR/+iwCQ02AfgruEneFb2rcS/vJyTuwcykqbLAAAAAKAb5xxZWMrLFRznR+gSZXcjwC4ZP+Qkv8R9+1/hZS2lnFzp9EiILgQAAACA5wv/FbKDk5eTtu6qTmFJ6BWnya5DTvbNqlAfoz9IcXCjwKxMp0sBAAAA4LnC35FxhV7pLOeln0KS0DaGszm/+h+0j/GShH4nJwc77A8AAAAAwCvF/2qZWcrJdRSQhPZxjiwccuIXemRZNf5QqnGt7ztrGH8wAAAAAKh04X+oTCh2y+EUjoRfor9HjCE3gIGsdFTzD1fKye3OmTKTrgcAAABANa0/RXZX9cgdFI2EryIri4c+A5aRaC3+kKrhXXR/t0yhGwIAAAAw1opZeS/FIuHTowBTQ58A6JKJ5bwUavSHdTcK/A7dEQAAAICxUsrJxRztR/h4BYA9vNmwjJxQ4xmLjcWsHErXBAAAAKBSnuiSHVWtcT9FIuHr+N4wJwCclbKbB/7g5VJOnhzISJquCgAAAMBoOKfLzqW8PESBSPg+emTZsBtIISvv9MIfvpyXkorb+no5MQAAAADACCcA8nIzxSERhChkZJ/hNxBHxpWycr6HNjLoL+fk2vWrOTEAAAAAwNCpumYVhSERmMiNYAXA4CTAJTJBFd43eGxHw42lnJzndMlkujIAAAAAb2agV/ZyXyZSGBKBiXNG8Rm9KrTHq4L7Uq/9UuWcvKD+XCfTpQEAAADYllJerqAoJAK2AmDp6BtORk714lEZ5bw8VczKl+naAAAAALySc6xMcVcQUxQSAYu9KtKAijn5vPo/K3rxlyzn5aFiXj5BNwcAAABgcAIgJwdQDI7sRDZVX71Uysuzbp3l5OWf6q9vfUX8Tv13futGKSfXqb+/5jVx7X//8y3//bvc/x8Vz6jY4MUXy76KrCQr1oiKvfIB9X/a5+FE/Vcxp/6MIuPo8gAAAIAATwDk5TNBKvzcz6RV3KN+75vUz8tVIfjDUkbOdnLyzWJGTlD/nU+qvz5M1XQHqv/MHuiWRc4qaVZRv2G5zH6hS3ZxDh37vdbcWu2502XnjStlnpORqPqzLFax7+CfLSefLuXk66quO2dwckH9Pu5kBIX9sCYAmit6wwq98jZ1E9Z5OvnzcotKpv3p9gAAAICATgBk5f3aFnHu5udb3r7f7Bbz6q/PUQXyySq+on6vowo98h63iHd6xFB1z1xVuE/w9b08U2aq33OJ+v2PKGXk5FJOrlTX5GFWE7xh1Ff8BvSvFkNd9Ke8/su7y1MGeiVF9wcAAAAEbALgdNlZFdCbPFTUl8qr5clSVm4r5+XakvuGPitnqH9+vCrmDx0s6PPS5L6J5+4N8R6vlN0KPfIOVZt+t5yTX6lYzyaAMntsLnaP7KEu8N06XASVEJf3V/JbCAAAAACepwrs3iqtQF6nivf7VPH1B/XzZ6r+yKo40XE/T+6VlNMtdXymXIUJAXWN1fXeT1337ODnEAFcIfBC9xhOID3RJTuqC/tbXS6GaoQX9WUkStMAAAAAglEQqhrg4vJoCsG8bFIF/iPOlg3trlbF5blORk5Sf3/I4Hf03byx9+z93/LZwHnuBoRBmQD469Eyaayv6zjVEC7UZnYlL6VSVr6/OSthmgQAAADgf4VueWcpJ79RxeDTr6sNcvK8in+p+KMqFK9Q/2xVMSvHFDKyj7tRHVdPf3d2yeTBFRl5edDPxb/6HZ+r2kUtuZtS5KWgzS6Zq6Ws/sx51Qk00iQAAACAYLj/WJmy6SxZ4Jwiu3M1gmVwRUhGvqpqwRd8OQmQl99V9YIWc/Jx9S/erNVxGe5EQFbO2bRqDHZLBAAAAAB4ayJgpeym06fsw5gAyFf/YrpnOOZlrYYXq1TKS697jAZNAgAAAAD8TdV/J5X9tVHgcTW5kO739aWcPKvjRdv6acC5LAkCAAAAAH8rZuRTfpkAKPTKfjW7kO65myX3KAx9L2BZ/fnPcbpkGs0CAAAAAPyplJVuP0wA9PdKvKYX0tlyQsDVml/IspOX85xumULTAAAAAAB/UTXfpHJONuo+AeCZfe1KWfmWD2ZU3M0Cf+p0yWSaCAAAAAD4R98Kiepes67NynTPXNBirxzok50V+0tZuc7J8GkAAAAAAPiB0yXjy3np07lWvbFLJnprViUvTT7aYbGvlJebNiyX2TQXAAAAANBbMSMf1LU+LeflXk9e1PVnysxSTtb56KzFfvX7/HFzj4RoMgAAAACgp6eXy04a16XnevbCOl0ytZSVP/loNYB7wQdU3NyflSRNBwAAAAD0svUzgLKO9ai7esHzF7iUle8M7rLvr4mAQjknfylkxKIJAQAAAIA+Bvd707AO7ctIVIsLXMzKh9QfeMBXkwBboljKy61OXvajGQEAAACABvVpjxylY/350iqZo81FdrLSoQrlNT6cBHCjVMrJP5ycHEFzAgAAAADvWrNadtVxlbq7f4FWF3rTaqlXhfKdPp0EGIxSXh51cnIizQoAAAAAvMcRGefkpaRVnZmTDe6fW7+L3SVTyzm52M+TAFvjhVKvnOacLjvTxAAAAADAUxMABc0mAC7V+qKXMnKSbhd9hBsG9qmbldncKw00NQAAAADwwCRAXvq1qitzcpj2F73YKwf5eF+A104ElEp5uWigV/aiuQEAAAAAEwBDjozM9ceFz0milJN/BWIS4OXJgKvVDdy/q0vG0/QAAAAAoMp16Grp06qGPNdHn5Y73bJLKSfXBGoSYMtEwK1OTg5Wv/8UmiAAAAAAVKkGzeszAVB2Tyy4RCb47iaUMtIViH0BXntD8/JsMSOf3bBcZtMUAQAAAGCMJwA0WgFQysqtvr0RhW55p5OXFwO3GuA/GwbmZbmTlTBNEgAAAADGaAJAoz0A3JfFvr4Zm86SBU5OHgzkJMDLxzxc298jhpZnPQIAAAAAEwCViRUyw/83pEumqiL4xiBPAmxdFfBgoVvsx06QHWimAAAAADDKWlNknKq1BrSpCYO0Z1wpI8cHcV+AN4gBJyvHqJ+70mQBAAAAYFQTAEVN6sBi4FaFO6ukuZyXl5gE+O/nAecFYhkIAAAAAFS6vnQGJwBKmmwY/4tg3qRumaJ++Wcc9wgEJgH+MxFwV1+3RByR8TRjAAAAANi+x1bIDprUfOVCt+wb6JtVysv/Ufy/ZlYoJ4ViVo6iKQMAAADAmyusEkuT/eBKbAovg0cF7qvRNxvVjL5STn7kZGQazRoAAAAAXk/VTCfqckw8d2ur9afI7uWcrKHof+MNA9W1uXugW5aSKQAAAADeTF9GosWsfLKUlbNUcXyR+nlOKS8nFTKyj3OoTPDhBMBVWnzynZfbyM5XcM4bPCrwSgr+bUapvFqedGe4yBYAAAAAg3XUl2QnVeRny3l5TNUMG7ezz9qAk5dnVE1x6caVMs8Pv385Jy/qUM8Ve+UIsvUNFLPyMY4K3O7ykbWljFy+sUf2IGMAAACAANZNOTlYFb/3juJz6oFyXv686XSp03by41CZoMvxfzcuk4lk7Tb0Z6RVJeOjFPvbnQgoqPhbsVc+TNYAAAAA/vbc6bJzKScrVC3wRAWPpttcysoZWk4AdMsUTY7/W0/2bu9mnirTVSJeQaE/tCMl3E5AXa/vOytlN7IHAAAA8I9CVt7i5OQ3brE+VvVEKSfXalczLpedtPj+Pyt3kMVDuaEi45yMfHbwWxWK/KGuCiiqxntTMSOHOA7HTAAAAAA6eloVt+7+X+XVck/VCtWc3KjTNepfJUm+//ehgV7ZS124+yjwhx2PqEa80vHJBh8AAACA3znd0qbG8BeU8zXZ3K5cysoPdLlW6jp1afCCtt/p4vv/4TeErExXF+9CivqR7RWgGsc1xawc6sejPwAAAACd3dklk4sZ+UQpLzersXup1hvW9WclqcUEQF7u0qAee5oMH7lxTk4+Xc5LH4X9iCcDHixl5JvOCplPOgEAAAC145wtCVXE5py8t46yU/XW8+7n2J6+dl0yUZPv/68g00epv0cMR4/ZHi9PBAw4Obm0kJN3sSQFAAAAqI7HTpAdBt/25+SWrZt5e3KT8f4VEvf0BEC37KJD3VXIik3WV+KGr5YdVaM5j2K+Ipt9PKnim+4MJJkFAAAAjEH9kpNEKSvduqxmLufkrx6fAKjT4Pi/DWR+hRWz8n51YddRyFdmpk9dyz+419Q9Y5TsAgAAAEZRpHbJLsWMfNAdY2tZH3TJZM9e27x8RoNV13fRCsbi5q+QGaW83EoBX9ndKks5OdvJySIyDAAAABiaG7tk4kBOljruWDovBa1rgoxM8+p1Lmflz55faZ2Rk2gRYze7Nr6UlZVl735Ho22U8/JIsUc+5PTIHmQaAAAA8Ab1iBorFzNyZDknD/qmFjhPdvPitXZPTdDg+g04rKoeewMZ2VMVrE9RuI/ZLpY/dfKyt5eXAwEAAADV8MRq2bGQEauUl2v9OPbfsFxme3KypVtmafAS9UFaSBWpQvU36sKXKNrHKKFXS18pJ992eqXBXX1BxgEAACAI3OPx3DGwGgt3qSJvk6/H/Su9uQJgoFf28vyL07z8kNZSZcWMfFQ1zJco2Md8dushda3f52RlOlkHAAAAXxb+qhguZOWdqr54KDBjfY/uAVDKyiqvb67e3y1ttJoacM/ZdPJyt8PeANWa6bp5oGfwE4GpZB8AAAC0LvpXy6S+MyTi5OTKANYT5b8eLZO8eF/KOVnj8Q3VH6f11HqWKCena78Lp16fCJTVNT933QqZwScCAAAA0KrwXy47Db5lzgf3k2L3k2pP3pszZabnr11OLqcVecDmldKoGvEaVgNUfTJgczErXyADAQAA4NmiX2ScGrMeVeal4eDb//WnyO6evE+9Evf6tXOyYtOivJIwh8qEUkYuoFHXZClMoZyTJwo9cgCZCAAAAC8YWCVLnJzcO3hsG2P2/+zxtdGr90vVcl0ev35P0Kq8OBGQkbSb2DTwGs2KqWtfysk9A2dLmmwEAABANW0+VRpLWblK1QMbWB38+rF631my0LMTADl51ON7ov2cFuZRz50uO6uGfxmNvOYrA9aqhnJ9/0ppJSsBAAAwFjaulHnu0Wxq7PlMkL/tH8L36zd59R46OZnt9etX6Jb9aW0e5m5QV+iRd5VzfOvjkXhadTo/d3dbJTsBAAAwGi90yy6lrJxSzsu/2RB8CEv/s/KC49Gd/10DGVni8U8nnuoSNkDXYyIgI3NV4XkVDd8zqwJKKv6tOuysc5YsIEMBAAAwFDcuk4nFjBxbzskdajzZz9h6yMXrho09soeX762qDZZ7fPXERbRAnSYBulRn0SsfVh1FkU7Ac5sH3um4Rzkul9lkKgAAAF43ls/Jx1UR+yeHfb5GVPz3r5Kkx2u18erP+byXr+NAhv3NtLS5VxrKq+W3dAaenAxwZ3H/UsrJ1zd0yyyyFQAAIKAF/yUywT22r5SXG1Vh+BJj5REf2f1cf7fEPH+/V0vE43XKfbRKnTuUQ7d0KGwQ4ukolFbLP1Sn/x2nR0JkLQAAgM/H6F0yWY3RP+R+uquK/nWMh0e9Y/2tjseX/f9HMSOHePp65uRMWqgfOhlVWA4uJaKD0GHPgJtVfG1Tt9SRuQAAAL4q+g9V47yfqXH5Wsa+lRk7l7Jyxp3q2uqSB+reX+HpY857vXt0IkaglJHjVUPpo8PQplO7uZSTrzqrpJnsBQAA0KzoP0+mqvHcQSp+rAq/NYxvK3vqVrFXDtQqHzIyTeXCgIf3ULiFVuvHjign88ur5VeDMzx0HDqdZfqPUkZO0uHbJgAAgMCOtU+XnYsZOVwVUxc7vOkfm3FxVq7feLoeS/5faaBXUp6+tln5Ai3Yx4o5Oa6ck/V0IlrucPr3Uk5OdDKypyMyjmwGAACoYdG/Wma63/SrMdovWG07pmPgvsExsKbjX/dlnoev78Z1K2QGrdnvnVVOZpfycj2rAbT+TODxUlZOKfSIqdP3TwAAADpzz5ovZuSDaix2pXvcM+PSMR/z3u30yl4654yqu+708Grji2jVAVLMyjHqpj9P56L9ZwLrVGScrOyr/n5XMhsAAKByNq+QcDEvH1Xjrd/zAq1qx/uVVeF8ntMlU7XOnR4JeXz3/7fSwgNmjSoYVWd2uUqAIp2NL2ZJC+p+XlnIyNvV388jwwEAAIbHPVLb6ZaYk5XPqXHVnYwxq77k/9lCVt7ph1xyJ448PMnyb1p7gBUz8j6VBE/S6fgqyu5MdbFXDnLOkgVkOQAAwDaK/i7Z0cnJIjV2OtXJy4uMI2u20d/vnW7ZxS95VcrLL716rYtZ+TItP+Dcb8lVx3eRSogBOiAfzqbm5El1f7+oHmpNziXsGwAAAAJe9J8q052MLCll5Nwy3/PXepz6kroXn/dTfr24UnZT4+6SV1cNq+vNC0JsMeDuMp+Xx+mMfP2pQNE9m3YgK4vXnMa+AQAAIAAFf5eMd1bJnEJW3qMKzr8wJvTIitWsPPDcV2Rn3+VbTg728B5iF9Mj4LXGqcQ4nSNNArOR4L/UvT7cWSEz3O/eSH8AAOCTon+y8wOZVcrIV8os7ffat/4D7icXfs099bud79nrnxGL3gFv3Gl2qw4zJw+x42mgVgdsdDvjDafILOdGmUgrAAAAmo1fp/SfKTF3Y+QyY1hPvvUvZ+Xpp78kO/l44ml8yf2swYsv/vJyH70EtqvYKwd79hsWYsw3YxlYJUsckXG0BAAA4NGCa2IxL0epoutZxm+eftFUKvXKt/yej4W8vM2zm//1ymH0GBiS+7tlSikvV9N5BXOmdvCIwby8VMrKqme7ZBotAgAA1FLfGdKkCv4fqXHKZo601uN4v/WnyO5ByE01Zj7Lo/fAbSc70ntgeJ3t2dJUzrFTauCXbq2WDaWs3FE8Ww5zlznRMgAAwFhS442pqrA6fuvnqRv5RFWjjf4y8nV3lUZQclUV2g95cmXvavk6PQlG1gEfLZNU8fc/fBZAbF3O1aceyE+pB/IF/RlppYUAAIBKGMhKhxpjXKHGGs+o4KhqHTea7pa6QNVJOVnq1cmpzT0SolfB6BJ8lcwp5+XPdHDEazYXWac6/DsHZ3u7ZRYtBQAADGlsuVxmqzFElxpL3OVs2bWft/x6LvcvFTNygnsKQ+ByOC9neHQy5iJ6GFRM4WzZRyXWC3R4xBs8AAqqI3xYPch/qR4ERzrHyhRaDAAAGCyWVIFYzMrRqjj5oxozPKXGDqwu1X9lqPtysD6oOV3Oyf2evC/dEqPHQUU9d7rs7B4fxyYsxHYeCv3qAf8vlSsXF7LyDloOAAABKvgPlQnq+f/OUlZ+qgqlu91Nhhkf+eeT0GJOjvjr0TIpqPk9kJXFXly1osbdN3GiF8ZMf/fguas30RESQ1wh8FIpL7eqnPleISP70zkBAOAfXSLjnYwsKWXkTPXc/4t67q9n/OPL8dxPnZUyL+j5rsazK7x4fwZ6ZG96I4zt7K4q4pysvEd1Bo/SKRLDfIBsKOfk92qgcKrbWTEhAACAXvpXSVI9x7+piqHfqGf6GsY3vh63PVPIyLsZr22hrse9HlyZ8WCQTmBArScCTpNdVdJ9q8yurcRIHyyr5Wk1gLhKxdedXmnnAQMAgLf0rZLmYl6+rMZ7v1TP7ecYvwRk0+esrHQ/AaYFbK17esTw4vL/Qo8s4+6g+jPBPdKiCrhr6CyJCpww8LyTl6udnHy9kBHLCfB3ZgAA1KTQyUirehYfq8Z2Py/n5GnGJ4E72u/2gYwsoSW8mjsh4rkXaTl54X424EZNHxg5OVgl4j10nkQlPxlQHe71Tla+5vTK2x7qkqm0NAAAKjR265Lx7id5xax8QT1zL1NjuRcZfwR3I+diTo5zc4KW8QZtJS93e+7tf6/sx51B7RtHt0wpZeSrbAJDjFEU3E0o3TOECz1ygMq3XWh1AAAMfZw2kJUOVeidUFIFvxqvbWRsEfhwj2a85MUu2Y0Wso120yvxsteW/2+ZrGOlLLxjfa/sXsrKj734rQzhu6Vqt6hO8ORirxzc1y0R9hEAAOC/hcvuhYzso56VJw5u2se+TcSri8j7Czk5gJaynXa0WlZ77u1/t+zLnYEn9Z8tCScvN9PJElVcwvaMih+7Z9WqB9sip0t2pCUCAIJgc04anXPkHaWsnKKehbczLiC2sefSS6WcnEqLGfIEwL899onsOnb+h+epYuzjqhh7nE6XqMGEQKGck98WM3LCQEbSziqZQ4sEAOju6eWyU3+PGOr5dvjgqsu8rOW5T2xvTKTG41etP0V2pwUNsfjPSofH7mO50Ctv485AG6W8nOFu7EYnTNR6lUApJ6vdzVNUxx52v4mkdQIAPFuEiIxzemQP98jcYq8cV87JH7Z+u80znRjqJ5MPqDHPO2lNw6xdcnKpx97+r+FzV+j3EDtUJpeycoW72ygdMuGRCYGSGkz9tZSRr6u/bhscZLG0CgBQq7FSRqapiKpi/0BVgFxQ4uUJMfJYq8bd36BVjUx5tTzppbf/7qkd3BVoy/1OrZyX29zii86Z8OgxhL8sZuQTfWoQtvZUmc7ROACAihf7XTLZ6ZZZ/d3SVnKPvc3JvTyDiQq83BhwX7g9wV5IIzZ44pSXxqU5eYS7An80rpwcoBL6SU4MIDSYEHA3zbmg0C37qwHabGe57EQLBgAMudg/VCa4R9g67mZ9W47i+xvPV6LSb4lVXt3Xt0KitLjRKWXlNx66r8VNp0sddwW+UszIZziPltDwm7rn1AMiW+gR0zlddnbf5NCaAQDuqjFnhezgriAr5uRTpdXyR77bJ8b6RYUaj7yL1lehNux+b++dkxtu447Az7Ntp7izXHTkhMYPYHfZ3dXFXvnwjV0y0XHYrAUAglDwP3aC7LB1V/7reB4S1Xw7rHLuO7TCCrbnnBzmpc85nGPZsBo+91CXTC3l5Cd06IQPwn3bM+BuelnKy++KefnCmv+RXWnlAKC39WfKTHdHftW3/33rxsYFPmckarAS8TrnEtmBFllZ6rre7qF7fA13BMGZfeuRPdzd2engCb99n6cGi33lvKxTnfrfSxn5av+Z0kKLBwBvGuiWDtVfn6n673+rvnu9kxss+Cn2iVoWhQ87q2QOrXNsqHa+2SOrStdxMhWCNwmw5ezblnJOHqTDJ3y+Y2+/ihdVPK4e7NcWs3LMxtNlD3oBAKiO9atlZjEnR5SycpUaeD+m+uY1HFtMeGwn+E39Z0uC1jp21Bjsq5655zn5EncEwZ0I6JLxAxlJDxZIPACIAK0WcDf1UT+fUA/9O9VDKVvIynvu51swABgxtw91TyEq5aVb9at3uMW+6mPX81af8HD0FXvlYN4GV6HmyMsjHtn47z71x2EfKcDt+AoZebd6UBd4GBAB/4zAfTN1v7u3gJOT76p/tr/Deb8A8Moxw45qzOAe3XqqKvRvUn3mvarYf5bNhgmNYkDl7onOaewfVJU+Q13nsgf6B/VnKLsvPrkjwCsbaLdMKWblk+phzkQAQbxy08G8rFED3H+pAcPv1aC3p5iRD25aJfX0GgD86tkumVbolf3cndBV/3et6gdvVz+fKlPoE/p+FlhSz/GeTWfJAlp49ZTycqFH9ni4lrsBbGsiYLXs6mTlC+rnZh4YBPHm5wOrwfADalDxB/VguUj9PHYgI0tuXMZyQgB62NwrDU5ODlaF/nLVn/3SPRvbLfTdYol+nvDRBn8/V2PbZlp8DeqKvKz1wNL/DS+xwSOwfW5DUYOCk93d1Xl4EMSwNhQqqHbzsGo/f1YPnZ+rgfVpxax8SP19wjlUJtC7AKjqAPxUme50y1tUf3S8KoTOU/3TDSruU7GRPpvweeF/g/q5F71AbfT3Snzr8c21zoMu7gYwnIHDSpmnGs4Kdu0liIosQSyq9vSkij+qwfhP1M/Tizk5cqBbFj3BfgMARmjNaYOr9zqKvfJp1a+sHHzjmZe/lfPyDBvxEYEr/PNyc6Fb9qVnqC33PnggF27n5Qsw0omAbomoAcVqNaAY4OFCEGMSRXen3K2bEJ7vfntbzMpRhV552+YVEqYXAoJtU7fUFTKyTzEjnypl5EzVT1zqFvnq5wsU+QQx+Gne31WbOFDY6d0btUPtXx4OqPplKXcCGKU+dyIgK99nIoAgqr56oL+UkwdU+7t+cDIuK19T8TGnVzqd70ldV5eMp4cCNB4su2/xM7Kn+01+MSdfUm2+V8XVKu5mFR5BvOnz8fZiRg53eA56RrFXDqv5xGROzuZOAJWcCDhbmlQhciETAQThmQHQZhUPlvODEwRZ9eD7UjErH3F65W39GWlde6pMp+cCalTcr5ZJjrvhXq+kVDs9ZOv3+Gerv/7Z1o33NtCPEcSw99y5x8nKUSzx9lh/JzJu8Gjl2i79f8hZLjtxN4CxmAjolYVqEHMJxwcShAaRkxfVQ/Hv7vfB7t4exZx8XrXdw93PDAY3KVwtMx2WTgLDG+weLZM2ZWSBc47sWcjLfqotHaHa1dfUz3PVz5vUzydYok8QFY1/Oxn5FIW/R/vEbtmlln1e2f13Z+Wd3AlgrCcCMhJVA51fDH5vw4OJILReSVDKyV2lvFzhvqEs5uSLKj7g9MgBqpBZ6k76qYf7LLfooeeDrwexXTLZOUPmqtxvUe0iVeiRdxUz8gnVLk4u5+Ri1UZuUX/9PP0GQVTtG/9H3dUzLPX3tlJWemu86//53AWgmgOmFTJfdc6Xlfk0gCD8HmVVBD3juLv85raeaJCVY9xZdxW20y1tqnAKrT9TZj7UJVPpHeGRon6qo3LSzU2Vp8nBXM3Ju5yMfFY9u5aXs/JT9fd/VX9NYU8QXnnW5OUR9Xz5Mj2YJhOntZ0ketxZKbtxJ4AacI8kKrsrAvLSx8OLIAhVVPUPnnKQk1tUcfVjdxfzwdUF7kZBGbGcXtmr333TukrqBwu01bIjnyNgewPNF7tkN5U/c53vqYLe/YylW5aqn8uKGfmgii+5+2GUsnJFOSd3qPxbS1skCH0Kf9Vm/03hr5f+LZ8T1uw0pUKPLOMuADV2/7EyxR18qUa5kYcZQRDDfZi7s/nlLZMGV6r4fikj31UF3ucHJw7cExB6ZS8VcXdjUvXfr9+4UuY5K2SGu/mPu/EavbCHC3h3Yzz3PmVlurNK5gxO/rifk3VLbMDdDb9XUmrwf6iKL6j/zvLSlmX37jf17maXTC4ThB+X+W8t/FU7P5JeUj+qb76lZkv/s3IKdwDw0kDvUJngvvVTHcN6HnAEQVTzHGA1KHjS3Wldxe8GN0DMyjmDBWVeTlLF5dHFjBxSyMj+A1tXIfTlpWlwibi7sdtqmacGorOd78uMtW6h6m5ulJFpTpfs6JwnUweLWNW/+W21wuAuzl0y0TlWpjgrZIfB39k9ps69Br2y++A1ca/N96Rus7pWg9dstbSo/3xxoUcOcI/kKvXK59S1/oaKlWpAf6H6ebW6/v9w7wcbxxIE8ZoouTu3qz75/YyaNX1uuJPvtfvu/4E7u2QydwHwqK2bg7AUkyAIP36rulYNRJ5S8bDq6+5QP3+v4tqtmyr+SMVFg8vSX44eFaf+J1Rh/W3188T/hLv81d1b4b/RK59UxfVnXvXPtsSXX/m/2xrfHPz/zcoZW/9d3xv8M2TlMvXzqq1/tt9v/XPe435nW95ydFORe0kQRJU2ni25n4c5vbIfI2S9FfPyiRrlUMFdOcYdAHSYKczICeXc4NnHHI9EEARBEAQRpMI/J48XsvIWRsT6u7FLJpbzsrkmuZSVT3IHAN1mDHvl4+pBsJGJAIIgCIIgCJ8v9c/JA31nSBMjYP8YPCK4Fkv/8/I7rj6g62oAkXHuLPDW5ac8IAmCIAiCIHwUqvD/o3vKC6Ne/3E3aa36hpFblv7vwtUHdJ8I6JLx/WdKi5OTf/CwJAiCIAiC0L7w/9HaU2U6o1yfjt3djWFXS6naedWfkVauPuCnzsSRcZtWSX05P3iEIA9QgiAIgiAInSIrX3txpezGqNbfir1ycLVzq5iRj3LlAT9PBqyQ+aWsnMXDlCAIgiAIwrvhbgSnCsLDns3INEawweCeelPl7/6vdVcMc+WBYEwEzHCyckw5X/1lRgRBEARBEMQ2d/V/pNAjy5xjZQoj1gCNzXslXtUJppysUcX/ZK48ELTOpkumFjLy9nJeHuWhSxAEQRAEUaPv+/Ny/UCv7OVu5swINZBv/8+uYr6V2UQSgBRyYjo5+Y3DEYIEQRAEQRDVeNu/qZSVU5yzOcov0C/ksjJd5UJflfKuOJCRPbnqAF7uhDLSWsrJiip2RARBEARBEEEq/B9X461Pubu+M/KEyodDqpR7paLKO644gDfujM6UmU5Ojivl+DyAIAiCIAiiAsv8f6fGVu9yjpZJjDTxHyovbq9K/uUkw9UGsP2JAPWQco8lKWXlTzy8CYIgCIIghvW2v18VXvmBrCxmVInXjbNzsqhKxf8NXG0AwzbQLUtVB/I99TDbyEOdIAiCIAhi27v5lzLyVZb5YzsTACuqkIv/vHGZTORqAxixdStkRikr/1PKy3085AmCIAiCILa+ac3Kr52MHML56thu8b9adi2P8Uu1Uk4efu502ZmrDaAyHZd6uBWy8h7VuVzH6QEEQRAEQQT02/7n1VioZ9NZsoDRIYaqmJMjxjQ3c/L05l5p4Er///buBcay+i7g+G8fvGnpLg+Fsn0sKCIUKRVsqSXU0paEamqTVQlpag0lYFWChtoq3VGrFLowuztzz2Mrtdr4qGsr9hFTSQDpy5QWhEitAmUb5KGVXXYLuzNz7z337/9ctsSQWFl2ZnbmzueTfLOTWVjI3XvP+f3PnAcwJ6Y2xiuaMm7KO8DHDAOSJGnE66c6vp4Xcb9iCuSFGFRx5xy+P7fPbIlXeZWB+TmiWcdl7U4x1xgQJEnSCLWzKWPrTBlnmPh4obqb4zVz9R4d1LErFXGuVxmYdzOT8WODMm7OG6MdBgZJkrRYf9o/2BLf6pdxdVoXK0x47K+mjIk5Wvw/3ZuMt3qFgQMuVfFbqY5/G54yZ5CQJEkLvSq25wXVze0PNExyzJZHx+Lw/L56ag7es7vz4v9tXmFgQZkej5ObMv4u1c4KkCRJC6w6uoMqHugXcXkeW5aZ3Jht/TIunYP37Z5eGRd5dYGFvQEs4uL28SR5w9U1dEiSpAO48H+yKeKv0nisNqExlwZ1/NMsv3+nenW82SsLLBppIo5t7xWw93QojxOUJElzXp47ek0V23qb4jzTGPNheiJOmuX38XSvitd7ZYFFq9eJ8wZVPOJeAZIkaQ5+0t/kpps6rnVDP+ZbU8b62bxcZWbSo/6AUTkr4LI4aHi3XcOKJEmahZoqvpg6cbQpiwNlUMVnZunslW4qYo1XFBi9AwFjsXz3H8Xxead9q8sDJEnSPi767+9ujnPTRBxiquKAnwFQxX37vfivYke6IY7xagKjfzBgQxzRK+MNgzoeMtRIkqT/49Tone1d/FMZq0xPLKgzAPZ3hq3j3lTEkV5JYOkdDKjiuKaM9w6qeNKwI0mSx/c1VWxOnXh5GouVJiUW5BkAdXx9P077vzm/tw/2KgJL+0BA3slPb4pT8k6/yDv/GUOQJElL6BT/Oj7ZLeLs/PXhpiIW/AGAKuoX8j7vV/Fr7WWxXkGA/30wYEMckcp4bd64/vnwLr8GI0mSRm/RX8YteX9/QdoYLzH9sKhm1U6cti8z6qCO3d3J+EmvHMD/Y9d4rM4bzovyhvMWw5IkSYv/Dv79LfH29hJAUw6LWb+M33wel7T0UhnXpLE41CsGsI/2bIqX5Y3tu9J+XHclSZLmtcGgijv7nbhk93i81DTDSJ0JUMVbmzruee57vinjnvyevzRdG8d6lQBmY4M7HmvzhvWKvNG9y3AlSdLCWvTn/fO9w+udizjZ1MLIz6WTcUJ+r5+ZJuLH03VxlFcEYC43ukWc2lTxvtw/t0OHwUuSpPlt8Myi/+7hadFlnGI6AQDmXLeIM5sy1jdV3O1ggCRJc/rIvv6gii81RVyZNsYrTCEAwAHTPlYwDyfrc9/Ig4qnCUiStP+L/pncHf0irkqu6QcAFqI0ESc1Zfx+e3riwKMFJUnal0X/nrzv/ELej75354djlakCAFhMBwNObIr4YFPFl/JQM224kyTpOdf0V7E97yf/vl/EL2/zCDMAYBR8t4gjUzl8msDtqY6dhj5J0lK9c3/eDz6U94ef7E3G21LEMlMCADCy0lisTFVc0lRx66COx91EUJI06tfzD6q4L+/zbpwaj7UmAQBgyep24qymjr/Jg9G29k7HhkVJ0gi0M+/T7uqXcfV/XBWH2dsDADzHUxviuKaIG/LQ9EBuygApSVoktQewH22q+EKviAvt0QEA9lG/iHfkYeprqY4dA5cKSJIWVrvzPuo7eR/1kTQRx9prAwDMkj3tUwXquGlQx448bHUNnpKkeb6Wv8n7oF1NGV/sdeI8e2YAgHlw+/mxsl/GuwdVfLu9uZIbCUqS5uiO/d286N/ZXsuftsYKe2AAgANsx3VxVFPF5jykORAgSdrv6/mbIj4zU8YZ9rAAAAtU+zzlNBaH9op446CMLzszQJL0fH7S35RxW28yfibvQw7PLbdHBQBYbAcEtsRB6aZY3e/EJe0zmA25kqS2vE/4934Zl+Wvj0lb42B7TACAEfPdsThyajzWNlV8sKnjcUOwJC2N8nb/4aaM354ej5O3T8SL7REBAJaWZd+7IY7pTsSr82D4e4M6HjEkS9LILPi/k8pY3y3izNSJo+3yAAB41vD+AZvih7qb49z2mc6DKh41REvSormG/75Uxe92O3FWe1q/vRoAAPt0QGBPEWvaGwrmwfJDqY773VRQkhbA9fvPPJ7vG00R70tFnJ3KWGWvBQDArNq9MY5v7xLd1PGB3NfyINoYxiVpjhf8dexJVXy+X8Tl+ddzkmv4AQCYb2k8Vvc6cV6/E7/RlPHZpo6nDOuStJ/X79exLW9Tt6Qy1qUiTr19LFba4wAAsLAOCKyLFakTp/XLeFeq4mNNFdsM85L0A6pjJm8rb8uL/vW9Mi7aMxEn2psAALA4DwpMxgmpjJ9rnzSQ+4c85D5h6Je0RGvydvDBVMXH83bxim4V52xdFyvsKQAAGEljY7E8jcdpefi9dO9ZAvemOnoWBpJG7UZ97an8efv26aaM9b0i3tJeNmUvAADAkpYui4NSFa/vl3F1Hpb/cu9BgRmLCEmL6EZ9T7Sn8udt2cZ+ERe3N021dQcAgOfh0bE4PJVxQR6o/7Cp43P5128N74RtoSHpwPfooIp/THV0chfv2RQvs9UGAIBZlMZiZXcizklVvL+p4nN58P6Xpo5dFiOS5uin+r1Be0f+9iZ9ZWzK256fTx+OVbbGAABwIA4KRCyb2RRnpCKubOr42zy03zWo4rFUR2MBI+l5Nshtz9uNb+YF/y15oT/WLeLcvIlZZisLAAAL3NZnHkn4pqaMj+TB/iuDLfFgHu537h30LXikpftT/afyrw/lRf6defvwp/nXd+6+Pk6w1QQAgBGzazxW94t4R1NF2dRxT14MPJz7ngMD0sjdhX8qf7YfT3X8a/68fz5/7n91uhM/aisIAABLXOrE0amKX2jK+Gh7w8G8gHgkLxye9IhCaWGfup8X+U/nz+l/5b6dP7t/3a/iPVOT8UpbNQAAYN8ODEQs63bidc2WGGvq+OrehcaTeeEx5T4D0jz1zM34nh5sie3tY0KbIm7olXHBfeviYFspAABg7g8OrIsVvYl4Q1PGtbmv7r22eCrXzTk4IO3LTfjas23qmM6fo91NHY/nz9Sn+0VcvufGWGNrAwAALFhjEctnJuIn+lVc1V5/3LSnKVvkSc8u+PPn4sHclrzI/8VtY3GorQYAADAy0lgszx2cxuOwdH28qFcOzx64Ji+CPjWoYrtFoUaofn5Pt9fkfyIv8N/TLeM1+b1/eJqIQ9ozZ2wNAACApX6AYOVwkbQxXpIXSsd2N8aZ/TLenRdRk7mv7L3EwOJSB7ymjieaIm5pyvhQr4ifTUWsSeOxOr9/j0xb4+D23hk+0QAAAPvhvvYMgol48VMb4rh0Y6yZ3hw/0uvEm/Ni7Mq8KPvooI4vN9XwsYYWqtr3hX0VT+dF/V25P2svX8mL+7ekyXhl/r3jh0/K2BBH3D4WK30SAQAAFogHfj0OGZ5JUMQPDxdwRZyaO7vfiV/Ki7vfyf1JU8cduYc96nDkf1r/cF7Y35Gq+Fj+u76mX8TF7ZMt2vfEVBlr8/vk+HRdHOWO+gAAAEtA+ngcmspYlSbjhDQRJ81UcXp7wCB14k39Kt6Zf+/qpowb80LyL/Ii8tbcNwfV8HGIA4vs+XkMXn7tH8uL+buGN5Ws4o9zf9Av44rc2/Pf1bn57+qs4YGeTry8vYTkPzfEEeFUfAAAAGblwEF7Y8O80ByeHt4ePChj7czGvAit4tX569f2qjg/L0ovbM88aBereQH7geFjE+uYGNTxifz1Z9ufTrennQ+qeGC4yG0vYagX72MUB888zm7n3gX7/bm78+txW/7ep1K7cC9jQ/699+fX5Ir2Dvj5+xfm75/fzYv44c3yNsfp7aUd+XsvHV5XPx6HeacBAAAwugcX1sWKNBaH/vf18aLh2QlVHLdnIk4c/oS7vayhzovkMk7J3z99ZjJelRffZw3rxE+1Bx+erYif7nXivB9U/rNe9+w/3/773/+zcu2f/f3a/970RJw0lf8fdo/nBXr+fxpeatEeBBkb3vxuub85AAAAAAAAAAAAAAAAAAAAAAAAAAAAAAAAAAAAAAAAAAAAAAAAAAAAAAAAAAAAAAAAAAAAAAAAAAAAAAAAAAAAAAAAAAAAAAAAAAAAAAAAAAAAAAAAAAAAAAAAAAAAAAAAAAAAAAAAAAAAAAAAAAAAAAAAAAAAAAAAAAAAAAAAAAAAAAAAAAAAAAAAAAAAAAAAAAAAAAAAAAAAAAAAAAAAAAAAAAAAAAAAAAAAAAAAAAAAAAAAAAAAAAAAAAAAAAAAAAAAAAAAAAAAAAAAAAAAAAAAAAAAAAAAAAAAAAAAAAAAAAAAAAAAAAAAAAAAAAAAAAAAAAAAAAAAAAAAAAAAAAAAAAAAAAAAAAAAAAAAAAAAAAAAAAAAAAAAAAAAAAAAAAAAAAAAAAAAAAAAAAAAAAAAAAAAAAAAAAAAAAAAAAAAAAAAAAAAAAAAAAAAAAAAAAAAAAAAAAAAAAAAAAAAAAAAAAAAAAAAAAAAAAAAAAAAAAAAAAAAAAAAAAAAAAAAAAAAAAAAAAAAAAAAAAAAAAAAAAAAAAAAAAAAAAAAAAAAAAAAAAAAAAAAAAAAAAAAAAAAAAAAAAAAAAAAAAAAAAAAAAAAAAAAAICR8j9A04uYuDb4kgAAAABJRU5ErkJggg==;" parent="1" vertex="1">
          <mxGeometry x="277" y="479.0099999999999" width="62.19" height="54.66" as="geometry" />
        </mxCell>
        <mxCell id="4-L-n2TwKw5mKGtv1cZT-41" value="" style="shape=image;verticalLabelPosition=bottom;labelBackgroundColor=default;verticalAlign=top;aspect=fixed;imageAspect=0;image=data:image/png,iVBORw0KGgoAAAANSUhEUgAAAfQAAADICAYAAAAeGRPoAAAgAElEQVR4nO2de5AdV33nf7/TfR+ShVCMcCRhhK0ZzYyeFjYQL2FZlnUoh2RZ4pgAcSiSzcNJCJsiriSVTVFbFJvsprLAZlnK63IRFhzH2AaTEEKyvOMk4BDHyNJo5s5oJAtjC2OEEXrO3Nt9fvvH3O57+vTp5+2+fR+/T9XM7T6v7/md031+p8/t241EBAzDMAzDjDai6gowDMMwDNM/7NAZhmEYZgxgh84wDMMwYwA7dIZhGIYZA9ihMwzDMMwYwA6dYRiGYcYAdugMwzAMMwawQ2cYhmGYMYAdOsMwDMOMAezQGYZhGGYMYIfOMAzDMGMAO3SGYRiGGQPYoTMMwzDMGMAOnWEYhmHGAHboDMMwDDMGsENnGIZhmDHALrKwmV1T0wDwviLLnDTq9fpH51uLD6VJe/X27Zs3bth4T9l1ygMiAFHVteiRVB8p3bNE4ADAKiKuNhqNC47jfLfT6Ty7adOmM51O5xQRnbYsq31sqSUHVvGCmJ2avouItlVdjyqp1Wp/cGyp9fWq61E0s1PT7yWig1XXo0qklHevnHriM1XXo2oKdehSyi0A8IZAoDeIYncblSjq7qKSVokPlRMXZ9KgmLB+KKKMaL6WNqElRFNK+YbklBHktSNlPqJ1R5qLgWtgoJy1tTUAABBCwMWLlwARABEdx3FOzU5NLwPAEUD4p2aj+ejjx+afylmDgSGlfJ2UdE3fbZWmX9Tz0bSfVHZJGm3oPAsAY+XQr9t/4Eop5e8QUT0y0ZD2R5EaRPLLCbkngkIdupFu45MWRFqc59gJAJAACA3pPZTOVycEpCZGJQ2m1CDtSq5blpc/ZIgSFspnILVGBvQ8hdjhxattrGdJOgG78dT9VPvQ3x4xDQKyEWDacd1pAHg9AsBF56Kc2TW1gohfsCzrr9qd9ldWnnhiNabE6ui3rcBwnOqTZTVzUp6s6fvUQKI3Hjpw4I7DR4+egzHh8uXLtxJRPXBej0h/FK7BlOTQDYMkamHevn6F5TldfYz192MGYF9DuxpPpeGloeAkwR/gQqNfN5tSdiCfTjdPKo0M6Dak1shhB4Y2Eiqm97le1hhoAICQUs4AwIzrur+OiM/O7Jp6qFarfZQQvr7QGp7l+dA5CNp2yrYyNpt+XGntFtnUarqSNQho6+rl1ZsAINVXWsPOnundAohuAzDYPgL9UaQGO/Z1Cr0pzm9UzVmYwqg7u0q9BJh28DXsp9JQHJ/x4MBgmlT6MfkjNfohrUaSHf2cHUl5SfscMw0iukpK+atra2v/2Flr/+Ps1PStB/fui14OrZqsbUXGzdDg7IcZNHSpkHSJGtR1gONAvdHYSUSv8vZHsT+K1GAKdugIENm4pEeRkl7pmMAumTOTscDgLqkBGTW8uQdRuAy1XPIS60aSVpcsGjkp0g5SNnQ7SLNRb8eQOXo4ToyGkJJudF33wcuXL//z3NTuW6/bt7/8r7hi6LutYsohQ3iorO6nPh6jnqBEDdd1X3dg776rYAxYXV19C0kSo9wfRWowZfxsTR0glIEASZtoqVeJynZgGdCUxtv0wjQNTzyklaRhNsPHk9GXKfVlcnWQVNOZ7rA2aeQli0aSHeoyqzHc26duvJbGtABgSjcRGgRAkg46jvPg6urqF/fsnrkeKqLvttLOMzT8RV49eeekoWwypC9Ng2BTe20t/42kQ8KemRlbSvlmgBHvj6I0GAAow6HrU7Ck1tYGFtXZqFdLPnrHmjR07RQaanrfBGVUT3vQYET9UKtTPxoetVqtdA3d84cmWRgMD82c9ZnDBGu4rvvqTqfztdmp6fftn9uzMaKU0ujXDlLs8b4y89tJu7Lyb1jSz0U9n6Y5CA0AeJseNWrU7Np+IjoEACPfH4VoMABQtENXPGVgVuVt641PvXB1HqDfLW7KZuzQuAEqQUN3gqSmAQjcEU8IkUuz3swTlf31O6SzaaSh0+n0pRFlh5+ftLyahn+yKelC3aGVoTKhGnXHcX+r3W5/Y+/M7CvNJZZDIXYoib1TWh98vTDN9EA9AvmiBueSNKSUr9w7M7sTRpi1tbW3BWwe4f4oSoMp2qGrzsIQrQ4UvsOPGkAh3Nd+vOKEUpFTI/QzL+VI0q+GAdbD9IPNK8ekY9TIAHYrkVkjwQ5QysII+7x03qzZdGWrX/WCFjfJGlLKmU6n8+W56d3/eef27YN5YmOfdqjnHQIEfgIXmLAjBO6oRyWTP0FQUSdSA9AgSbbrum8xtMJIcN2BA00p5RvHpT+K0GDWKWcgIQieQOqsn7R9CKZTl1hAz+OVpUwEdA01X1YNAMXXmaaBpm1S8vheHPwDMlB8Go0MEFE+jRR2ULcQvWqB9u3+05pQqZ+SHrW0rAFSUt1xnD/YsPGKT+2bndsKJdO3HdjL500M1PPOt1HVUfKZHgLknzI4WI1Rvtu9vbr2SiLaNU790a8Gs07Rd906APCMOtsngMBVjzKWrBN1ZQDgO6Ooq08vTtXwM6thaTT0crW6o1JpNGUwBwUfapNGA+CSIWkUEgCeyayRYEdUY+vnjdp+ar+SnsnQD6zR03Bc9xVE9OCBvfvednThWFlPnTsDAM1+7VDThs47L46gN+nWB20lv2muOSgNKeVV1+3bP/P4sfllk/wwI6X8caD1cRYAxqI/+tYguGAqctJA4ukNwzAMw4w8/LY1hmEYhhkD2KEzDMMwzBjADp1hGIZhxgB26AzDMAwzBrBDZxiGYZgxgB06wzAMw4wB7NAZhmEYZgxgh84wDMMwYwA7dIZhGIYZAwp99Ov0S66dJoA/8gP0x/RlwZDXf8kIxacLxWXRAAg8Kz5VVbXnCQeKNZQVp7FhQ/Pe+dbiQ2l0X/KiF22u2fWPZNWIwmhHQhmxj3JMo8kamTTsmn1na+X4F7Lm3X3trjulpKvSaKSxo4jnS+rHW5UaiCA3bdr0rsPzR8t69G5uZqam/qN05U8MS1sNp4b8yIlvfvMzubOPCcU+yx1hCwLcooUFPqOeOW6CvGdNKxn0fZOG/rzqVBqgPdddz0fmZwwbXzSgyfsalKwBAP8cX+MATUC4JatGkh3qCxXUMtRm1fvRD1dfxqAlooh0rJFeQ0q5DQAyO3QAuBkBrinKjtBcmMD43gIC8N+Q5WlEfVapAQCwtrb2NQB4f2JLDpDr9u2vA8HvEsHMsLTVMGoAwN9na9nxpNAld4rYVsPUwSFuNhbn+JPyqYNRHIH6qI6dlLzUi/fL1Qz1d7G3rX5m0shB0XYYX68Jwf7wJw+gtbOeKKITWCOfhpTyxj0zswfNKRMowA7VBs+uUH4y2xmloU/Yq9JwXPetEbkrw3Xdl0kpZ/yAIWmr4dPIOXiOGYU6dL8jaH32pDsM77233jYSBHtSje9+EgTTEAV1QhrQC1f1kjRQKy90eCh1VTW8tN5rWVFNA2GbEzVykFkjhR2BP4BQO4OSJzDoK3XRX5mLalmskVdDkJS/ADkowg7fBv1YNR33+jmu5fHK0dNUpUFSHtqze2YOhoh2u/1WgOFrq+HT0DNOJsXfFIe9P3V2Rdj9U9KQktbPq30iBNOor0Qlk4aXTy83QcM7HFApk7pl6nYFXuuqaPrpUTm8vLIwpUYGMLBGmkEjwY7QH2jtrNhGhjDTJxr6nzXyabiu+zNXb9+R7+uyPuxQX//qf2rno3ouqOe4ntb/NJ0/FWkQgA1D9J70lx44uBG8rzCHrK2GUoMp9jt0b6KE6j6E+9SL09MBQPC7aH3SpYWpN1igEhYscH0/ScMPomBWXTdQJQpFr69MhJMEbE3SSItt1wK2ZdFIssMvJ5wspGHqLt8vaF6MNfrXIKIdz9u06TWQ8bv0fu1Qjym9DPVTj/fLpHC0f8x6ZVWs4Ur5swDwbl2mCi5fvvxaKeUO7xwftrYaVo1JpvAld3/m749Syhiizra64b4z8mZc3V7yZ15KHj89BrcDGmo+CMYlafhX9aquejRpcaDZGdhX/tQ2SdTIQKfTzqeRYAeZ4iFYLiqfqKRDNR8ofa73CWv0peFK+ab4o8NMP3ZQVJjheAucA6CFQ9B+b38YNKSUu+Z2z9yYp22Lhohu88aqYWyrodJgAKCk36EjgP8duTeIIXb3QfnD3idAL71XhjpTU/N4d0giGDTUfEpZiRqK96fuHyrhXlq/HqZwpQz1mPXbJY1GDjJr9GFHIB4gsEKCoOhp6f2+R9YoQoOkvPnQgYN1yEg/dqj1Vo8V//hTzyU1DSjhKmp70PBokJRvM7fe4Ng/t+dK13Vv9gOGtK2GRyPv6DlelHuXOxrCvHB1tNA6PfQ7RYJgf6l5MJQ9HJZCQ60benlM8cqOPwaiokk9Oe/P28ikkZK+NCLs8AIDWQ1tCAChu1hDp5XaT6QlYo3cGkS00+04h8IqCfRjhzewRo2d+jkKigYZ4pQowmC6KjWI6Jb9c3uaETUYCI7jvB4Atgx7Ww2LRmTeCaP4u9xVCIwz/8iMSZ9qOeogpB9AXhrDARX1qaf3Z4wxdfbyhKqplBk6FrNopKBvDYMdgYKjJkIU/EvSMM5WWKMvjXan/bqYkgrRADDUN80xG5VGOV8Dx+0QaUgpt3U6ndekqEFpENHbRqGthkWD+h1Ix4Til9z1WX/SzMkb6JRd31dTsMhAeSZnre+raRM01PS+CYq3TDsBxIj6oVanfjTMwiVpaLOFgIbyh5qmv22YXbNGQRoA/zYilZF+7VBX1dT7WnqF98ICv5rQPrXTMRA/RBqVLbvvmZm9Wkr56hFqq+o1GAAo+C53RHQA4TRAt51jBg9MCofeQGLsM1OHphsEjRpqoHH5BiPqHLEdVUaK+AuGGCNSkoOIp7NqZLHDSEw8Rumjlo01+taQUm6Zvuaa5sqpU6sJtQBEfFYI6H3nnsMO9ZwOHUNquLdtGNhN4er+EGkceumBg5u+cfRI6vOxKEjKmwDgOUQclbaqXoNw4P00jBTq0J/3vE1HiOhaIgIiAjR6lC5E3RkXhsIDd77FoF5px4WZtNNqmEDE5CWenBqulE7atN/69unnDu3ff22khqcfV02IaC+lzMS+jMsHAIQICABCCJBSlqqRxY5QfUrQSGuHHwTp+0NKCUcWFtpppBqN+o8KIUQqOxCBpAzZEaibf4cfBrcj7CAiEEKAQATHdf2yqauJpnw5NNRzsx8NYVnw2OOPp2rborEs8bFms/Hnae3wj2N1zFnP6JdZZluZNAQiuN1jqCwN1Y52u5163BxnkL97YBiGYZjRh1+fyjAMwzBjADt0hmEYhhkD2KEzDMMwzBjADp1hGIZhxgB26AzDMAwzBrBDZxiGYZgxgB06wzAMw4wB7NAZhmEYZgwo9ElxZXL9wev2Xrhw4b1V1wMAQAi8t7Wy8lDV9SiTGw4d2nzxwsW7pZTDcIx8avnkiT+ruhL75+aanU7nTiLYXHVdetC58+fP3/7t7363kqeaAQDM7Jr6AADsrEp/ECDCped+8IO3f/fMmYhHC+Znz+6Z17qu+46iyx02Go3GXUcXFz5XdT3GmWEYrFOBiFullLeEIvSXwejRhqeiBh812HvovzmBqS7Wv6Sp8yhjCasppXyDlLK/10jGtWWq5/QCAMFyX3UoCNu27bW19k8S0dZARFo7ksjRVkR0mogKdzJZkK68CRD2+wEJ7RGKztN+FWi84IeuvBsAHs5YSiKu6/6acWwLV2Fk2soUDQCfz1gqk5GRW3I3vrEn1vkawkB5xDmme9T6pD4gN8nuxHZR2jbybUtJGkU4yyLoHjS57UgqP0db2bZ96ZkzZ6p9jjVq9dLtoFByUIPJkJ60/VAxlWhQ4W9gm9s9c5WU8nV6PfQqjF5bmTWYchkph+4fXNT7pO7BRsq+GgdanBrux4GWT983lDkp+Ce71g5Rn6Z+UD/Vsry/JI2hGQy0955mtaOMtpJSPjkQ22OIsskPB0McgLE9wBQ3JBqu675x3+xsfytW4cb7SSLYPG5tZdJgymdkltwBgq/Q0za1V/AEr7pjr8BRGSQx7Dxil+bHGP2lPf57iKG7wgHmtiK17ZVtL49fFoXbMo3GUODZ1IcdRbUVIp7q15x+Ueuo20oAgN1APw0p7aLZZ8wPPadSpQZJ2uq68nUA8Ol8LRWGiG4L1GtM2sqkwZTPSF2hA0BvpCPDthqmpCU9relTdeaGMvyl+Qk5ME2vAFXbB7ufkWmUtKY4Y1tHaQxZm+e2I6YcvYy0GkS0FFvZQaBORrRzzWiHth/ZVso+DomGlPI2KIg9u2eucV33lbpGoL7a/ii1lUmDKZeRcujGsZ3M/jfRB3Sdc2CwpHB5/nSUuhODiTlCKfChB+tLb3qc3inqclygWNMkSdMYljb3q5XTjjLaqtFotDIbUjTdKzCvrwJmKpNqUvYBNLuUQGO6odGgm/fsnrkyqimyIKW8lQia49tW4bxMuYyUQ0eA0NKjFw6wfvCEZpkQ4w/QEInm9H7ZE3Jwkr+urEUobYbeqoWpsbV8gbTe7J7MaXWNYcE3LacdJbSVXFtbO5LLmCLp1lE1J9BW0LPJtw0MfdvNqJ/ngTIq1iCizYj4hoiWyMpt49xWJg2mXEbKoZsu0ZULa+NBE5hZejNK9eqHlBmllr5XcG93UkDDlSQpjU0xYYF8YMivxOthkeUNEXntKLqtEPF0o9F4pii7+iF0g5UaDhA4Uclgl9o2XpifjQx/FWo4jvPWXI2kcGDP3oOu6x4c97YKaTClMlIOnTA4xpF2xUMUDCMA/6YNb9tbHvI+vdkjqTNJVPS0K6qh+QlV2XQ9OultqbQVKJ9+u2Ow3UjdV/pCTx+nMSxO3a9GTjuKbys8Mt9aXC3d8CT0KzHlHFMv4fTzVd/27YfgeehfKQ6JhpTy1Xt2z/T1IJ12u/1mABDj3lYhDaZURsqhY/ef74gBwF+S9A4yNT32PtW7MdUreW+QVvP5EwAlXL0DeTJA5X+0/Wr7IWjthr1ttRzU+ylBY1gaXT+2stpRdFsh4hfzW1MOnk0qoTuhsZfWcwIBX4EQO4erWgMAmgBwa0z2WK583vOEJPrZqu2oQoMpl1H62VobAJ71HXgXdfAMHXTakYYAgZ9koJpGTaukISVfLxNc6teYYYeAJACcAYC6Hhd3bgbiItoUotJEa1yMkRw0ZxAg/GS2dHZEx+Voq3q9/tmEug4EAngOAZ5VwwKTbQjaioodpsmKqRzTyliVGlLKHwOA9xuKS2THi64+tLq6uhG6bTbubeVrAFS/mjTmoP57Y4ZhGIZhRo+RWnJnGIZhGMYMO3SGYRiGGQPYoTMMwzDMGMAOnWEYhmHGAHboDMMwDDMGsENnGIZhmDGAHTrDMAzDjAHs0BmGYRhmDGCHzjAMwzBjwMg8+vWG6w7t/cEPfvCewBMyKfC0TACA3qsmMfiYVy99KE03s/58d/+xsKCU1d22LOu+pRMrDxVr4XDxiutv2Hz27Nk7pZR1rx0D7aejdIyfzvsX8VhUtX9YI1pDCPHM5s2b73j08DfahtIq5cXbt9v1euMDiLjNC9PPO+N5BIqpEXYH2lWLHjYN27ZWlk6s/B4Y2DczN7fWXnvvKNhRpsaGjRvuPrq48DlgSmNkHDoAbAWAWwNHknIA+c8YBvOzhH2nTVpeQ7j/bGOtfEX6G31bM/w0AeAWIGgG2lNtK1h/prMfDhCcHOltraIMJKHnP7OGimPb9k8NozMHAMD1Vb7XA8AuP0y3QbPXG/xRT6NOdCAYHypyyDRc123vnZ370MJS6yktF3Scztuh+zKXYbejTA0AGLqXCY0bI7XkTtpO4J3dhm3SMgb2u3+oRmBEugkmYL5pQqQlJD1Ia0P1JTdql7FGWAMAwLbt/76wvPQZGBE8Owh6beS/Hxs18yiYPliIskvmttI1EFGWrRFjR9113VtAY8e2bTYRvaUgjcx2IKKsqj+MGkypjJRD9/APlO7B4n92w9UBVPHd62Ms9vKqn7ozJyUtaNuTAHktodkceEe80mamMFDa1u8DwzZrhDUAAIQQn129fPk9MAKocxH1TVyhgR+g106onJMQPJ+9eLVdkzRs215AxLNlasTaIeVbd7zwhYEx9Yeev+WVRLSzMI2MdiDiV6vqD6MGUyoj5dARgks7qi/23omuHjfeMpL3Xmkvj15mSMeQdsL8uXqOh8JN7aKnj8tnKoM1tHSIrebGDbedevopB4aZ7sliapfA+Qdh+9UrPT0+VFYKDQA4CwCfKVMjzg6S9LIXvOCFM2rzuK57GwCIojSy2oGI91bVH6Z0TLmMlEMH6M46lamh+vZXVBNpcfoyUtQB5h+gE75OlPetumnaWCXPiT7uGijEmWaz+VNH5ufP5ih2sGgHSqZ2wHztFpenXq/fV7aGKTECgASy253Oz3jBM9PTddd1by1SIwtCiMOdTqdVpkY3GzMkjJxDRwovfxN1xxXvUzvC1Fmn6fsgHfI0tPhJ8vGo3eUSZXtcm8R9D5elrAnTuGQJ8aajiwvpB+IqMRwn/nw7wmA1Xv2KK1QGaeWl0BAoviKEOF2mRpwdUrpvvnbnThsAwBLWzUR0ZdEaGey4FwBklf2hpmHKZ+QcemgWieAvqRNCaEkeIHi1nWZQVe/4VH+mMVmEr7xIiQpMktR0ZN4GTG7DiddAdBqNxu2tleNfSZAYWgJz7Zi2Mi7dkhanLdum0TjaWrgEAA+VqRFnBxHNbdyw8XoAALm+3F64Rko7ZK1e/zhAqRqZ7GDKZ/QcujqFJOXAI+gtxZM5C4By4BmOOmOcdlBPztEaXkjTT+JUbaE6LVO4VsbEaiBI27LuOLbU+rMUtRke9CUu7bwM2B7RVpH72rmeSgMAhBD3hY7eIjXi7RCu6751/9yeLVLK15ekkWiHZVn/cKy1+JQXVll/RGkwpTBSDt3gqwNXQAAZjp/uZVTAiVO4PP9yi8C4nD++UOBDD/baiQhSnfDq1yKBYhFYA0AC4rtbK8f/F4wa3SUs/WdKvnkEgXjjV1jqORWVDpM1PJobNjwqhFguQyONHY7j3uI4zq1S0qayNJLsQMR71bAq+sOkwZTLSDl0b9nHFA6wfvCgFqZvhwsMh5nS+2VPyMFJXisY2sePQvB/XRCIN+QLpCUwP+RnEjUQwLKs31554uQfwghSr9UCy7EAwdMKNfsDvziJaC/9PA+UEaPhcfjokTYAfKIMjVR2AF3tOM57S9WIsQMRV5sbmg9pSQvVyGsHUy4j86Q4KeUlIkq8UYj0DTJExjnlmDS9GSidSarHqEPSdYhomYjq0YliwqKuVpPSGcpTnjRVmkZkWJwGxqRLpyEbjcZ7FpaXHkjIPbSstduyXm+cBKLgk+zMKxHpiciHiED+JWAwDRE96aVrNJr3Xrp0MfSglzQaehqjZjrO5hpzdM0ktPyI+PDho0fPAAAQ0SVCaiX1R+gcS6pjmjRaWiIa/l9tjDiY+qAZAnZu32737lIzjfRdkqaDal71M1QMAiKC67qBu77X1tbkd773PdmPLaPA1du22YgItVoNOo6jfD1hbj9vFUNdKQEtDxH5g5XXpn6Ymk8pu95oQHttrS8N27bBcZxIjTx21BsNcDodf+BNskPXkK4rn/7Od0b+OHrx9u0Co1b7TP1hOGf9Nos7L4lgQ7MJq2trQWfXLdt1XXn62Wf99ty5fXvggiWthl7/DRs3wuVLlwq1I6mtGo0GrK2t5dJodzryme9+19wOhv7wzvH22lrhdqht1W635TMTMG5WyUg5dIZhGIZhzIzUd+gMwzAMw5hhh84wDMMwYwA7dIZhGIYZA9ihMwzDMMwYwA6dYRiGYcYAdugMwzAMMwawQ2cYhmGYMYAdOsMwDMOMASPz6Ncbrjt08NKlS39SdT0AABDx7oXlpT+vuh5l8vKXXr/l4sWL98c++pXpCyJatSzr948ttR6rui552XHVVfbmzc//KCLuqLoulmUdmW8t/qYpbv/snle40v2jQddpECDiyvmLF27/1tNPh57CtvvaXQdt2x6KcbNer7/v8WPzn6m6HuPMyDh0ANjS7nReE/VITjXMtB0VBoayICHOsqzPZ679iIEIdcdxXu1K2UzzXoW4dk6bdxI1XNd99dz07je1Vo5/NkXWocO2LNHpdG5ExF1qeFxb+PZ7TxRNk9aQxhAWOZ41Go3lc+fPHSKiLX1qDMKOTBpCiEdMzhwAwHXdLUT0mmGww7bt+yOimYIYvSV3Mh80GLHth1HYSQfSEQRfjmCKn0Awym79kdeG9JF5WcNPT0QbHcf55N6Z2VvTqQwZ+jsQurZiOMjf1s8/z5kYizcFJmiY+Jcjh88ionHSlEdjEHak1bAs615IYFjsYMpltBw6aQcK9cL8d03rR5KSBkhJp5Xp+3JVg3oHtq8xaZjOUq0dSAsLvC9c6xc/rVoWazTb7fY9M1NTN8OoEXqZiXIOeQO9OlHW27CXLdRmFNGGsRoxIOK9hWgMwo6UGoi4IIkWwtb2GCY7mHIZKYee5n29hIY8Shr08oWL8dOjEuG/27eA+o8WXoPGJCHFjykNpL73299W2zHqu49J1iBoSlfev2927lUxpYwEofNMWz4jJZ0arqcJnIdZNCKwbfthFHi6EI1B2JFCw7Ks+5ZWjse+wWyY7GDKZaQcOmk76iwQDNukZQzsd/8CM1Hdh/HMMmi+6rT0M9owyw9dxYIyy8dgl7EGABBs7nQ6D+6f2zMHI4rXVgS9NvKv3vSBnYLpg4Uou2TuD10jiWNLrQuWsD7Tj8Yg7Mig4di2/YlIg7W8Q2EHUyoj5dA9/AOle7D4n91wdQBVfPf6GIu9vOqn7sxJSQva9iRAXktoNpPXZkqc31ZaGCht6/eBYZs1euVLKbetra19ct/c3FYYIdT5jrpKFhr4AQJXcaikV89nL15t1zQaSQhL3BvIn0NjEHak0eje1d+KMXf47GBKZaQcOkJwWUj1xerSuolqNvIAABybSURBVB+PvbiopXPTcWZKO2H+PHIlU28HbT6UKp+pDNboQUR7O+3O/bPT08P/K5TuyWJql8D5B2H71Ss9PT5UVgqNNNTqtUdQiFN5NQZhR1oNALgvjc3DZAdTLiPl0AG6V0TK1FBdakM1kRanLyNFHWD+ATrx60T5TsE0bdyvyiRoSClfK1AMxe+HY9HWujO1A+Zrt36cw+Pz820EeKBQjUHYEdZooxAP5ZDNopE2GzMkjJxDRwovfxNB7453gtARps46Td8H6ZCnocVPko/XbY2yPa5N4r6Hy1LWpGp0Op1f3Tsz+/PJihWiXRqrX3FFGazGq19xhcogrbwMGnEIIe7zy+lDYxB2RGkIIR5pHV8+GWuooYwq7WDKZ+QcemgWieAvqRNCaEkeIHi1nWZQVe909++e76fOI0n4youUqMAkSU1H5m3A5DZkjZCGaLfbH9w7M3t9guTQEJhrx7SVcemWtDht2TarRhTNZvOIZVmtIjQGYYdJAxFTP6RlWOxgymf4v6PrsWrb9pNVVwIAQAhxtuo6lA6BY9v2k1LKZtVVYeC91+3b/9OPH5tfrboiOq7ryg0b7NOIWPlYIoR4Jk26w/NH5d6Z2Q8j4jvLrlNJrNZqtU+nSWgJsWoNz7h5ruo6jDtIE/m0FIZhGIYZL0ZvyZ1hGIZhmBDs0BmGYRhmDGCHzjAMwzBjADt0hmEYhhkD2KEzDMMwzBjADp1hGIZhxgB26AzDMAwzBrBDZxiGYZgxgB06wzAMw4wBlT+uMS0vPXBw/7lz5/7Y20dEQUSyirpYlvjo8smTH69Ce1DccN2hLefOnbtHSpnpGCmpXx488c1Tf1pwmZnZPzfXXF1d+ygRbe6jGAEAhbTPhuaGd88vLT5aRFl5uXrbNrvRaN4NANuqrAcAgG3bC0snVu7Ik3dm19Rvua77Y0XXyUCu/q/Vau9srRxfyZrv2hfv3C+E8MZN7wKuknGz2Wx+8NhS67NVaE8KI+PQhRBXIuLN6+9PXQ9D9RUBgTdi9PYJlRdfeGm8bFHhKnp6BEAUf9+nOUOPZVl1RLwJAZvGdotpM1TfaGPK4yeE6D4Ipj/ct0EFYNu2jdh+LQBszWVH3Hsmc7RVx+ksAEClDl0IIQDg1Yi4KxTZtYOo+5IjrS388JTpjSh5hBCb8tph2/ZTUsqbkzQGYYeeR1jiKWFbqd6spoOI6+PmMNghxF/msYFJz8gtuRNq290/gu6n8uof6r4dKPA6oKjXBEUdoLrehEDqq5bUz6gwE1F59HbvR6MqirYjR1sR0Wuev3lztedw3LsgvIm33gYJ55qanuLSm/LkBAH/FhGfS1uvwGeK9JntUD6FEA8stFr9X1VXbAdTPiPn0NWrFv0iRh9b1Ase/5OC++o7fg0SxvcDTwIYcwZGtVUonRaZNl/WtIOmDDvytJWUcubFO3ZsSajCQCD1j4KfQFq8lwkNeZXyjGXHaPTDseXWOSHEZ4fBDq0MaVlW6lelmhgGO4btHB5XRsqhE6zP/NSDI3BhgwYnD9oqke6nMHjhA0p6guAEc7ImmaT8D2K6mDROfLQGM+XLolE1Xj37taPAttrkunLOIDtw1MUE7+rMOx/VcyxgJpnzA5jtT9Lo3wi8ZxjsCMZja2F5qa+vVYbBDmYwjJRDBwAAMh8gSQ4AKTwghw5mZaSNO9gnCYyyWwv321QdFFK2WaLGkIwISdWooq1c1z2YLmdJ6Gvd3fpFTUL0SbL3GbVyb2zzBI28ENHDiHg6jcYg7CAAEELcV8RNplXbMSSn8NgzWg5dO8iIegeev01K0u6+lwYpmCdxLUiPm0CnHjLZ0GahdleSBdo6ouA0GkNLRjuKbitEPJCluqXhnWvd5S3VTlTs8s5BgKAtqAYYPv34JI0+WD6xsmpZ1l8MhR3raZ1arfZQ34ZVbYc65jKlMlIOXb8YQIxeekNDGn8ZSN3XL+1DR/U6o+RjigGV/6Fgv60Ium2o9w2E2z5eKV5jFKiiraSUM7kqWxT+bBkC9qK274MQODfVcHWb1DB9jTdJow8sy7p3WOwQQjzWcTqtnKYE61plfyAU1T1MAiPl0ANOVd1Rr3oMV0DGff3PA80ak3pAGq86UyVU+oK0MID1djZcGZgChrHt89gRF567rQCmU1R3sFBwxcG/UQrD5zCpn0q4+kl6fIRGESwsLz2CiKeqtMPTsCzr/qWVlf7vbq/Yjsm7GKqOkXLo3sAeOL6od8CYDhr1LnZU0pHiuL2fuqmDgl6ePjkYd3Qzva8q/PZTOoHIHGbKb9pO0hi2Js9rRyltRbRl/9xcdXe6dy/rAvXs/vO+i/WWZ/1t6LWD7kT0rx1MNkdqFAARSSHExyu1Yz1ulYD6X26v2I4i+4ZJZmQeLOOjLK0nrbaZfptqWlbSl5xMS5/9/s511Ihsk4h0xnCCUBvHambUGDTeWJZ0LAyyrRBxk23XtgDA2RTZSiNquda4ApvCQOO5naBRFLVa7X7XdX8HsHfBM0g7EAAQ8R9ax4+fSlnl+DpU1B9ZNZj+GRmHTiQvEdEyQLlXbN5VfHxdyPwAijFCSukQ0QoR1fsqqJjO+m4hpfSJlFJ226Sc/s/RVkQE58+fL74u6fUlAJwkIqeySvTq8mQR5cy3Fg/vvnbXl6SUO4soLw+2bX+kiHKIyB83PRARqIK71Iio0knnJIBVdGxedu7YYZyA+FdO3j5R7/GjWjrU9kELq9dq0O50IutAANBeW5Pf+d73Knke8iC5ets2Wwjht6fffkSFT7lVjXqtBlJKcF3Xi5ZPnj49FO39om3bbEtEf1MV11aWEODKAr4S1TSePH26Umf64u3bbfSX3nvnnn6+eceSP+Z024a6n6gdV2r+QLkRGo7jyNPPPlvIcbJzxw4B3a8kdTtCZLADoOdQ49qqyD71xk1PY8OGDXD58uW+7EjTHzrttTX5zASMm1UyUg6dYRiGYRgzI3VTHMMwDMMwZtihMwzDMMwYwA6dYRiGYcYAdugMwzAMMwawQ2cYhmGYMYAdOsMwDMOMAezQGYZhGGYMYIfOMAzDMGNAoY9+3bN7ZgYAPlRkmZNGrVb78JGFYx9Pk3bnjh1brrhi04Nl14kZTojoy62V43+YJu3emZl7iGBb2XWqEsuy5udbi+8qutxD+w7Ya+21ewBga9Fle1iW9dH51uKfFV3u7mt37bdt+wNFlztsSCnvXDqxUsjLbEaZQh16p9PZDAA3pUkb+zjFxGctFkC/Gqb8BdTbsqwvpk2LiPVOp5OqvSMpu61Nz9dljUI0bNt+LG3RnY7zKiK6pl87Sjrsi9JoFlgNn8PHjjqzU9OrrutmOtcy2CFt23537grG4LrulUTU1xgx5H2+npbkXxdYnZGl+JezKK/TQ+3TA0F5JrAhHRrKUYKS84ark1pDLxdg/XHG3hNy9fykxPeec6yJavVO0sgC+f+yaSTZEegv7KVRNaKqi3oBrFGKBgB9LaJYMxTczmNH1HkWSKQU5GmEwiB6P7dGiSDiPQDw82XYISyx/IOz3/96kfUNUFV/DFijLHZPT9s2ikNSytcCwMtd190phNgCAEJKeQ4RnwSAI7Va7csI+Mix5dZq+bUyU87b1hAAPcfRbXS9w7wOMaULFKV0mr/ZTRSZt7vhv1sgg0bABm+bwgdfoEKqjrftG6l9ptRIC/ahEWcHquFqeq0/jNoRJ5lfNmv0r4HQJoKvmnOnI7MdWvrQvnqCR6T1xwZ13xPrV6NEJNDDQojTUsodRduBiA88+e1vl/vSkir6Y5AaJXBw777NHafzS+DKX3RAghDiSwDwl/V6ffnSpUvPIaJsNBqbhRDTjuO83HGc9yHi1pldUx8TQtzZWjl+upyaRVOOQ1cbWu0gJUmk81KdoSEOTeGmQRKD41AqDQxGB8rWdfyTUStLjVcPwrQaWcmjkcUOk5Yeb6qDSRO0bdbIrSGEeKzdXjsDWenHDog5VGNO7qg8WcOTNMpkeWXFmZve/ZCU8jf0uD7tcIRllXsfTEX9UZVGvxw6cFC019be4jjOe4UQ8/V6/XYQ+PVji4vtiCyHAeATV//wD4srX7D14OXLl9/huu4/7dk98wEC+t+t48ej8hVO8Q69OyioS9De2RYY05SeCHSM6gwpHO9v62ew4Yw25ovQCOTzZoCmsrVJQ9SbRAOrA3HxMfVPTR6NJDt0B2RCzxc12dLrQ1oca2TWQCH+6olvfSv7VV2fdqCXTyvSdK4H0sYd31pcbo2SsSzrPsdxfh2ifh2Uww4UeKTjdBYKr6xWr0r6o2qNHFy378Cm1dVLHySCV1iW9cuLx5e/lDbvU9/5joR15/7L+2bn9jsd50OA8ONz07vfPqir9VJ+tkbdXqDuNqHW7sq++hn1B1pavwwMa5DhzE6l0R1wQ2DvjzC4b0pHEIz365VSIw9ZNdLYEbBH0fDS+N/F6zPoiD9CJS1r9K0hhMh+R2+fdnifaArX9r00aDjW9HNUP2dya5TMwvLSI4h4skg7bNu+f+XkydLfEV5JfwxYo1/mpndfubp6+W8QxSa7VvtXWZy5zrGl1vyGKzb+GAA85rruFw/M7Z0uppbxFOrQVT+C3Q7y2xzBeOIF0nXjA3kgmE/t9EAaZdvU+UkaXnpdI1BXk9FaWkz6TNDIQ1aNNHb4RFQy7U1IaS5eWSObhmVZh5uN5nK6UvNpJBF7/KqDbhoi0hWqUQBEJIUQ0T8pzWgHIjo1u1b+T62GsT+GrM9ffuj6JgB8Sko532w23rqw1DrXb5mHjx5pL51Y+d16vX736trqX++dmbmqgKrGUsoVuvF7bj1Ou/Q2DTRRDiZXfyZpqMsBJo2owVpNG5WmT4009KuBEe2qThYC8VF11fo1TV+xRmaNj37j6OO5ltv7siMina6hx+mrbKbJbtQvPPJolEmtVnsQAJwi7EDER5577szJouuYpD/o/hiFPj93/tyfAMDZ52163m8enp93Ciwazn7/uf8phPgL15X37brmmnLuW+tSaOFeY3sd6H1Hp3ec59TVn1Ch6nARAt43quPVpUy1LH8m5+mk0DALQPgIwuBuVHa9DSLRNXKQWSPJDiU+VD1DX/jfZ6Fit5LeeC8Ba+TSQIGrjWYj1YOHQtr92qHmUz7Vc4mwd555dqp3OPtZMaiDYC47k8YA6DideSHEgnTlwX7tQCHu637vWi5V9ccANfphz+6Zm4noplqt9iOPHX3ceAPbzh07xJYtW7YIIQQQQcdx2ssnT17odDqJ/ff0s8/Kg3v3//7a2urfNWr1/wQA7++vxtEUf4WuOHF16TcwQCD0lsGV3kXQ9tX8aloIhgc00M8eShOn4Wcibb9nVmDg9aITl3/0+ASNXGTUyGJHKFg9G6l3ouoJvTID39OmrD5rRGsAwANHjh17JjZFVP36taO7TWqY+qmfVyYtZSwInXtFaZTI0sqKtCzrvgLsWK3VBrDc3tWrtD+GuM/3zc3VXdd9nxDiXfOtxchfjWzZsmXL5curRy9cuHjiwsVLJ9bW2k9cc/WLl2Z3Td+1Z/fMXJLOkYV5Rwhxu+M4d+ydmS3tiY2FXqHbtu0AwFNFljlpCCFSf3dDRI5t29zek4ODiH+cJ6MQuEAEZ3shKACo/KvDWAqvw0qBZUVCRA8IId4EQH1cEOFj84sLuSZm2WTgghB4OGfmIThG0iGleDZPPtdx3wgAZ1srxz8dlw6FEES0CREv1Wq1z7mu25RS7nWl+0uS5Fvmpnf/dGvl+Bfiylg8vjw/s2vqs47j/BoA/Jc89U0CKc/jyRiGYRhmhLnqyivF87ds+bxt2XcvHl+O/Rrr0P79Wy9cuHiCiB498c1T/84L37N75mc6nc49lmWdPHv2+/u+873vxU6A9s7MHnIc55MbN27cd3j+aOFPlOO3rTEMwzATxw9deeU2gWK/QBF7dQ4AEHXhu3h8+QFEfNh13elt27Yn/jRtYXnpMBGdcxz3FTmqnAg7dIZhGGbiECheSURfP7bcupSYOOZmqVqtdgoA7IsXL25MpSvEF9rttVenrWcW2KEzDMMwk8gNUsp/TpMw7v67TqdzDQCsbtq0KdWjmIUQ/0JEL02TNiul/iaOYRiGYYaRTqezo9FofDlv/pmpadsS1s8R0WuEZf3D4fmjqW5Qbrfby5ZlXZNXNw526AzDMMzEQUQbpXTPJqcMMDf9kmvvJKBNlmVd3+m05xDxGYH4jtQlIJ4VQmzOqJsKXnJnGIZhmBj8ZyshbgOEXwHAn5NSgmVZ7282my9vrRxP/4KdEn9Zxg6dYRiGmTiEEOdQWJmery4EHqnVar+LCGBZ1skrrtj0e0cXFzK9SU0IcZWUbvZXH6cpu4xCGYZhGGaYEUI80Wm3p9KkVW+KI4D3W5b1sOu6P3n58qVfzaprWdYMojiVNV8a2KEzDMMwE4dlWY8i4o1p0qqL5K3jy5KIfgERz3U6nf+2b3buUBZdIvoRAkp1d31WCr0pbmbXrr0A8OEiy8xG5Y8qFN0Hd+euQ73euHO+tfixNGmv3r59y8YNG/4mGFp5GwxBHbLoV13X9Togwplarf7O+dZiKW/fmp2a+hQRxTxDehjaob96WLZ9ZHF5+faia5TEnpnZva7jfDjubQyI4tTyyRO3EQ22jXe95CWHbMu6szwFFF27Kz12pKQPrJx64oFMeUh+HQDmXrr/4FXfmD+S6dGxyydPnNyze+aOTqdzV6fT+cjs1NS/Xjpx4kJSvp1XX203642barVaKX6yUIcuJW0EgMgZj/qmnZiXPUWSnIdiy0mjkSVddO6+NP4yrZIlRF1K0tqbAltlvLMirh/1OpSnkZQ7rQbl1EhfkyQ7EGGhVq//YlnOHABASjpERNdEp4hvs7Tnrv7SrCTCec39kUbDIij0tZdp6TidZSTYSUQ71Pqp25YFDw/amXcrsFlKujF/f4S3g/tUQJ8naSQfV0RyRwrpAK3jx5+bnZr+6qXLl24BgP+TNb9L8k+FsP69lO4bbNt+LwC8KynPpo1XvMpxnDYQHMmql4ZyltypeyOf8kdkCIfgvp8GenEEvXg0hJk01LIppQZ5cQD+a/rUIU6Njxz7qJeOlDJIC4/TyEoejSQ7vHi/rTUNUDX0dBTMb9RlDR/Lsh5oNBo/eqzVmoeSKdIO/xxSz0taP+bUAgLlau1JSl49fR6Nqlg5edKxLOsTkXYAyFqtdl8llevWx/scZH8MWiMPiPghKeUdL9q+I/biFg0iyysrstlsvAMRn3Ec5zdmp6ZvTtLrdDp3IOJdx5ZbpUw+y3Ho+ivyvNfeeVHKK/BMrz+NesNeIExNp2jo6TGlhpqXglXs5TW8ti/Qz9hL55WHEA6L08hKHo0kOwLtpZxsul2BMiGYrlewQZc1ABEv2Lb9y0snVt4831rM+lvY/PRjh3bS+OeyWp52nuuvQCYlj1JUQC+vRpXYtn0/4vqys24HCpwnKUufsMVRRX8MUiMvjUbjSwBw+nlXXPErcekoQuTIwrGnLMt6JwAIIvrwwb37tkaVsXdm9rUAsJeI/m/+GsdT2oNlTPZHNrzuYLqeyOR4It+nawgzpo3SUOJSHSCm/J4HjSOLRl76tcNQVmKYIQ6xW35Su0yYhhDic81m8x1HFo4N5HWfflUKsMOUNRQWU7Y+uQkEFqRRBU8//dQjW7e+8CQRTet2IOD9x5aXKvk6AAAq749h7vPHj83L/XN7frPdbv+/2anpv106sWL82uvx+fkzAPB8U1xr5fgnAMCK07nh0Es3O45zt23Xfnvx+FLid+15Kf4KXV2e0z7V5TuMSWcqB7T8kXm1v9CSYYKGqc4AhnIguG1aziR1O6VGrubOqJFoh95foJVjSGNKH1zrZw0AeKpWq73dcZ2fGLQz9+qlbuexAw3HmamNNLuNx2XUfm6NCvn++fNSCPGAbgcAyFqtnulmrcKpqj8GqdEH863Fw8ISfwwADx7af2BLf6WFuebqq+3z5859RAjxFSL5F0WXr1Lakrs/AVOXSpRPSkgHWnggDhPyduOpG5dFI2CDd+VKfpFhna4xqG17S5fG5coYjazk0Uhjh1eevoCh94eq7ZcdcYL5dZgwDRR4tl6v/VfLEgcWjy9/7OQ3v1nd1ZpC5rZCJZ9pX20vNY56+/qSqr86VIRGxViW9SBg98a8bt2EEF8XAku72TE1VfTHIDX6pNlovF8Icfjy5cufvG5fcU5978xss9nccBcAXCld9x2tleOl3hhZ2k1xAc+tDBgekf2AMZEYEaV3LPWKMp7nURrdcOMyuu4F1QNLFdK31c+0GlnIq5HFDl0rahu1PwCzXROigYjP1Oq1P2w0GvsWjy+/e+nEicF9Vx5FP21liDaWmzJP1vA8GoOk7XSOIKL/CFACACHEfUcXF6r9OeAQ9cew9vnh+XnZaDZ/TQhx6vLq5c/PTE0lvts8if1ze65yHOdBKeVOFPhTy0+cXC2irnEU79C7jR5YBqPeB2npALSO0Z2hFk+mQNM+hOcVcRqBaFPZ6hKP8hm13Ed6+iwaWcmjkWRHQht5caF+1pfKlG2KmHiNmYYjLPFV27Z/0bbtPYvHl39/vrWY6dGQpdJnWyFA6FgJnVvUS0PeylPcsa0d+7k1Kmbl5Elp2/b93r4QKJvN5ieqrBMAVNcfVWtk5PDRI+0rNl5xuyXE/UDwd7NT07++f25PPWs51+3bb++dmb210+n8EyI+2Ww2/sPSyspAJvOl3BRH3Zk+AZg9KvacbYLfC5ar7nTLMK0GYMSBEaeB3UE9tGytTSxiVxa8NGoeZTuNRh6yaqSxQ0/raWD3n6eReJOiSXPMNBCxjYiPIOJf2bb96WNLreXoEiok6hhI2Vbejjf4oiGvd1JHHofdcvV5hOlO5340qsKyrIcc4byHiGxA+NLh+aNDMZmruj9K1yjIsT/6+DccAPgf+2bnvtDpdP6k3W6/c3Zq+oOWbf/5wlIr1invnZ3bCERvdBznnQS0qWbXbl9YXvpcMTVLR6EOXR0kohyK3u56pxoHGt1hgbISYxqIUUubRkNJh3qacNLI8kyfpnaJ0shDVo00dvhEVDLtIBroq6REI6AhECUAPIVCzAPAo7ZlfU0SfbV1fPlcupKqpZ+2Uok9fk3nXWxhA9AYEKeffmp56wuvepSIbgTAe6uuDwAMZ38MeZ8fW2odBoB/s3d27ian07nddZw/2H3triNE9Ei9Xj+xtrb2DADJer1xlZTyWiJ6GQDcSESPNpvND3z/7A8eOv7tkwO/V6ZQh44AlwDgMBqumr1t3wmb0mgzL29JEE1pojS6+/qMMFHDm2kY0vjpIKgdkNXyq/pRaSI0sjyC0AGAwzk04u3Q+wsgfIJFnXV6/ojjYFg1bNu+BACrrus+J6U8Y9v2WQT4tivlk5s2bXrq/Plzyxs3XnHpyMKxobixLQMLQHC2r7ZS00a0u7/ioaU19pep3H40AAb/ywGN586flzNT03chor1x48bPVF0fALgAAIcr6Y9BamQbN1OzsNT6AgB8YXZqanOtVnslALxsbW3tBsuyrgIA0W63z9i2/ZQQ4i4hrLctLLdKeYtaWpCG4TcfDMMwDMP0Bb9tjWEYhmHGAHboDMMwDDMGsENnGIZhmDGAHTrDMAzDjAHs0BmGYRhmDGCHzjAMwzBjADt0hmEYhhkD2KEzDMMwzBjADp1hGIZhxgB26AzDMAwzBrBDZxiGYZgxgB06wzAMw4wB7NAZhmEYZgxgh84wDMMwYwA7dIZhGIYZA9ihMwzDMMwY8P8ByE6kUIKQoIwAAAAASUVORK5CYII=;" parent="1" vertex="1">
          <mxGeometry x="442" y="488.34000000000003" width="90" height="36" as="geometry" />
        </mxCell>
        <object placeholders="1" c4Type="Relationship" id="4-L-n2TwKw5mKGtv1cZT-42">
          <mxCell style="endArrow=blockThin;html=1;fontSize=10;fontColor=#404040;strokeWidth=1;endFill=1;strokeColor=#828282;elbow=vertical;metaEdit=1;endSize=14;startSize=14;jumpStyle=arc;jumpSize=16;rounded=0;edgeStyle=orthogonalEdgeStyle;exitX=0.25;exitY=1;exitDx=0;exitDy=0;exitPerimeter=0;entryX=0.5;entryY=0;entryDx=0;entryDy=0;entryPerimeter=0;" parent="1" source="4-L-n2TwKw5mKGtv1cZT-22" target="4-L-n2TwKw5mKGtv1cZT-20" edge="1">
            <mxGeometry width="240" relative="1" as="geometry">
              <mxPoint x="192" y="630" as="sourcePoint" />
              <mxPoint x="217" y="750" as="targetPoint" />
              <Array as="points">
                <mxPoint x="232" y="450" />
                <mxPoint x="157" y="450" />
              </Array>
            </mxGeometry>
          </mxCell>
        </object>
        <object placeholders="1" c4Type="Relationship" id="4-L-n2TwKw5mKGtv1cZT-43">
          <mxCell style="endArrow=blockThin;html=1;fontSize=10;fontColor=#404040;strokeWidth=1;endFill=1;strokeColor=#828282;elbow=vertical;metaEdit=1;endSize=14;startSize=14;jumpStyle=arc;jumpSize=16;rounded=0;edgeStyle=orthogonalEdgeStyle;exitX=0.75;exitY=1;exitDx=0;exitDy=0;exitPerimeter=0;" parent="1" source="4-L-n2TwKw5mKGtv1cZT-22" edge="1">
            <mxGeometry width="240" relative="1" as="geometry">
              <mxPoint x="777" y="473.89" as="sourcePoint" />
              <mxPoint x="432" y="479" as="targetPoint" />
            </mxGeometry>
          </mxCell>
        </object>
        <object placeholders="1" c4Type="Relationship" id="lAif0GsYa-CBhQv8_HKj-1">
          <mxCell style="endArrow=blockThin;html=1;fontSize=10;fontColor=#404040;strokeWidth=1;endFill=1;strokeColor=#828282;elbow=vertical;metaEdit=1;endSize=14;startSize=14;jumpStyle=arc;jumpSize=16;rounded=0;edgeStyle=orthogonalEdgeStyle;startArrow=blockThin;startFill=1;exitX=1;exitY=0.5;exitDx=0;exitDy=0;exitPerimeter=0;entryX=0;entryY=0.5;entryDx=0;entryDy=0;entryPerimeter=0;" edge="1" parent="1" source="4-L-n2TwKw5mKGtv1cZT-17" target="4-L-n2TwKw5mKGtv1cZT-19">
            <mxGeometry width="240" relative="1" as="geometry">
              <mxPoint x="700" y="310" as="sourcePoint" />
              <mxPoint x="340" y="260" as="targetPoint" />
            </mxGeometry>
          </mxCell>
        </object>
      </root>
    </mxGraphModel>
  </diagram>
</mxfile>
